<?xml version="1.0" encoding="UTF-8" standalone="no"?>
<!-- Created with Inkscape (http://www.inkscape.org/) -->

<svg
   width="13cm"
   height="5cm"
   viewBox="0 0 130 50"
   version="1.1"
   id="svg4699"
   inkscape:version="1.2.1 (9c6d41e410, 2022-07-14)"
   sodipodi:docname="cmb.svg"
   xmlns:inkscape="http://www.inkscape.org/namespaces/inkscape"
   xmlns:sodipodi="http://sodipodi.sourceforge.net/DTD/sodipodi-0.dtd"
   xmlns="http://www.w3.org/2000/svg"
   xmlns:svg="http://www.w3.org/2000/svg">
  <sodipodi:namedview
     id="namedview4701"
     pagecolor="#ffffff"
     bordercolor="#000000"
     borderopacity="1"
     inkscape:showpageshadow="0"
     inkscape:pageopacity="1"
     inkscape:pagecheckerboard="true"
     inkscape:deskcolor="#505050"
     inkscape:document-units="mm"
     showgrid="false"
     showguides="false"
     inkscape:zoom="1.4770343"
     inkscape:cx="317.52817"
     inkscape:cy="82.597946"
     inkscape:window-width="1920"
     inkscape:window-height="1009"
     inkscape:window-x="-8"
     inkscape:window-y="-8"
     inkscape:window-maximized="1"
     inkscape:current-layer="layer1">
    <sodipodi:guide
       position="88.267039,44.496389"
       orientation="0,-1"
       id="guide21752"
       inkscape:locked="false" />
    <sodipodi:guide
       position="91.946463,17.218725"
       orientation="0,-1"
       id="guide21754"
       inkscape:locked="false" />
    <sodipodi:guide
       position="91.099591,12.627729"
       orientation="0,-1"
       id="guide21756"
       inkscape:locked="false" />
    <sodipodi:guide
       position="83.620816,-26.164468"
       orientation="0,-1"
       id="guide13530"
       inkscape:locked="false" />
    <sodipodi:guide
       position="45.751643,1.2503451"
       orientation="1,0"
       id="guide13532"
       inkscape:locked="false" />
  </sodipodi:namedview>
  <defs
     id="defs4696">
    <clipPath
       id="clip-7">
      <path
         clip-rule="nonzero"
         d="M 170,275 H 375 V 496.65625 H 170 Z m 0,0"
         id="path387" />
    </clipPath>
    <clipPath
       id="clip-1">
      <path
         clip-rule="nonzero"
         d="m 266,372 h 32 v 32 h -32 z m 0,0"
         id="path369" />
    </clipPath>
    <clipPath
       id="clip-2">
      <path
         clip-rule="nonzero"
         d="m 297.83203,385.44922 -17.74609,-13.3711 -13.53907,17.96094 17.7461,13.375 z m 0,0"
         id="path372" />
    </clipPath>
    <clipPath
       id="clip-3">
      <path
         clip-rule="nonzero"
         d="M 484.03125,388.16016 226.42187,194.03906 80.832031,387.24219 338.44141,581.36719 Z m 0,0"
         id="path375" />
    </clipPath>
    <clipPath
       id="clip-4">
      <path
         clip-rule="nonzero"
         d="m 277,376 h 15 v 23 h -15 z m 0,0"
         id="path378" />
    </clipPath>
    <clipPath
       id="clip-5">
      <path
         clip-rule="nonzero"
         d="m 297.83203,385.44922 -17.74609,-13.3711 -13.53907,17.96094 17.7461,13.375 z m 0,0"
         id="path381" />
    </clipPath>
    <clipPath
       id="clip-6">
      <path
         clip-rule="nonzero"
         d="M 484.03125,388.16016 226.42187,194.03906 80.832031,387.24219 338.44141,581.36719 Z m 0,0"
         id="path384" />
    </clipPath>
    <clipPath
       id="clip-8">
      <path
         clip-rule="nonzero"
         d="M 142,247 H 423 V 496.65625 H 142 Z m 0,0"
         id="path390" />
    </clipPath>
    <clipPath
       id="clip-9">
      <path
         clip-rule="nonzero"
         d="m 266,139.74219 h 33 V 172 h -33 z m 0,0"
         id="path393" />
    </clipPath>
    <clipPath
       id="clip-10">
      <path
         clip-rule="nonzero"
         d="m 282.30469,171.30859 15.71484,-15.71484 -15.90625,-15.90234 -15.71094,15.71093 z m 0,0"
         id="path396" />
    </clipPath>
    <clipPath
       id="clip-11">
      <path
         clip-rule="nonzero"
         d="M 253.70703,355.32031 481.79297,127.23438 310.72656,-43.828125 82.644531,184.25781 Z m 0,0"
         id="path399" />
    </clipPath>
    <clipPath
       id="clip-12">
      <path
         clip-rule="nonzero"
         d="m 271,151 h 22 v 14 h -22 z m 0,0"
         id="path402" />
    </clipPath>
    <clipPath
       id="clip-13">
      <path
         clip-rule="nonzero"
         d="m 282.30469,171.30859 15.71484,-15.71484 -15.90625,-15.90234 -15.71094,15.71093 z m 0,0"
         id="path405" />
    </clipPath>
    <clipPath
       id="clip-14">
      <path
         clip-rule="nonzero"
         d="M 253.70703,355.32031 481.79297,127.23438 310.72656,-43.828125 82.644531,184.25781 Z m 0,0"
         id="path408" />
    </clipPath>
    <clipPath
       id="clip-7-2">
      <path
         clip-rule="nonzero"
         d="M 170,275 H 375 V 496.65625 H 170 Z m 0,0"
         id="path387-0" />
    </clipPath>
    <clipPath
       id="clip-1-0">
      <path
         clip-rule="nonzero"
         d="m 266,372 h 32 v 32 h -32 z m 0,0"
         id="path369-2" />
    </clipPath>
    <clipPath
       id="clip-2-0">
      <path
         clip-rule="nonzero"
         d="m 297.83203,385.44922 -17.74609,-13.3711 -13.53907,17.96094 17.7461,13.375 z m 0,0"
         id="path372-0" />
    </clipPath>
    <clipPath
       id="clip-3-8">
      <path
         clip-rule="nonzero"
         d="M 484.03125,388.16016 226.42187,194.03906 80.832031,387.24219 338.44141,581.36719 Z m 0,0"
         id="path375-8" />
    </clipPath>
    <clipPath
       id="clip-4-7">
      <path
         clip-rule="nonzero"
         d="m 277,376 h 15 v 23 h -15 z m 0,0"
         id="path378-3" />
    </clipPath>
    <clipPath
       id="clip-5-5">
      <path
         clip-rule="nonzero"
         d="m 297.83203,385.44922 -17.74609,-13.3711 -13.53907,17.96094 17.7461,13.375 z m 0,0"
         id="path381-4" />
    </clipPath>
    <clipPath
       id="clip-6-4">
      <path
         clip-rule="nonzero"
         d="M 484.03125,388.16016 226.42187,194.03906 80.832031,387.24219 338.44141,581.36719 Z m 0,0"
         id="path384-6" />
    </clipPath>
    <clipPath
       id="clip-8-6">
      <path
         clip-rule="nonzero"
         d="M 142,247 H 423 V 496.65625 H 142 Z m 0,0"
         id="path390-3" />
    </clipPath>
    <clipPath
       id="clip-9-6">
      <path
         clip-rule="nonzero"
         d="m 266,139.74219 h 33 V 172 h -33 z m 0,0"
         id="path393-9" />
    </clipPath>
    <clipPath
       id="clip-10-2">
      <path
         clip-rule="nonzero"
         d="m 282.30469,171.30859 15.71484,-15.71484 -15.90625,-15.90234 -15.71094,15.71093 z m 0,0"
         id="path396-5" />
    </clipPath>
    <clipPath
       id="clip-11-8">
      <path
         clip-rule="nonzero"
         d="M 253.70703,355.32031 481.79297,127.23438 310.72656,-43.828125 82.644531,184.25781 Z m 0,0"
         id="path399-1" />
    </clipPath>
    <clipPath
       id="clip-12-7">
      <path
         clip-rule="nonzero"
         d="m 271,151 h 22 v 14 h -22 z m 0,0"
         id="path402-2" />
    </clipPath>
    <clipPath
       id="clip-13-7">
      <path
         clip-rule="nonzero"
         d="m 282.30469,171.30859 15.71484,-15.71484 -15.90625,-15.90234 -15.71094,15.71093 z m 0,0"
         id="path405-7" />
    </clipPath>
    <clipPath
       id="clip-14-4">
      <path
         clip-rule="nonzero"
         d="M 253.70703,355.32031 481.79297,127.23438 310.72656,-43.828125 82.644531,184.25781 Z m 0,0"
         id="path408-0" />
    </clipPath>
    <clipPath
       id="clip-1-8">
      <path
         clip-rule="nonzero"
         d="M 130.21484,196 H 161 v 35 h -30.78516 z m 0,0"
         id="path2510" />
    </clipPath>
    <clipPath
       id="clip-2-7">
      <path
         clip-rule="nonzero"
         d="M 130.21484,170 H 162 v 32 h -31.78516 z m 0,0"
         id="path2513" />
    </clipPath>
  </defs>
  <g
     inkscape:label="Capa 1"
     inkscape:groupmode="layer"
     id="layer1">
    <path
       fill-rule="nonzero"
       fill="#bfbfbf"
       fill-opacity="1"
       stroke-width="0.140582"
       stroke-linecap="butt"
       stroke-linejoin="miter"
       stroke="#bfbfbf"
       stroke-opacity="1"
       stroke-miterlimit="10"
       d="M 76.605414,43.330774 V 8.3299823 H 86.605838 V 43.330774 Z m 0,0"
       id="path2574" />
    <path
       fill="none"
       stroke-width="0.421756"
       stroke-linecap="butt"
       stroke-linejoin="miter"
       stroke="#000000"
       stroke-opacity="1"
       stroke-miterlimit="10"
       d="M 124.60662,8.3299823 H 27.730534"
       id="path2576" />
    <path
       fill-rule="nonzero"
       fill="#000000"
       fill-opacity="1"
       d="M 26.606055,8.3299804 28.404396,9.2298389 27.730534,8.3299804 28.404396,7.4301219"
       id="path2578"
       style="stroke-width:0.352778" />
    <path
       fill="none"
       stroke-width="0.421756"
       stroke-linecap="butt"
       stroke-linejoin="miter"
       stroke="#000000"
       stroke-opacity="1"
       stroke-miterlimit="10"
       d="M 6.6052094,43.330774 H 115.48125"
       id="path2606"
       style="stroke-width:0.422;stroke-dasharray:none" />
    <path
       fill-rule="nonzero"
       fill="#000000"
       fill-opacity="1"
       d="m 116.6071,43.330774 -1.79971,-0.899859 0.67386,0.899859 -0.67386,0.898479"
       id="path2608"
       style="stroke-width:0.352778" />
    <path
       fill="none"
       stroke-width="0.421756"
       stroke-linecap="butt"
       stroke-linejoin="miter"
       stroke="#000000"
       stroke-opacity="1"
       stroke-miterlimit="10"
       d="m 81.606314,42.330318 v 1.999533"
       id="path2620" />
    <path
       fill="none"
       stroke-width="0.421756"
       stroke-linecap="butt"
       stroke-linejoin="miter"
       stroke="#000000"
       stroke-opacity="1"
       stroke-miterlimit="10"
       d="m 36.6051,42.330318 v 1.999533"
       id="path2646" />
    <path
       fill="none"
       stroke-width="0.421756"
       stroke-linecap="butt"
       stroke-linejoin="miter"
       stroke="#000000"
       stroke-opacity="1"
       stroke-miterlimit="10"
       d="m 81.606314,7.3295278 v 1.999532"
       id="path2672" />
    <path
       fill="none"
       stroke-width="0.421756"
       stroke-linecap="butt"
       stroke-linejoin="miter"
       stroke="#000000"
       stroke-opacity="1"
       stroke-miterlimit="10"
       d="m 36.6051,7.3295278 v 1.999532"
       id="path2692" />
    <path
       fill-rule="nonzero"
       fill="#000000"
       fill-opacity="1"
       stroke-width="0.140582"
       stroke-linecap="butt"
       stroke-linejoin="miter"
       stroke="#000000"
       stroke-opacity="1"
       stroke-miterlimit="10"
       d="m 10.720031,39.830557 c 0,-0.340376 -0.275607,-0.615983 -0.614605,-0.615983 -0.3403751,0 -0.6146048,0.275607 -0.6146048,0.615983 0,0.338997 0.2742297,0.614605 0.6146048,0.614605 0.338998,0 0.614605,-0.275608 0.614605,-0.614605 z m 0,0"
       id="path2712" />
    <g
       fill="#000000"
       fill-opacity="1"
       id="g2716"
       transform="matrix(0.35277777,0,0,0.35277777,-42.622448,-46.834264)">
      <g
         id="use2714"
         transform="translate(153.3,247.55)">
        <path
           d="m 6.34375,-2.96875 c 0.125,0 0.296875,0 0.296875,-0.1875 0,-0.203125 -0.1875,-0.203125 -0.328125,-0.203125 H 0.84375 c -0.140625,0 -0.328125,0 -0.328125,0.203125 0,0.1875 0.171875,0.1875 0.296875,0.1875 z M 6.3125,-1.140625 c 0.140625,0 0.328125,0 0.328125,-0.203125 0,-0.1875 -0.171875,-0.1875 -0.296875,-0.1875 H 0.8125 c -0.125,0 -0.296875,0 -0.296875,0.1875 0,0.203125 0.1875,0.203125 0.328125,0.203125 z m 0,0"
           id="path9884" />
      </g>
    </g>
    <path
       fill-rule="nonzero"
       fill="#ffffff"
       fill-opacity="1"
       stroke-width="0.140582"
       stroke-linecap="butt"
       stroke-linejoin="miter"
       stroke="#000000"
       stroke-opacity="1"
       stroke-miterlimit="10"
       d="m 10.54502,35.830112 c 0,-0.242535 -0.197059,-0.439594 -0.439594,-0.439594 -0.2425343,0 -0.4395939,0.197059 -0.4395939,0.439594 0,0.242535 0.1970596,0.439594 0.4395939,0.439594 0.242535,0 0.439594,-0.197059 0.439594,-0.439594 z m 0,0"
       id="path2732" />
    <g
       fill="#000000"
       fill-opacity="1"
       id="g2736"
       transform="matrix(0.35277777,0,0,0.35277777,-42.622448,-46.834264)">
      <g
         id="use2734"
         transform="translate(153.3,237.386)">
        <path
           d="m 6.34375,-2.96875 c 0.125,0 0.296875,0 0.296875,-0.1875 0,-0.203125 -0.1875,-0.203125 -0.328125,-0.203125 H 0.84375 c -0.140625,0 -0.328125,0 -0.328125,0.203125 0,0.1875 0.171875,0.1875 0.296875,0.1875 z M 6.3125,-1.140625 c 0.140625,0 0.328125,0 0.328125,-0.203125 0,-0.1875 -0.171875,-0.1875 -0.296875,-0.1875 H 0.8125 c -0.125,0 -0.296875,0 -0.296875,0.1875 0,0.203125 0.1875,0.203125 0.328125,0.203125 z m 0,0"
           id="path9888" />
      </g>
    </g>
    <g
       clip-path="url(#clip-1-8)"
       id="g2758"
       transform="matrix(0.35277777,0,0,0.35277777,-42.622448,-46.834264)">
      <path
         fill="none"
         stroke-width="0.79701"
         stroke-linecap="butt"
         stroke-linejoin="miter"
         stroke="#7f7f7f"
         stroke-opacity="1"
         stroke-miterlimit="10"
         d="M -3.125e-5,36.849625 C 0.496062,37.408219 0.187469,38.185562 0.683562,38.744156 c 0.359375,0.402344 0.941407,0.507813 1.550782,0.621094 0.609375,0.109375 1.191406,0.214844 1.550781,0.617187 0.359375,0.40625 0.394531,0.996094 0.433594,1.613282 0.039062,0.621093 0.074218,1.210937 0.433593,1.613281 0.359375,0.40625 0.941407,0.511719 1.550782,0.621094 0.609375,0.109375 1.195312,0.21875 1.554687,0.621093 0.496094,0.558594 0.183594,1.335938 0.679688,1.894532 l 1.179687,1.324218"
         transform="matrix(1,0,0,-1,139.543,255.584)"
         id="path2756" />
    </g>
    <path
       fill-rule="nonzero"
       fill="#7f7f7f"
       fill-opacity="1"
       d="m 10.605653,25.829688 -1.5185987,0.607716 0.9108863,0.07579 0.1818994,0.895724"
       id="path2760"
       style="stroke-width:0.352778" />
    <path
       fill="none"
       stroke-width="0.281167"
       stroke-linecap="butt"
       stroke-linejoin="miter"
       stroke="#7f7f7f"
       stroke-opacity="1"
       stroke-miterlimit="10"
       d="m 11.404916,25.529277 c 0.246669,0.09233 0.463021,-0.107487 0.70969,-0.01516 0.179145,0.06614 0.28801,0.243913 0.402387,0.429948 0.112999,0.187413 0.221864,0.36518 0.401009,0.431326 0.179145,0.06752 0.377582,0.0041 0.585666,-0.06201 0.208084,-0.06615 0.4079,-0.129536 0.587045,-0.06201 0.177767,0.06615 0.28801,0.243913 0.401009,0.431326 0.114377,0.186035 0.223242,0.363802 0.402387,0.431326 0.177767,0.06615 0.377582,0.0028 0.585666,-0.06339 0.208084,-0.06615 0.406521,-0.129535 0.585666,-0.06201 0.179145,0.06614 0.28801,0.243912 0.402388,0.431326 0.112998,0.186035 0.221864,0.363802 0.401009,0.431325 0.246668,0.09233 0.463021,-0.108864 0.709689,-0.01653 l 0.471289,0.175011"
       id="path2762" />
    <path
       fill-rule="nonzero"
       fill="#7f7f7f"
       fill-opacity="1"
       d="m 18.905579,28.32945 -1.114834,-1.196139 0.25907,0.876434 -0.770322,0.493338"
       id="path2764"
       style="stroke-width:0.352778" />
    <path
       fill="none"
       stroke-width="0.281167"
       stroke-linecap="butt"
       stroke-linejoin="miter"
       stroke="#7f7f7f"
       stroke-opacity="1"
       stroke-miterlimit="10"
       d="m 19.305209,28.530644 c 0.179145,-0.194304 0.07441,-0.469911 0.253559,-0.664215 0.129536,-0.139182 0.334863,-0.173632 0.551215,-0.208084 0.216352,-0.03445 0.42168,-0.0689 0.551216,-0.208083 0.129535,-0.14056 0.146072,-0.348644 0.163986,-0.566374 0.01791,-0.21773 0.03445,-0.425814 0.163987,-0.566374 0.129535,-0.140559 0.334863,-0.173632 0.551215,-0.208084 0.214974,-0.03583 0.42168,-0.0689 0.551215,-0.209461 0.129536,-0.14056 0.146072,-0.348644 0.163987,-0.566374 0.01653,-0.21773 0.03445,-0.425814 0.163986,-0.564996 0.177767,-0.194303 0.461643,-0.112999 0.640788,-0.305924 l 0.425814,-0.461643"
       id="path2766" />
    <path
       fill-rule="nonzero"
       fill="#7f7f7f"
       fill-opacity="1"
       d="m 24.104917,23.329925 -1.528244,0.578778 0.909503,0.09233 0.165365,0.898479"
       id="path2768"
       style="stroke-width:0.352778" />
    <path
       fill="none"
       stroke-width="0.281167"
       stroke-linecap="butt"
       stroke-linejoin="miter"
       stroke="#7f7f7f"
       stroke-opacity="1"
       stroke-miterlimit="10"
       d="m 24.30611,23.130112 c 0.256315,0.05788 0.44235,-0.170877 0.700043,-0.112999 0.186035,0.04134 0.318327,0.202572 0.456131,0.37207 0.139181,0.169499 0.271473,0.330729 0.457508,0.373449 0.186035,0.04134 0.374827,-0.04823 0.571886,-0.141938 0.197059,-0.09371 0.385851,-0.183279 0.571886,-0.141938 0.186035,0.04134 0.318327,0.203949 0.456131,0.37207 0.139181,0.169499 0.271473,0.332107 0.457508,0.373448 0.186036,0.04134 0.374827,-0.04823 0.571886,-0.141937 0.197059,-0.09371 0.385851,-0.18328 0.571886,-0.141938 0.186035,0.04134 0.318327,0.203949 0.45613,0.373448 0.139182,0.16812 0.271474,0.330729 0.457509,0.37207 0.186035,0.04134 0.374827,-0.04823 0.571886,-0.141938 0.19706,-0.09371 0.385851,-0.183279 0.571886,-0.141938 0.186035,0.04272 0.318327,0.20395 0.45613,0.373449 0.139182,0.169498 0.271474,0.330729 0.457509,0.37207 0.256315,0.05788 0.443729,-0.170877 0.700043,-0.112999 l 0.42168,0.09509"
       id="path2770" />
    <path
       fill-rule="nonzero"
       fill="#7f7f7f"
       fill-opacity="1"
       d="m 34.105338,25.329459 -1.266416,-1.033526 0.374826,0.833713 -0.694531,0.592554"
       id="path2772"
       style="stroke-width:0.352778" />
    <path
       fill="none"
       stroke-width="0.281167"
       stroke-linecap="butt"
       stroke-linejoin="miter"
       stroke="#7f7f7f"
       stroke-opacity="1"
       stroke-miterlimit="10"
       d="m 34.305155,25.529277 c 0.06063,0.257693 0.347265,0.325217 0.407899,0.581532 0.04272,0.186035 -0.0441,0.376204 -0.136426,0.573264 -0.09233,0.198437 -0.179145,0.388606 -0.136426,0.574641 0.0441,0.184657 0.206706,0.315571 0.377583,0.451997 0.170876,0.136426 0.333485,0.267339 0.376204,0.453374 0.0441,0.186036 -0.0441,0.374827 -0.135048,0.573264 -0.09233,0.198438 -0.180523,0.387229 -0.136425,0.573264 0.04272,0.186035 0.206705,0.316949 0.376204,0.453375 0.170877,0.136426 0.333485,0.267339 0.377583,0.453375 0.0441,0.186034 -0.0441,0.374826 -0.136426,0.573263 -0.09233,0.198438 -0.179145,0.387229 -0.136426,0.573264 0.0441,0.186035 0.206706,0.316949 0.377582,0.453375 0.170877,0.136426 0.333486,0.267339 0.377583,0.451996 0.04272,0.186035 -0.0441,0.376205 -0.136426,0.574642 -0.09233,0.19706 -0.180523,0.387229 -0.136426,0.573264 0.06063,0.256315 0.347266,0.323839 0.406521,0.581532 l 0.104731,0.44235"
       id="path2774" />
    <path
       fill-rule="nonzero"
       fill="#7f7f7f"
       fill-opacity="1"
       d="m 36.6051,35.329883 0.377581,-1.590255 -0.585664,0.701421 -0.837847,-0.367936"
       id="path2776"
       style="stroke-width:0.352778" />
    <path
       fill="none"
       stroke-width="0.281167"
       stroke-linecap="butt"
       stroke-linejoin="miter"
       stroke="#7f7f7f"
       stroke-opacity="1"
       stroke-miterlimit="10"
       d="m 36.806294,35.529699 c 0.237022,-0.114377 0.239778,-0.409277 0.476801,-0.525032 0.170877,-0.08406 0.376204,-0.03996 0.5898,0.0069 0.213596,0.04547 0.417546,0.08957 0.588423,0.0055 0.172254,-0.08268 0.263205,-0.270096 0.359667,-0.467155 0.09508,-0.19706 0.186036,-0.384473 0.35829,-0.467155 0.170877,-0.08406 0.376205,-0.03996 0.589801,0.0055 0.213596,0.04685 0.417545,0.09095 0.588422,0.0069 0.172255,-0.08406 0.263206,-0.271474 0.359668,-0.467155 0.09509,-0.19706 0.186035,-0.384473 0.35829,-0.468533 0.170877,-0.08268 0.376204,-0.03996 0.5898,0.0069 0.213596,0.04548 0.417544,0.08957 0.588423,0.0069 0.172254,-0.08406 0.263204,-0.271473 0.359667,-0.468533 0.09508,-0.195682 0.186034,-0.384473 0.358292,-0.467155 0.170875,-0.08406 0.376202,-0.03996 0.589798,0.0055 0.213597,0.04685 0.417545,0.09095 0.588423,0.0069 0.172254,-0.08268 0.263204,-0.271474 0.359668,-0.467155 0.09508,-0.19706 0.186034,-0.384473 0.358291,-0.468533 0.170875,-0.08268 0.376203,-0.03859 0.589799,0.0069 0.213596,0.04685 0.417544,0.08957 0.588423,0.0069 0.172254,-0.08406 0.263204,-0.271474 0.359667,-0.468533 0.09508,-0.195682 0.186034,-0.383095 0.358292,-0.467155 0.172254,-0.08406 0.376202,-0.03996 0.589798,0.0069 0.213597,0.04547 0.417545,0.08957 0.588423,0.0055 0.172255,-0.08268 0.263204,-0.270095 0.359668,-0.467155 0.09508,-0.197059 0.186034,-0.384473 0.358291,-0.467155 0.172255,-0.08406 0.376203,-0.03996 0.589799,0.0055 0.213596,0.04685 0.417544,0.08957 0.588423,0.0069 0.23702,-0.115755 0.241155,-0.410655 0.478179,-0.525033 l 0.467156,-0.228754"
       id="path2778" />
    <path
       fill-rule="nonzero"
       fill="#7f7f7f"
       fill-opacity="1"
       d="m 51.606424,28.32945 -1.635732,-0.01655 0.813044,0.416169 -0.172255,0.898482"
       id="path2780"
       style="stroke-width:0.352778" />
    <path
       fill="none"
       stroke-width="0.281167"
       stroke-linecap="butt"
       stroke-linejoin="miter"
       stroke="#7f7f7f"
       stroke-opacity="1"
       stroke-miterlimit="10"
       d="m 51.806237,28.129635 c 0.23427,0.119889 0.47129,-0.05512 0.706935,0.06477 0.169499,0.08682 0.257694,0.275608 0.348644,0.474046 0.09233,0.198437 0.180523,0.388606 0.350022,0.475423 0.170875,0.08682 0.374827,0.04685 0.589799,0.0041 0.214975,-0.04134 0.418923,-0.0813 0.589802,0.0055 0.169499,0.08682 0.257693,0.275608 0.350022,0.474045 0.09095,0.198438 0.179144,0.387229 0.348644,0.474045 0.170875,0.08682 0.374826,0.04685 0.589798,0.0055 0.214976,-0.04272 0.418924,-0.08268 0.589802,0.0041 0.169499,0.08682 0.257694,0.275608 0.350023,0.474045 0.09095,0.198438 0.179144,0.388607 0.348643,0.475423 0.170875,0.08544 0.376202,0.04685 0.589799,0.0041 0.214975,-0.04272 0.420303,-0.0813 0.589802,0.0055 0.169499,0.08544 0.257693,0.275608 0.350019,0.474045 0.09095,0.198438 0.179147,0.387229 0.350022,0.474045 0.169499,0.08682 0.374827,0.04685 0.588423,0.0041 0.214976,-0.04134 0.420303,-0.0813 0.589802,0.0055 0.169496,0.08682 0.25769,0.275607 0.350019,0.474045 0.09095,0.198437 0.179148,0.388607 0.350023,0.474045 0.169499,0.08682 0.374826,0.04823 0.588423,0.0055 0.214972,-0.04272 0.420302,-0.08268 0.589798,0.0041 0.169499,0.08682 0.257694,0.276986 0.350023,0.475423 0.09095,0.198438 0.179144,0.387229 0.350022,0.474046 0.169499,0.08682 0.374827,0.04685 0.588423,0.0041 0.214972,-0.04134 0.420299,-0.0813 0.589799,0.0055 0.170878,0.08682 0.257693,0.275608 0.350022,0.474045 0.09233,0.198438 0.179144,0.387229 0.350023,0.474045 0.169499,0.08682 0.374826,0.04685 0.589798,0.0055 0.213597,-0.04272 0.418924,-0.08268 0.588423,0.0041 0.170879,0.08682 0.259073,0.276985 0.350023,0.475423 0.09233,0.198437 0.180523,0.387229 0.350022,0.474045 0.169499,0.08682 0.374827,0.04685 0.589799,0.0041 0.213596,-0.04134 0.418923,-0.08131 0.588422,0.0055 0.170879,0.08682 0.259073,0.275608 0.350023,0.474046 0.09233,0.198437 0.180523,0.387228 0.350023,0.474045 0.169495,0.08682 0.374826,0.04685 0.589798,0.0055 0.213597,-0.04272 0.418924,-0.08268 0.588423,0.0041 0.235645,0.11989 0.23289,0.41479 0.467155,0.534679 l 0.706932,0.361046"
       id="path2782" />
    <path
       fill-rule="nonzero"
       fill="#7f7f7f"
       fill-opacity="1"
       d="m 71.406076,38.130057 -0.970138,-1.316027 0.155716,0.901238 -0.81993,0.40101"
       id="path2784"
       style="stroke-width:0.352778" />
    <path
       fill="none"
       stroke-width="0.281167"
       stroke-linecap="butt"
       stroke-linejoin="miter"
       stroke="#7f7f7f"
       stroke-opacity="1"
       stroke-miterlimit="10"
       d="m 71.60589,38.329873 c 0.206706,-0.163986 0.146074,-0.451997 0.352778,-0.615983 0.150209,-0.118511 0.358291,-0.119889 0.577398,-0.119889 0.21911,-0.0014 0.427193,-0.0028 0.577398,-0.121268 0.14883,-0.118511 0.198438,-0.321082 0.249425,-0.5333 0.05099,-0.212218 0.09922,-0.41479 0.249424,-0.533301 0.15021,-0.118511 0.358292,-0.119889 0.577399,-0.121268 0.217731,-0.0014 0.427192,-0.0014 0.576022,-0.119889 0.150206,-0.118511 0.199814,-0.322461 0.250801,-0.534679 0.05099,-0.212218 0.09922,-0.414789 0.249424,-0.5333 0.14883,-0.118512 0.358292,-0.11989 0.576023,-0.121268 0.219106,0 0.428568,-0.0014 0.577398,-0.119889 0.150206,-0.118511 0.198438,-0.321083 0.249425,-0.534679 0.05099,-0.212218 0.100594,-0.414789 0.2508,-0.533301 0.14883,-0.118511 0.358292,-0.119889 0.576023,-0.121267 0.219106,0 0.427189,-0.0014 0.577398,-0.119889 0.148826,-0.118512 0.198437,-0.321083 0.249424,-0.533301 0.05099,-0.213596 0.100595,-0.416168 0.249425,-0.534679 0.150206,-0.118511 0.358288,-0.119889 0.577398,-0.119889 0.219107,-0.0014 0.42719,-0.0028 0.577399,-0.121268 0.148826,-0.118511 0.198437,-0.321083 0.249424,-0.533301 0.05099,-0.212217 0.09922,-0.416167 0.249425,-0.534678 0.150205,-0.118511 0.358288,-0.118511 0.577398,-0.119889 0.217728,-0.0014 0.427189,-0.0028 0.576019,-0.121268 0.150206,-0.118511 0.199817,-0.321083 0.250804,-0.533301 0.05099,-0.212218 0.09922,-0.414789 0.249424,-0.533301 0.206707,-0.163986 0.474046,-0.03996 0.679373,-0.202571 l 0.330729,-0.261827"
       id="path2786" />
    <path
       fill-rule="nonzero"
       fill="#7f7f7f"
       fill-opacity="1"
       d="m 83.605848,28.829678 -1.599904,0.334864 0.883324,0.232886 0.0248,0.913641"
       id="path2788"
       style="stroke-width:0.352778" />
    <path
       fill="none"
       stroke-width="0.281167"
       stroke-linecap="butt"
       stroke-linejoin="miter"
       stroke="#7f7f7f"
       stroke-opacity="1"
       stroke-miterlimit="10"
       d="m 84.106076,28.32945 c 0.261828,0.03445 0.425814,-0.209462 0.687642,-0.176389 0.188789,0.0248 0.336239,0.173633 0.489204,0.329351 0.152961,0.155719 0.299032,0.304547 0.487824,0.329352 0.190169,0.0248 0.369313,-0.08131 0.556726,-0.192926 0.188792,-0.111621 0.367937,-0.219108 0.556729,-0.194303 0.190168,0.0248 0.33624,0.173633 0.489204,0.329351 0.152961,0.155718 0.300412,0.304546 0.489204,0.329351 0.188789,0.0248 0.369313,-0.0813 0.556726,-0.192925 0.187413,-0.111621 0.366557,-0.219108 0.556729,-0.194304 0.188789,0.0248 0.33486,0.173633 0.4892,0.329351 0.152965,0.155719 0.299036,0.304547 0.487829,0.329351 0.190168,0.0248 0.369312,-0.0813 0.556725,-0.192925 0.188793,-0.111621 0.367937,-0.21773 0.556729,-0.194303 0.190169,0.0248 0.33624,0.173632 0.489204,0.329351 0.152961,0.155718 0.299032,0.304546 0.489201,0.329351 0.188792,0.0248 0.367936,-0.0813 0.556729,-0.192925 0.187413,-0.111621 0.366557,-0.21773 0.556726,-0.194304 0.188792,0.0248 0.334863,0.173633 0.487828,0.329351 0.15434,0.157097 0.300411,0.304547 0.489204,0.329352 0.190168,0.0248 0.369312,-0.08131 0.556725,-0.192926 0.187414,-0.111621 0.367937,-0.21773 0.55673,-0.194303 0.190168,0.0248 0.336239,0.173633 0.4892,0.329351 0.152965,0.157096 0.299036,0.305925 0.489204,0.329351 0.188793,0.0248 0.367937,-0.0813 0.556729,-0.192925 0.187413,-0.111621 0.366558,-0.21773 0.556726,-0.194304 0.188792,0.0248 0.334864,0.173633 0.487828,0.329351 0.152961,0.157097 0.300412,0.305925 0.489201,0.329352 0.188792,0.0248 0.369316,-0.08131 0.556729,-0.192926 0.187413,-0.111621 0.367936,-0.21773 0.556725,-0.192925 0.188793,0.02343 0.336243,0.172255 0.489204,0.327973 0.15296,0.157096 0.29904,0.305924 0.4892,0.329351 0.1888,0.0248 0.36794,-0.0813 0.55673,-0.192925 0.18742,-0.111621 0.36656,-0.21773 0.55673,-0.192926 0.18879,0.02343 0.33486,0.172255 0.48782,0.329351 0.15297,0.155719 0.30042,0.304547 0.48921,0.327974 0.18879,0.0248 0.36931,-0.08131 0.55673,-0.192926 0.18741,-0.111621 0.36793,-0.21773 0.55672,-0.192925 0.1888,0.02343 0.33625,0.172255 0.48921,0.329351 0.15296,0.155718 0.29903,0.304547 0.48782,0.329351 0.19017,0.02343 0.36932,-0.08268 0.55673,-0.194303 0.18879,-0.111621 0.36794,-0.21773 0.55673,-0.192926 0.19017,0.0248 0.33624,0.172255 0.4892,0.329352 0.15296,0.155718 0.30042,0.304546 0.4892,0.329351 0.1888,0.02343 0.36932,-0.08268 0.55673,-0.194304 0.18742,-0.111621 0.36794,-0.21773 0.55673,-0.192925 0.18879,0.0248 0.33624,0.172255 0.4892,0.329351 0.15296,0.155718 0.29904,0.304546 0.48783,0.329351 0.19017,0.02343 0.36931,-0.08268 0.55673,-0.194303 0.18879,-0.111621 0.36793,-0.21773 0.55672,-0.192926 0.19017,0.0248 0.33625,0.173633 0.48921,0.329352 0.15296,0.155718 0.29903,0.304546 0.4892,0.329351 0.18879,0.02343 0.36932,-0.08268 0.55673,-0.194304 0.18741,-0.111621 0.36656,-0.21773 0.55673,-0.192925 0.18879,0.0248 0.33486,0.173633 0.4892,0.329351 0.15296,0.155719 0.29903,0.304547 0.48782,0.329351 0.19017,0.0248 0.36932,-0.08268 0.55673,-0.194303 0.18879,-0.111621 0.36794,-0.21773 0.55673,-0.192925 0.19017,0.0248 0.33624,0.173632 0.4892,0.329351 0.15296,0.155718 0.29904,0.304546 0.48921,0.329351 0.18879,0.0248 0.36793,-0.08268 0.55672,-0.194304 0.18742,-0.111621 0.36656,-0.21773 0.55673,-0.192925 0.18879,0.0248 0.33487,0.173633 0.48783,0.329351 0.15434,0.155718 0.30041,0.304547 0.4892,0.329351 0.19017,0.0248 0.36932,-0.08268 0.55673,-0.194303 0.18741,-0.111621 0.36793,-0.21773 0.55672,-0.192926 0.19017,0.0248 0.33625,0.173633 0.48921,0.329352 0.15296,0.155718 0.29903,0.304546 0.4892,0.329351 0.18879,0.0248 0.36794,-0.08268 0.55673,-0.194303 0.18741,-0.111622 0.36656,-0.217731 0.55673,-0.192926 0.26045,0.03445 0.35829,0.312815 0.61873,0.345888 l 0.73863,0.09646"
       id="path2790" />
    <path
       fill-rule="nonzero"
       fill="#7f7f7f"
       fill-opacity="1"
       d="m 122.60708,33.33035 -1.35598,-0.913638 0.44923,0.795126 -0.63803,0.654568"
       id="path2792"
       style="stroke-width:0.352778" />
    <path
       fill-rule="nonzero"
       fill="#ffffff"
       fill-opacity="1"
       stroke-width="0.140582"
       stroke-linecap="butt"
       stroke-linejoin="miter"
       stroke="#000000"
       stroke-opacity="1"
       stroke-miterlimit="10"
       d="m 11.544098,25.529277 c 0,-0.242535 -0.195681,-0.438216 -0.438216,-0.438216 -0.243913,0 -0.439594,0.195681 -0.439594,0.438216 0,0.243912 0.195681,0.439594 0.439594,0.439594 0.242535,0 0.438216,-0.195682 0.438216,-0.439594 z m 0,0"
       id="path2794" />
    <path
       fill-rule="nonzero"
       fill="#ffffff"
       fill-opacity="1"
       stroke-width="0.140582"
       stroke-linecap="butt"
       stroke-linejoin="miter"
       stroke="#000000"
       stroke-opacity="1"
       stroke-miterlimit="10"
       d="m 19.744803,28.530644 c 0,-0.243913 -0.197059,-0.439594 -0.439594,-0.439594 -0.242535,0 -0.439594,0.195681 -0.439594,0.439594 0,0.242535 0.197059,0.438216 0.439594,0.438216 0.242535,0 0.439594,-0.195681 0.439594,-0.438216 z m 0,0"
       id="path2796" />
    <path
       fill-rule="nonzero"
       fill="#ffffff"
       fill-opacity="1"
       stroke-width="0.140582"
       stroke-linecap="butt"
       stroke-linejoin="miter"
       stroke="#000000"
       stroke-opacity="1"
       stroke-miterlimit="10"
       d="m 24.744326,23.130112 c 0,-0.242535 -0.195682,-0.439594 -0.438216,-0.439594 -0.243913,0 -0.439595,0.197059 -0.439595,0.439594 0,0.242535 0.195682,0.439594 0.439595,0.439594 0.242534,0 0.438216,-0.197059 0.438216,-0.439594 z m 0,0"
       id="path2798" />
    <path
       fill-rule="nonzero"
       fill="#ffffff"
       fill-opacity="1"
       stroke-width="0.140582"
       stroke-linecap="butt"
       stroke-linejoin="miter"
       stroke="#000000"
       stroke-opacity="1"
       stroke-miterlimit="10"
       d="m 34.744749,25.529277 c 0,-0.242535 -0.19706,-0.438216 -0.439594,-0.438216 -0.242535,0 -0.438217,0.195681 -0.438217,0.438216 0,0.243912 0.195682,0.439594 0.438217,0.439594 0.242534,0 0.439594,-0.195682 0.439594,-0.439594 z m 0,0"
       id="path2800" />
    <path
       fill-rule="nonzero"
       fill="#ffffff"
       fill-opacity="1"
       stroke-width="0.140582"
       stroke-linecap="butt"
       stroke-linejoin="miter"
       stroke="#000000"
       stroke-opacity="1"
       stroke-miterlimit="10"
       d="m 37.24451,35.529699 c 0,-0.242534 -0.195681,-0.439594 -0.438216,-0.439594 -0.243913,0 -0.439594,0.19706 -0.439594,0.439594 0,0.242535 0.195681,0.439595 0.439594,0.439595 0.242535,0 0.438216,-0.19706 0.438216,-0.439595 z m 0,0"
       id="path2802" />
    <path
       fill-rule="nonzero"
       fill="#ffffff"
       fill-opacity="1"
       stroke-width="0.140582"
       stroke-linecap="butt"
       stroke-linejoin="miter"
       stroke="#000000"
       stroke-opacity="1"
       stroke-miterlimit="10"
       d="m 52.245834,28.129635 c 0,-0.242535 -0.197062,-0.439595 -0.439597,-0.439595 -0.242534,0 -0.439592,0.19706 -0.439592,0.439595 0,0.242534 0.197058,0.439594 0.439592,0.439594 0.242535,0 0.439597,-0.19706 0.439597,-0.439594 z m 0,0"
       id="path2804" />
    <path
       fill="none"
       stroke-width="0.281167"
       stroke-linecap="butt"
       stroke-linejoin="miter"
       stroke="#7f7f7f"
       stroke-opacity="1"
       stroke-miterlimit="10"
       d="m 79.106552,23.329928 c 0.256318,-0.05926 0.325219,-0.345888 0.582912,-0.405143 0.186034,-0.04272 0.374827,0.04547 0.571885,0.137803 0.198437,0.09371 0.38723,0.181901 0.573264,0.139182 0.186034,-0.04272 0.316949,-0.205327 0.454751,-0.376204 0.136427,-0.169499 0.268718,-0.332108 0.454756,-0.374827 0.186033,-0.04272 0.374826,0.04548 0.571884,0.137804 0.198438,0.09371 0.38723,0.181901 0.573264,0.139182 0.186034,-0.04272 0.31695,-0.205328 0.454752,-0.376204 0.136426,-0.169499 0.268718,-0.332108 0.454751,-0.374827 0.186038,-0.04272 0.374827,0.04548 0.573264,0.137804 0.197062,0.09371 0.385851,0.181901 0.571888,0.139182 0.186034,-0.04272 0.318326,-0.205328 0.454752,-0.376204 0.137806,-0.169499 0.268718,-0.332108 0.454752,-0.374827 0.186037,-0.04272 0.374826,0.04547 0.573264,0.137804 0.197061,0.09371 0.38585,0.181901 0.571888,0.139182 0.186034,-0.0441 0.318325,-0.205328 0.454751,-0.376205 0.137802,-0.169498 0.268718,-0.332107 0.454752,-0.374826 0.186037,-0.04272 0.374827,0.04547 0.573264,0.137804 0.197062,0.09371 0.385851,0.181901 0.571888,0.139182 0.186034,-0.0441 0.318326,-0.205328 0.454752,-0.376205 0.137802,-0.169498 0.268718,-0.332107 0.454751,-0.374826 0.186034,-0.04272 0.374827,0.04547 0.573264,0.137804 0.197058,0.09233 0.385851,0.181901 0.571885,0.137804 0.186037,-0.04272 0.318329,-0.20395 0.454755,-0.374827 0.137802,-0.169499 0.268718,-0.332107 0.454752,-0.374826 0.186034,-0.04272 0.374826,0.04547 0.573264,0.137804 0.197058,0.09233 0.38723,0.181901 0.571884,0.137803 0.186038,-0.04272 0.318329,-0.203949 0.454755,-0.374826 0.137803,-0.169499 0.268715,-0.332107 0.454752,-0.374826 0.186034,-0.0441 0.374827,0.04547 0.573264,0.137803 0.197058,0.09233 0.387227,0.181902 0.573264,0.137804 0.184658,-0.04272 0.31695,-0.205328 0.453372,-0.374826 0.137806,-0.169499 0.268718,-0.332108 0.454756,-0.374826 0.186033,-0.0441 0.374826,0.04547 0.573263,0.137803 0.197059,0.09233 0.387227,0.180523 0.573264,0.137804 0.186034,-0.04272 0.316946,-0.205328 0.453373,-0.374826 0.137805,-0.170877 0.268717,-0.332108 0.454755,-0.374827 0.186034,-0.0441 0.374826,0.0441 0.573264,0.137804 0.197058,0.09233 0.387226,0.180523 0.573264,0.137804 0.186033,-0.04272 0.316946,-0.205328 0.453372,-0.374826 0.137806,-0.170877 0.268721,-0.332108 0.454751,-0.376205 0.18604,-0.04272 0.37483,0.04547 0.57326,0.139182 0.19707,0.09233 0.38723,0.180523 0.57327,0.137804 0.18604,-0.04272 0.31695,-0.205328 0.45337,-0.374826 0.13781,-0.170877 0.26872,-0.332108 0.45476,-0.376205 0.18603,-0.04272 0.37482,0.04547 0.57326,0.139182 0.19844,0.09233 0.38723,0.180523 0.57326,0.137804 0.18604,-0.04272 0.31695,-0.205328 0.45476,-0.374827 0.13642,-0.170876 0.26734,-0.333485 0.45337,-0.376204 0.18604,-0.04272 0.37483,0.04547 0.57327,0.139182 0.19843,0.09233 0.38723,0.180523 0.57326,0.137804 0.18604,-0.04272 0.31695,-0.205328 0.45475,-0.374827 0.13643,-0.170876 0.26734,-0.333485 0.45338,-0.376204 0.18603,-0.04272 0.3762,0.04547 0.57326,0.139182 0.19844,0.09233 0.38723,0.180522 0.57326,0.137804 0.18604,-0.04272 0.31695,-0.205328 0.45476,-0.374827 0.13642,-0.170877 0.26734,-0.333485 0.45337,-0.376205 0.18604,-0.04272 0.37621,0.04548 0.57327,0.139183 0.19843,0.09233 0.38723,0.180522 0.57326,0.137803 0.25631,-0.05925 0.32522,-0.345887 0.58291,-0.405143 l 0.53192,-0.122645"
       id="path2806" />
    <path
       fill-rule="nonzero"
       fill="#7f7f7f"
       fill-opacity="1"
       d="m 111.6062,15.829267 -1.58887,-0.383096 0.69866,0.589799 -0.36931,0.835092"
       id="path2808"
       style="stroke-width:0.352778" />
    <path
       fill="none"
       stroke-width="0.281167"
       stroke-linecap="butt"
       stroke-linejoin="miter"
       stroke="#7f7f7f"
       stroke-opacity="1"
       stroke-miterlimit="10"
       d="m 66.606369,11.830199 c 0.191548,0.180523 0.468531,0.07855 0.660079,0.259071 0.139181,0.130914 0.169499,0.33762 0.202572,0.553972 0.03306,0.216352 0.06339,0.423057 0.202572,0.553971 0.139182,0.130914 0.347268,0.150206 0.564995,0.169499 0.217731,0.01929 0.425813,0.03858 0.563619,0.169498 0.139181,0.130914 0.170875,0.33762 0.203948,0.553972 0.03168,0.214974 0.06339,0.421679 0.202572,0.552593 0.137805,0.130914 0.345888,0.150206 0.563619,0.169499 0.217731,0.02067 0.425813,0.03996 0.564994,0.170877 0.139182,0.130913 0.1695,0.336241 0.202573,0.552593 0.03305,0.216352 0.06339,0.423058 0.202572,0.553971 0.139181,0.130914 0.347263,0.150206 0.564994,0.169499 0.217731,0.01929 0.425814,0.03859 0.563619,0.169498 0.139182,0.130914 0.170875,0.33762 0.203948,0.553972 0.03168,0.216352 0.06339,0.421679 0.202572,0.552593 0.137806,0.130914 0.345888,0.150206 0.563619,0.170877 0.217731,0.01929 0.425813,0.03858 0.564995,0.169499 0.139181,0.130913 0.169499,0.337619 0.202572,0.552593 0.03306,0.216352 0.06339,0.423058 0.202572,0.553971 0.139181,0.130914 0.347264,0.150207 0.564995,0.169499 0.217731,0.02067 0.425813,0.03859 0.563619,0.169499 0.139181,0.130913 0.170875,0.337619 0.203948,0.553971 0.03171,0.216352 0.06339,0.423058 0.202572,0.553971 0.137805,0.130914 0.345888,0.150206 0.563619,0.169499 0.217727,0.01929 0.425813,0.03859 0.564994,0.169499 0.139182,0.130913 0.169499,0.337619 0.202572,0.553971 0.03306,0.214974 0.06339,0.42168 0.202572,0.552593 0.191548,0.180523 0.468532,0.07993 0.660079,0.260449 l 0.602203,0.567752"
       id="path2810" />
    <path
       fill-rule="nonzero"
       fill="#7f7f7f"
       fill-opacity="1"
       d="m 78.80614,23.329925 -0.562239,-1.535133 -0.103353,0.908127 -0.899859,0.15572"
       id="path2812"
       style="stroke-width:0.352778" />
    <path
       fill="none"
       stroke-width="0.281167"
       stroke-linecap="butt"
       stroke-linejoin="miter"
       stroke="#7f7f7f"
       stroke-opacity="1"
       stroke-miterlimit="10"
       d="m 51.606424,18.330405 c 0.241155,-0.106109 0.256314,-0.401009 0.49747,-0.50574 0.175013,-0.07717 0.377585,-0.0248 0.588422,0.03032 0.212221,0.05374 0.413414,0.106109 0.588423,0.02894 0.175013,-0.07579 0.274232,-0.259071 0.377582,-0.451996 0.103353,-0.192926 0.202572,-0.376205 0.377585,-0.453375 0.175009,-0.07579 0.376202,-0.02343 0.588423,0.03032 0.212217,0.05512 0.413409,0.107487 0.588419,0.03032 0.175013,-0.07579 0.274232,-0.26045 0.377585,-0.451997 0.103353,-0.192925 0.202572,-0.376204 0.377581,-0.453374 0.17501,-0.07579 0.376206,-0.0248 0.588423,0.03032 0.210838,0.05512 0.41341,0.106109 0.588423,0.03032 0.175009,-0.07717 0.274228,-0.260449 0.377581,-0.453375 0.103354,-0.191547 0.202573,-0.376204 0.377582,-0.451996 0.175013,-0.07717 0.376206,-0.0248 0.588423,0.03032 0.210841,0.05374 0.413413,0.106109 0.588423,0.03032 0.175009,-0.07717 0.274228,-0.260449 0.377581,-0.453374 0.103353,-0.192926 0.202572,-0.376205 0.377582,-0.453375 0.173633,-0.07579 0.376205,-0.02343 0.588422,0.03032 0.210842,0.05512 0.413414,0.107487 0.588423,0.03032 0.175013,-0.07579 0.274232,-0.260449 0.377582,-0.451997 0.103353,-0.192925 0.202572,-0.376204 0.376205,-0.453374 0.17501,-0.07579 0.377582,-0.0248 0.589803,0.03032 0.210837,0.05512 0.413409,0.106109 0.588419,0.03032 0.175013,-0.07717 0.274232,-0.260449 0.377585,-0.453375 0.103353,-0.191547 0.201193,-0.376204 0.376202,-0.451996 0.242535,-0.106109 0.468535,0.08268 0.70969,-0.02343 l 0.764812,-0.333485"
       id="path2814" />
    <path
       fill-rule="nonzero"
       fill="#7f7f7f"
       fill-opacity="1"
       d="m 66.005543,12.030012 -1.631598,-0.08406 0.79513,0.45062 -0.209462,0.888834"
       id="path2816"
       style="stroke-width:0.352778" />
    <path
       fill="none"
       stroke-width="0.281167"
       stroke-linecap="butt"
       stroke-linejoin="miter"
       stroke="#7f7f7f"
       stroke-opacity="1"
       stroke-miterlimit="10"
       d="m 41.606001,14.32996 c 0.243913,0.09784 0.464399,-0.09784 0.709689,0 0.176389,0.07028 0.282497,0.250803 0.391365,0.440972 0.108863,0.188792 0.214972,0.369315 0.391361,0.439595 0.177768,0.07166 0.377581,0.0124 0.587043,-0.04823 0.209462,-0.06201 0.410658,-0.119889 0.588423,-0.04961 0.176389,0.07166 0.281121,0.252181 0.391364,0.440972 0.108864,0.188792 0.213597,0.369314 0.391361,0.440972 0.176389,0.07028 0.377582,0.0124 0.587044,-0.04961 0.209462,-0.06201 0.410658,-0.119889 0.587047,-0.04961 0.177764,0.07166 0.282497,0.252181 0.391361,0.440972 0.110243,0.188791 0.214975,0.369314 0.39274,0.440972 0.176389,0.07028 0.377585,0.0124 0.587047,-0.04961 0.209462,-0.06063 0.409275,-0.119889 0.587043,-0.04823 0.177765,0.07028 0.282498,0.250802 0.391362,0.439594 0.110243,0.190169 0.214975,0.370692 0.391364,0.440972 0.24529,0.09784 0.465776,-0.09784 0.70969,0 l 0.576019,0.230132"
       id="path2818" />
    <path
       fill-rule="nonzero"
       fill="#7f7f7f"
       fill-opacity="1"
       d="m 51.106196,18.129212 -1.085896,-1.220943 0.237024,0.881945 -0.77997,0.475424"
       id="path2820"
       style="stroke-width:0.352778" />
    <path
       fill="none"
       stroke-width="0.281167"
       stroke-linecap="butt"
       stroke-linejoin="miter"
       stroke="#7f7f7f"
       stroke-opacity="1"
       stroke-miterlimit="10"
       d="m 33.605111,19.329483 c 0.221864,-0.141938 0.191548,-0.434082 0.413412,-0.577398 0.16123,-0.101975 0.367936,-0.08268 0.585666,-0.06201 0.21773,0.02205 0.425813,0.04134 0.587044,-0.06201 0.159853,-0.101974 0.228754,-0.299034 0.30179,-0.50574 0.07166,-0.206705 0.14056,-0.403765 0.301791,-0.505739 0.159852,-0.103353 0.367936,-0.08406 0.585666,-0.06339 0.21773,0.02205 0.425814,0.04134 0.585666,-0.06201 0.161231,-0.101975 0.230132,-0.299034 0.303169,-0.50574 0.07166,-0.206706 0.140559,-0.403765 0.30179,-0.50574 0.159852,-0.103353 0.367936,-0.08406 0.585666,-0.06201 0.21773,0.02067 0.425814,0.03996 0.585666,-0.06339 0.161231,-0.101975 0.230133,-0.299035 0.301791,-0.505741 0.07304,-0.206705 0.141938,-0.403765 0.30179,-0.50574 0.223242,-0.141938 0.475423,0.0083 0.697287,-0.133669 l 0.292145,-0.187413"
       id="path2822" />
    <path
       fill-rule="nonzero"
       fill="#7f7f7f"
       fill-opacity="1"
       d="m 41.105771,14.529775 -1.626083,0.172254 0.855761,0.319705 -0.06752,0.912262"
       id="path2824"
       style="stroke-width:0.352778" />
    <path
       fill="none"
       stroke-width="0.281167"
       stroke-linecap="butt"
       stroke-linejoin="miter"
       stroke="#7f7f7f"
       stroke-opacity="1"
       stroke-miterlimit="10"
       d="m 29.606044,13.329505 c 0.141938,0.221864 0.43546,0.190169 0.577398,0.412033 0.103353,0.159853 0.08406,0.367936 0.06339,0.585666 -0.02067,0.21773 -0.03996,0.425814 0.06339,0.585666 0.103353,0.161231 0.300412,0.230133 0.507118,0.301791 0.206706,0.07166 0.403765,0.14056 0.507118,0.300412 0.101975,0.161231 0.08268,0.367936 0.06339,0.585667 -0.02067,0.217729 -0.03996,0.425813 0.06201,0.587044 0.103353,0.159852 0.300413,0.228754 0.507118,0.300412 0.206706,0.07166 0.403766,0.14056 0.507119,0.300412 0.141938,0.221864 -0.0083,0.475423 0.135047,0.697288 l 0.112999,0.17501"
       id="path2826" />
    <path
       fill-rule="nonzero"
       fill="#7f7f7f"
       fill-opacity="1"
       d="M 33.205479,18.929852 33.03047,17.305144 32.712141,18.160906 31.799882,18.09476"
       id="path2828"
       style="stroke-width:0.352778" />
    <path
       fill="none"
       stroke-width="0.281167"
       stroke-linecap="butt"
       stroke-linejoin="miter"
       stroke="#7f7f7f"
       stroke-opacity="1"
       stroke-miterlimit="10"
       d="m 22.105383,13.329505 c 0.263205,0 0.395496,-0.263206 0.658702,-0.263206 0.191547,0 0.355534,0.128158 0.527789,0.263206 0.172254,0.135047 0.336241,0.263205 0.52641,0.263205 0.191547,0 0.355534,-0.128158 0.527789,-0.263205 0.172254,-0.135048 0.336241,-0.263206 0.527788,-0.263206 0.190169,0 0.354156,0.128158 0.526411,0.263206 0.172255,0.135047 0.336241,0.263205 0.527788,0.263205 0.19017,0 0.355534,-0.128158 0.526411,-0.263205 0.172255,-0.135048 0.336241,-0.263206 0.527789,-0.263206 0.263205,0 0.395497,0.263206 0.658702,0.263206 h 0.551215"
       id="path2830" />
    <path
       fill-rule="nonzero"
       fill="#7f7f7f"
       fill-opacity="1"
       d="m 29.105817,13.329505 -1.462098,-0.73036 0.548456,0.73036 -0.548456,0.731738"
       id="path2832"
       style="stroke-width:0.352778" />
    <path
       fill="none"
       stroke-width="0.281167"
       stroke-linecap="butt"
       stroke-linejoin="miter"
       stroke="#7f7f7f"
       stroke-opacity="1"
       stroke-miterlimit="10"
       d="m 19.605621,19.329483 c 0.09784,-0.243913 -0.09784,-0.464399 0,-0.70969 0.07028,-0.176389 0.250803,-0.281119 0.440973,-0.391363 0.188791,-0.108865 0.369314,-0.213596 0.439594,-0.391362 0.07166,-0.177768 0.0124,-0.377583 -0.04823,-0.587045 -0.06201,-0.209462 -0.119889,-0.410655 -0.04961,-0.588422 0.07166,-0.176389 0.252181,-0.28112 0.440972,-0.391363 0.188791,-0.108865 0.369314,-0.213596 0.439594,-0.391363 0.09922,-0.243913 -0.09784,-0.464399 0,-0.709689 l 0.19706,-0.490582"
       id="path2834" />
    <path
       fill-rule="nonzero"
       fill="#7f7f7f"
       fill-opacity="1"
       d="m 21.804972,13.829733 -1.220943,1.085892 0.881944,-0.237021 0.475421,0.779967"
       id="path2836"
       style="stroke-width:0.352778" />
    <path
       fill="none"
       stroke-width="0.281167"
       stroke-linecap="butt"
       stroke-linejoin="miter"
       stroke="#7f7f7f"
       stroke-opacity="1"
       stroke-miterlimit="10"
       d="m 14.105871,15.329038 c 0.214974,0.151584 0.474045,0.01102 0.690397,0.162609 0.155719,0.108865 0.21773,0.30868 0.28112,0.518142 0.06339,0.209462 0.124023,0.409277 0.279742,0.518142 0.157096,0.110243 0.36518,0.09922 0.584288,0.08682 0.21773,-0.0124 0.425814,-0.02343 0.58291,0.08682 0.155718,0.108865 0.216352,0.308681 0.279742,0.518143 0.06339,0.208083 0.125401,0.407899 0.28112,0.518142 0.216352,0.150206 0.475423,0.01102 0.691775,0.16123 l 0.580154,0.406522"
       id="path2838" />
    <path
       fill-rule="nonzero"
       fill="#7f7f7f"
       fill-opacity="1"
       d="m 19.105393,18.829254 -0.778591,-1.437295 0.0303,0.913642 -0.868165,0.285252"
       id="path2840"
       style="stroke-width:0.352778" />
    <path
       fill="none"
       stroke-width="0.281167"
       stroke-linecap="butt"
       stroke-linejoin="miter"
       stroke="#7f7f7f"
       stroke-opacity="1"
       stroke-miterlimit="10"
       d="m 11.604732,21.330394 c 0.101975,-0.243913 -0.08957,-0.467155 0.01102,-0.709689 0.07441,-0.176389 0.256315,-0.278364 0.446485,-0.384473 0.191547,-0.107487 0.373448,-0.209462 0.446484,-0.385851 0.07441,-0.175011 0.01929,-0.377582 -0.03858,-0.587044 -0.05926,-0.21084 -0.114377,-0.412033 -0.03996,-0.588422 0.07304,-0.176389 0.254937,-0.278364 0.446484,-0.384473 0.190169,-0.106109 0.37207,-0.209462 0.446484,-0.384473 0.101975,-0.243912 -0.09095,-0.467155 0.01103,-0.709689 l 0.219108,-0.523655"
       id="path2842" />
    <path
       fill-rule="nonzero"
       fill="#7f7f7f"
       fill-opacity="1"
       d="m 13.904676,15.829267 -1.237478,1.066599 0.886079,-0.223242 0.461642,0.78824"
       id="path2844"
       style="stroke-width:0.352778" />
    <g
       clip-path="url(#clip-2-7)"
       id="g2848"
       transform="matrix(0.35277777,0,0,0.35277777,-42.622448,-46.834264)">
      <path
         fill="none"
         stroke-width="0.79701"
         stroke-linecap="butt"
         stroke-linejoin="miter"
         stroke="#7f7f7f"
         stroke-opacity="1"
         stroke-miterlimit="10"
         d="M -3.125e-5,73.701187 C 0.589812,73.244156 1.343719,73.603531 1.933562,73.1465 2.359344,72.814469 2.503875,72.24025 2.652312,71.638687 2.804656,71.037125 2.949187,70.462906 3.374969,70.130875 3.80075,69.798844 4.3945,69.798844 5.011687,69.80275 c 0.621094,0.0039 1.210938,0.0039 1.640625,-0.328125 0.425782,-0.332031 0.570313,-0.90625 0.71875,-1.507813 0.152344,-0.601562 0.296875,-1.175781 0.722657,-1.507812 0.589843,-0.457031 1.34375,-0.09766 1.933593,-0.554688 l 0.683594,-0.535156"
         transform="matrix(1,0,0,-1,139.543,255.584)"
         id="path2846" />
    </g>
    <path
       fill-rule="nonzero"
       fill="#7f7f7f"
       fill-opacity="1"
       d="m 11.105882,20.830167 -0.705556,-1.474502 -0.01654,0.913638 -0.8819447,0.23978"
       id="path2850"
       style="stroke-width:0.352778" />
    <path
       fill-rule="nonzero"
       fill="#ffffff"
       fill-opacity="1"
       stroke-width="0.140582"
       stroke-linecap="butt"
       stroke-linejoin="miter"
       stroke="#000000"
       stroke-opacity="1"
       stroke-miterlimit="10"
       d="m 79.544769,23.329928 c 0,-0.242535 -0.195682,-0.439595 -0.438217,-0.439595 -0.242535,0 -0.439593,0.19706 -0.439593,0.439595 0,0.242534 0.197058,0.439594 0.439593,0.439594 0.242535,0 0.438217,-0.19706 0.438217,-0.439594 z m 0,0"
       id="path2852" />
    <path
       fill-rule="nonzero"
       fill="#ffffff"
       fill-opacity="1"
       stroke-width="0.140582"
       stroke-linecap="butt"
       stroke-linejoin="miter"
       stroke="#000000"
       stroke-opacity="1"
       stroke-miterlimit="10"
       d="m 67.045962,11.830199 c 0,-0.242535 -0.197058,-0.439594 -0.439593,-0.439594 -0.242535,0 -0.439593,0.197059 -0.439593,0.439594 0,0.242535 0.197058,0.438216 0.439593,0.438216 0.242535,0 0.439593,-0.195681 0.439593,-0.438216 z m 0,0"
       id="path2854" />
    <path
       fill-rule="nonzero"
       fill="#ffffff"
       fill-opacity="1"
       stroke-width="0.140582"
       stroke-linecap="butt"
       stroke-linejoin="miter"
       stroke="#000000"
       stroke-opacity="1"
       stroke-miterlimit="10"
       d="m 52.044641,18.330405 c 0,-0.243913 -0.195682,-0.439594 -0.438217,-0.439594 -0.243914,0 -0.439596,0.195681 -0.439596,0.439594 0,0.242535 0.195682,0.438216 0.439596,0.438216 0.242535,0 0.438217,-0.195681 0.438217,-0.438216 z m 0,0"
       id="path2856" />
    <path
       fill-rule="nonzero"
       fill="#ffffff"
       fill-opacity="1"
       stroke-width="0.140582"
       stroke-linecap="butt"
       stroke-linejoin="miter"
       stroke="#000000"
       stroke-opacity="1"
       stroke-miterlimit="10"
       d="m 42.045596,14.32996 c 0,-0.242534 -0.197061,-0.439594 -0.439595,-0.439594 -0.242535,0 -0.439594,0.19706 -0.439594,0.439594 0,0.242535 0.197059,0.439595 0.439594,0.439595 0.242534,0 0.439595,-0.19706 0.439595,-0.439595 z m 0,0"
       id="path2858" />
    <path
       fill-rule="nonzero"
       fill="#ffffff"
       fill-opacity="1"
       stroke-width="0.140582"
       stroke-linecap="butt"
       stroke-linejoin="miter"
       stroke="#000000"
       stroke-opacity="1"
       stroke-miterlimit="10"
       d="m 34.044705,19.329483 c 0,-0.242535 -0.197059,-0.439594 -0.439594,-0.439594 -0.242535,0 -0.439594,0.197059 -0.439594,0.439594 0,0.242534 0.197059,0.439594 0.439594,0.439594 0.242535,0 0.439594,-0.19706 0.439594,-0.439594 z m 0,0"
       id="path2860" />
    <path
       fill-rule="nonzero"
       fill="#ffffff"
       fill-opacity="1"
       stroke-width="0.140582"
       stroke-linecap="butt"
       stroke-linejoin="miter"
       stroke="#000000"
       stroke-opacity="1"
       stroke-miterlimit="10"
       d="m 30.044261,13.329505 c 0,-0.242535 -0.195682,-0.439595 -0.438217,-0.439595 -0.242535,0 -0.439594,0.19706 -0.439594,0.439595 0,0.242534 0.197059,0.439594 0.439594,0.439594 0.242535,0 0.438217,-0.19706 0.438217,-0.439594 z m 0,0"
       id="path2862" />
    <path
       fill-rule="nonzero"
       fill="#ffffff"
       fill-opacity="1"
       stroke-width="0.140582"
       stroke-linecap="butt"
       stroke-linejoin="miter"
       stroke="#000000"
       stroke-opacity="1"
       stroke-miterlimit="10"
       d="m 22.544977,13.329505 c 0,-0.242535 -0.19706,-0.439595 -0.439594,-0.439595 -0.242535,0 -0.439595,0.19706 -0.439595,0.439595 0,0.242534 0.19706,0.439594 0.439595,0.439594 0.242534,0 0.439594,-0.19706 0.439594,-0.439594 z m 0,0"
       id="path2864" />
    <path
       fill-rule="nonzero"
       fill="#ffffff"
       fill-opacity="1"
       stroke-width="0.140582"
       stroke-linecap="butt"
       stroke-linejoin="miter"
       stroke="#000000"
       stroke-opacity="1"
       stroke-miterlimit="10"
       d="m 20.045216,19.329483 c 0,-0.242535 -0.19706,-0.439594 -0.439595,-0.439594 -0.242534,0 -0.439594,0.197059 -0.439594,0.439594 0,0.242534 0.19706,0.439594 0.439594,0.439594 0.242535,0 0.439595,-0.19706 0.439595,-0.439594 z m 0,0"
       id="path2866" />
    <path
       fill-rule="nonzero"
       fill="#ffffff"
       fill-opacity="1"
       stroke-width="0.140582"
       stroke-linecap="butt"
       stroke-linejoin="miter"
       stroke="#000000"
       stroke-opacity="1"
       stroke-miterlimit="10"
       d="m 14.544087,15.329038 c 0,-0.242535 -0.195681,-0.438216 -0.438216,-0.438216 -0.242535,0 -0.439594,0.195681 -0.439594,0.438216 0,0.243913 0.197059,0.439594 0.439594,0.439594 0.242535,0 0.438216,-0.195681 0.438216,-0.439594 z m 0,0"
       id="path2868" />
    <path
       fill-rule="nonzero"
       fill="#ffffff"
       fill-opacity="1"
       stroke-width="0.140582"
       stroke-linecap="butt"
       stroke-linejoin="miter"
       stroke="#000000"
       stroke-opacity="1"
       stroke-miterlimit="10"
       d="m 12.044326,21.330394 c 0,-0.242535 -0.197059,-0.439594 -0.439594,-0.439594 -0.242535,0 -0.438216,0.197059 -0.438216,0.439594 0,0.242535 0.195681,0.438216 0.438216,0.438216 0.242535,0 0.439594,-0.195681 0.439594,-0.438216 z m 0,0"
       id="path2870" />
    <path
       fill-rule="nonzero"
       fill="#ffffff"
       fill-opacity="1"
       stroke-width="0.140582"
       stroke-linecap="butt"
       stroke-linejoin="miter"
       stroke="#000000"
       stroke-opacity="1"
       stroke-miterlimit="10"
       d="m 84.545669,28.32945 c 0,-0.242535 -0.197058,-0.438216 -0.439593,-0.438216 -0.242535,0 -0.439596,0.195681 -0.439596,0.438216 0,0.242535 0.197061,0.439594 0.439596,0.439594 0.242535,0 0.439593,-0.197059 0.439593,-0.439594 z m 0,0"
       id="path2872" />
    <path
       fill-rule="nonzero"
       fill="#ffffff"
       fill-opacity="1"
       stroke-width="0.140582"
       stroke-linecap="butt"
       stroke-linejoin="miter"
       stroke="#000000"
       stroke-opacity="1"
       stroke-miterlimit="10"
       d="m 72.045486,38.329873 c 0,-0.242535 -0.197062,-0.439594 -0.439596,-0.439594 -0.242535,0 -0.439593,0.197059 -0.439593,0.439594 0,0.242535 0.197058,0.439594 0.439593,0.439594 0.242534,0 0.439596,-0.197059 0.439596,-0.439594 z m 0,0"
       id="path2874" />
    <g
       fill="#7f7f7f"
       fill-opacity="1"
       id="g2878"
       transform="matrix(0.35277777,0,0,0.35277777,-42.622448,-46.834264)">
      <g
         id="use2876"
         transform="translate(441.01999,180.692)">
        <path
           d="m 6.34375,-2.96875 c 0.125,0 0.296875,0 0.296875,-0.1875 0,-0.203125 -0.1875,-0.203125 -0.328125,-0.203125 H 0.84375 c -0.140625,0 -0.328125,0 -0.328125,0.203125 0,0.1875 0.171875,0.1875 0.296875,0.1875 z M 6.3125,-1.140625 c 0.140625,0 0.328125,0 0.328125,-0.203125 0,-0.1875 -0.171875,-0.1875 -0.296875,-0.1875 H 0.8125 c -0.125,0 -0.296875,0 -0.296875,0.1875 0,0.203125 0.1875,0.203125 0.328125,0.203125 z m 0,0"
           id="path9892" />
      </g>
    </g>
    <g
       fill="#7f7f7f"
       fill-opacity="1"
       id="g2886"
       transform="matrix(0.35277777,0,0,0.35277777,-42.622448,-46.834264)">
      <g
         id="use2880"
         transform="translate(451.263,180.692)">
        <path
           d="m 6.140625,-2.078125 c 0,-0.09375 0,-0.171875 -0.125,-0.171875 -0.125,0 -0.125,0.0625 -0.125,0.140625 C 5.8125,-0.75 4.734375,-0.078125 3.8125,-0.078125 c -0.765625,0 -2.390625,-0.484375 -2.390625,-2.984375 0,-2.5 1.640625,-2.984375 2.375,-2.984375 0.890625,0 1.828125,0.671875 2.046875,2.125 0.015625,0.125 0.03125,0.15625 0.140625,0.15625 0.15625,0 0.15625,-0.03125 0.15625,-0.21875 V -6.09375 c 0,-0.15625 0,-0.234375 -0.109375,-0.234375 -0.0625,0 -0.09375,0.03125 -0.140625,0.109375 l -0.46875,0.671875 C 5.140625,-5.828125 4.625,-6.328125 3.71875,-6.328125 c -1.734375,0 -3.203125,1.453125 -3.203125,3.265625 0,1.84375 1.484375,3.265625 3.203125,3.265625 1.484375,0 2.421875,-1.234375 2.421875,-2.28125 z m 0,0"
           id="path9660" />
      </g>
      <g
         id="use2882"
         transform="translate(457.91608,180.692)">
        <path
           d="M 8.046875,0 V -0.28125 H 7.84375 c -0.6875,0 -0.703125,-0.09375 -0.703125,-0.421875 v -4.71875 C 7.140625,-5.75 7.15625,-5.84375 7.84375,-5.84375 H 8.046875 V -6.125 h -1.5 c -0.1875,0 -0.25,0 -0.3125,0.15625 L 4.21875,-0.875 l -2,-5.046875 C 2.140625,-6.109375 2.140625,-6.125 1.890625,-6.125 h -1.5 v 0.28125 H 0.59375 c 0.6875,0 0.703125,0.09375 0.703125,0.421875 v 4.46875 c 0,0.25 0,0.671875 -0.90625,0.671875 V 0 C 0.875,-0.015625 1,-0.03125 1.4375,-0.03125 1.875,-0.03125 2.015625,-0.015625 2.5,0 v -0.28125 c -0.921875,0 -0.921875,-0.421875 -0.921875,-0.671875 V -5.75 l 0.015625,-0.015625 2.203125,5.5625 C 3.84375,-0.078125 3.875,0 3.984375,0 4.078125,0 4.125,-0.078125 4.15625,-0.15625 l 2.25,-5.671875 v 5.125 c 0,0.328125 -0.015625,0.421875 -0.703125,0.421875 H 5.5 V 0 c 0.53125,-0.03125 1.140625,-0.03125 1.265625,-0.03125 0.0625,0 0.71875,0 1.28125,0.03125 z m 0,0"
           id="path9736" />
      </g>
      <g
         id="use2884"
         transform="translate(466.36243,180.692)">
        <path
           d="m 6.015625,-1.625 c 0,-0.8125 -0.78125,-1.46875 -1.78125,-1.578125 C 5.125,-3.375 5.75,-3.953125 5.75,-4.609375 5.75,-5.40625 4.890625,-6.125 3.703125,-6.125 H 0.375 v 0.28125 h 0.203125 c 0.6875,0 0.703125,0.09375 0.703125,0.421875 v 4.71875 c 0,0.328125 -0.015625,0.421875 -0.703125,0.421875 H 0.375 V 0 h 3.578125 c 1.21875,0 2.0625,-0.796875 2.0625,-1.625 z m -1.125,-2.984375 c 0,0.6875 -0.609375,1.3125 -1.453125,1.3125 H 2.03125 v -2.1875 c 0,-0.296875 0.015625,-0.359375 0.4375,-0.359375 h 1.171875 c 0.875,0 1.25,0.703125 1.25,1.234375 z M 5.125,-1.65625 c 0,0.703125 -0.546875,1.375 -1.46875,1.375 h -1.1875 c -0.421875,0 -0.4375,-0.0625 -0.4375,-0.359375 v -2.4375 h 1.703125 c 1.03125,0 1.390625,0.875 1.390625,1.421875 z m 0,0"
           id="path9740" />
      </g>
    </g>
    <path
       fill-rule="nonzero"
       fill="#000000"
       fill-opacity="1"
       stroke-width="0.140582"
       stroke-linecap="butt"
       stroke-linejoin="miter"
       stroke="#000000"
       stroke-opacity="1"
       stroke-miterlimit="10"
       d="m 95.634744,12.092026 c -0.05926,-0.334863 -0.377585,-0.558105 -0.712448,-0.498849 -0.334861,0.05925 -0.558106,0.377582 -0.498849,0.712445 0.05926,0.334864 0.377581,0.558106 0.712445,0.49885 0.334864,-0.05926 0.558105,-0.377582 0.498852,-0.712446 z m 0,0"
       id="path2888" />
    <path
       fill="none"
       stroke-width="0.140582"
       stroke-linecap="butt"
       stroke-linejoin="miter"
       stroke="#000000"
       stroke-opacity="1"
       stroke-miterlimit="10"
       d="m 96.717881,10.704342 c -0.374826,-0.446484 -1.281574,-0.30179 -2.024337,0.322461 -0.744143,0.622873 -1.043175,1.491037 -0.668348,1.936143 0.373447,0.446485 1.280195,0.303169 2.024337,-0.321082 0.742763,-0.624252 1.041795,-1.491038 0.668348,-1.937522 z m 0,0"
       id="path2890" />
    <path
       fill-rule="nonzero"
       fill="#ffffff"
       fill-opacity="1"
       stroke-width="0.140582"
       stroke-linecap="butt"
       stroke-linejoin="miter"
       stroke="#000000"
       stroke-opacity="1"
       stroke-miterlimit="10"
       d="m 97.107867,10.512795 c -0.04272,-0.239779 -0.270098,-0.399632 -0.509877,-0.356912 -0.2384,0.04272 -0.398251,0.270095 -0.355533,0.508496 0.04134,0.239779 0.270097,0.399631 0.508497,0.356912 0.238401,-0.04272 0.398251,-0.270096 0.356913,-0.508496 z m 0,0"
       id="path2892" />
    <g
       fill="#000000"
       fill-opacity="1"
       id="g2896"
       transform="matrix(0.35277777,0,0,0.35277777,-42.622448,-46.834264)">
      <g
         id="use2894"
         transform="translate(398.5,168.48)">
        <path
           d="m 6.34375,-2.96875 c 0.125,0 0.296875,0 0.296875,-0.1875 0,-0.203125 -0.1875,-0.203125 -0.328125,-0.203125 H 0.84375 c -0.140625,0 -0.328125,0 -0.328125,0.203125 0,0.1875 0.171875,0.1875 0.296875,0.1875 z M 6.3125,-1.140625 c 0.140625,0 0.328125,0 0.328125,-0.203125 0,-0.1875 -0.171875,-0.1875 -0.296875,-0.1875 H 0.8125 c -0.125,0 -0.296875,0 -0.296875,0.1875 0,0.203125 0.1875,0.203125 0.328125,0.203125 z m 0,0"
           id="path9896" />
      </g>
    </g>
    <path
       fill-rule="nonzero"
       fill="#000000"
       fill-opacity="1"
       stroke-width="0.140582"
       stroke-linecap="butt"
       stroke-linejoin="miter"
       stroke="#000000"
       stroke-opacity="1"
       stroke-miterlimit="10"
       d="m 117.31266,39.236622 c 0.0579,-0.334863 -0.16536,-0.65319 -0.49885,-0.712445 -0.33486,-0.05926 -0.65457,0.163986 -0.71244,0.498849 -0.0593,0.334864 0.16398,0.65319 0.49884,0.712446 0.33349,0.05926 0.6532,-0.163986 0.71245,-0.49885 z m 0,0"
       id="path2918" />
    <path
       fill="none"
       stroke-width="0.140582"
       stroke-linecap="butt"
       stroke-linejoin="miter"
       stroke="#000000"
       stroke-opacity="1"
       stroke-miterlimit="10"
       d="m 118.8037,38.30369 c -0.19844,-0.548459 -1.09968,-0.722092 -2.01194,-0.389984 -0.91226,0.332107 -1.48965,1.044552 -1.28984,1.591634 0.19844,0.547081 1.09967,0.722092 2.01194,0.389984 0.91088,-0.332107 1.48965,-1.044552 1.28984,-1.591634 z m 0,0"
       id="path2920" />
    <path
       fill-rule="nonzero"
       fill="#ffffff"
       fill-opacity="1"
       stroke-width="0.140582"
       stroke-linecap="butt"
       stroke-linejoin="miter"
       stroke="#000000"
       stroke-opacity="1"
       stroke-miterlimit="10"
       d="m 119.2364,38.255459 c 0.0413,-0.2384 -0.11713,-0.465777 -0.35691,-0.508496 -0.2384,-0.04272 -0.46716,0.117133 -0.5085,0.356912 -0.0427,0.238401 0.11714,0.465777 0.35554,0.508496 0.23978,0.04272 0.46715,-0.117133 0.50987,-0.356912 z m 0,0"
       id="path2922" />
    <path
       fill-rule="nonzero"
       fill="#000000"
       fill-opacity="1"
       stroke-width="0.140582"
       stroke-linecap="butt"
       stroke-linejoin="miter"
       stroke="#000000"
       stroke-opacity="1"
       stroke-miterlimit="10"
       d="m 112.23872,28.822788 c -0.1695,-0.2949 -0.5457,-0.395497 -0.83922,-0.225998 -0.2949,0.170876 -0.3955,0.547081 -0.226,0.840603 0.1695,0.2949 0.54571,0.395497 0.8406,0.22462 0.29352,-0.169499 0.3955,-0.545703 0.22462,-0.839225 z m 0,0"
       id="path2924" />
    <path
       fill="none"
       stroke-width="0.140582"
       stroke-linecap="butt"
       stroke-linejoin="miter"
       stroke="#000000"
       stroke-opacity="1"
       stroke-miterlimit="10"
       d="m 112.78167,27.148471 c -0.50436,-0.290766 -1.30638,0.154341 -1.79145,0.994944 -0.48507,0.840603 -0.46991,1.756999 0.0345,2.049143 0.50436,0.290766 1.30638,-0.154341 1.79145,-0.994944 0.48507,-0.840603 0.46991,-1.758376 -0.0345,-2.049143 z m 0,0"
       id="path2926" />
    <path
       fill-rule="nonzero"
       fill="#ffffff"
       fill-opacity="1"
       stroke-width="0.140582"
       stroke-linecap="butt"
       stroke-linejoin="miter"
       stroke="#000000"
       stroke-opacity="1"
       stroke-miterlimit="10"
       d="m 113.08209,26.834279 c -0.12127,-0.209462 -0.38999,-0.282498 -0.59945,-0.161231 -0.21084,0.121268 -0.2825,0.389985 -0.16123,0.600825 0.12127,0.209462 0.38998,0.282498 0.60082,0.16123 0.20946,-0.121267 0.28112,-0.389985 0.15986,-0.600824 z m 0,0"
       id="path2928" />
    <path
       fill-rule="nonzero"
       fill="#000000"
       fill-opacity="1"
       stroke-width="0.140582"
       stroke-linecap="butt"
       stroke-linejoin="miter"
       stroke="#000000"
       stroke-opacity="1"
       stroke-miterlimit="10"
       d="m 102.01368,24.597723 c -0.29352,-0.170877 -0.66972,-0.07028 -0.8406,0.22462 -0.1695,0.293522 -0.0689,0.669726 0.226,0.840603 0.29352,0.169499 0.66972,0.0689 0.8406,-0.225998 0.1695,-0.293522 0.0689,-0.669727 -0.226,-0.839225 z m 0,0"
       id="path2930" />
    <path
       fill="none"
       stroke-width="0.140582"
       stroke-linecap="butt"
       stroke-linejoin="miter"
       stroke="#000000"
       stroke-opacity="1"
       stroke-miterlimit="10"
       d="m 101.64712,22.876553 c -0.58291,0 -1.05557,0.78686 -1.05557,1.756999 0,0.970139 0.47266,1.756998 1.05557,1.756998 0.58153,0 1.0542,-0.786859 1.0542,-1.756998 0,-0.970139 -0.47267,-1.756999 -1.0542,-1.756999 z m 0,0"
       id="path2932" />
    <path
       fill-rule="nonzero"
       fill="#ffffff"
       fill-opacity="1"
       stroke-width="0.140582"
       stroke-linecap="butt"
       stroke-linejoin="miter"
       stroke="#000000"
       stroke-opacity="1"
       stroke-miterlimit="10"
       d="m 101.75048,22.453495 c -0.21084,-0.121267 -0.47956,-0.04961 -0.60083,0.161231 -0.12127,0.209461 -0.0496,0.478179 0.16123,0.599446 0.20946,0.121268 0.47818,0.04961 0.59945,-0.159852 0.12127,-0.21084 0.0496,-0.479557 -0.15985,-0.600825 z m 0,0"
       id="path2934" />
    <path
       fill-rule="nonzero"
       fill="#000000"
       fill-opacity="1"
       stroke-width="0.140582"
       stroke-linecap="butt"
       stroke-linejoin="miter"
       stroke="#000000"
       stroke-opacity="1"
       stroke-miterlimit="10"
       d="m 98.899315,34.596768 c -0.294902,0.170876 -0.395496,0.547081 -0.225997,0.840603 0.169499,0.2949 0.545701,0.395497 0.840602,0.22462 0.293522,-0.169498 0.395496,-0.545703 0.224621,-0.839225 -0.169499,-0.2949 -0.545705,-0.395497 -0.839226,-0.225998 z m 0,0"
       id="path2936" />
    <path
       fill="none"
       stroke-width="0.140582"
       stroke-linecap="butt"
       stroke-linejoin="miter"
       stroke="#000000"
       stroke-opacity="1"
       stroke-miterlimit="10"
       d="m 97.224999,34.055199 c -0.292145,0.504362 0.154341,1.30638 0.994943,1.791449 0.839227,0.48507 1.756999,0.469911 2.047768,-0.03445 0.29214,-0.504362 -0.15297,-1.30638 -0.993569,-1.79145 -0.840602,-0.485069 -1.758375,-0.469911 -2.049142,0.03445 z m 0,0"
       id="path2938" />
    <path
       fill-rule="nonzero"
       fill="#ffffff"
       fill-opacity="1"
       stroke-width="0.140582"
       stroke-linecap="butt"
       stroke-linejoin="miter"
       stroke="#000000"
       stroke-opacity="1"
       stroke-miterlimit="10"
       d="m 96.910805,33.753408 c -0.210838,0.121268 -0.282497,0.389985 -0.16123,0.600825 0.121267,0.209462 0.389985,0.282498 0.600826,0.16123 0.209462,-0.121267 0.281118,-0.389984 0.159851,-0.600824 -0.121267,-0.209462 -0.389985,-0.282498 -0.599447,-0.161231 z m 0,0"
       id="path2940" />
    <path
       fill-rule="nonzero"
       fill="#000000"
       fill-opacity="1"
       stroke-width="0.140582"
       stroke-linecap="butt"
       stroke-linejoin="miter"
       stroke="#000000"
       stroke-opacity="1"
       stroke-miterlimit="10"
       d="m 93.600758,38.522798 c -0.05926,0.334864 0.163985,0.654568 0.498849,0.712446 0.334864,0.05926 0.653193,-0.163986 0.712445,-0.49885 0.05926,-0.333485 -0.163985,-0.65319 -0.498848,-0.712445 -0.334864,-0.05926 -0.65319,0.165364 -0.712446,0.498849 z m 0,0"
       id="path2942" />
    <path
       fill="none"
       stroke-width="0.140582"
       stroke-linecap="butt"
       stroke-linejoin="miter"
       stroke="#000000"
       stroke-opacity="1"
       stroke-miterlimit="10"
       d="m 92.108342,39.457108 c 0.199817,0.547081 1.101055,0.722092 2.011938,0.389985 0.912259,-0.332107 1.491036,-1.044553 1.291219,-1.591634 -0.199813,-0.547081 -1.099671,-0.722092 -2.011933,-0.389985 -0.912263,0.332107 -1.489661,1.044553 -1.291224,1.591634 z m 0,0"
       id="path2944" />
    <path
       fill-rule="nonzero"
       fill="#ffffff"
       fill-opacity="1"
       stroke-width="0.140582"
       stroke-linecap="butt"
       stroke-linejoin="miter"
       stroke="#000000"
       stroke-opacity="1"
       stroke-miterlimit="10"
       d="m 91.677019,39.503961 c -0.04272,0.239779 0.117133,0.467155 0.355533,0.508497 0.239779,0.04272 0.467155,-0.117134 0.509873,-0.355534 0.04134,-0.239779 -0.118512,-0.467155 -0.356912,-0.508496 -0.238401,-0.04272 -0.467156,0.117133 -0.508494,0.355533 z m 0,0"
       id="path2946" />
    <path
       fill-rule="nonzero"
       fill="#000000"
       fill-opacity="1"
       stroke-width="0.140582"
       stroke-linecap="butt"
       stroke-linejoin="miter"
       stroke="#000000"
       stroke-opacity="1"
       stroke-miterlimit="10"
       d="m 111.31131,20.65929 c -0.26046,0.21773 -0.2949,0.606337 -0.0758,0.865408 0.21773,0.260449 0.60634,0.2949 0.86679,0.07579 0.25907,-0.21773 0.29352,-0.606337 0.0758,-0.865408 -0.21911,-0.260449 -0.60633,-0.2949 -0.86678,-0.07579 z m 0,0"
       id="path2948" />
    <path
       fill="none"
       stroke-width="0.140582"
       stroke-linecap="butt"
       stroke-linejoin="miter"
       stroke="#000000"
       stroke-opacity="1"
       stroke-miterlimit="10"
       d="m 109.56809,20.415377 c -0.19844,0.547081 0.37896,1.259527 1.29122,1.591634 0.91088,0.332107 1.81212,0.157096 2.01193,-0.389985 0.19844,-0.547081 -0.37896,-1.259527 -1.29122,-1.591634 -0.91226,-0.332107 -1.81212,-0.157096 -2.01193,0.389985 z m 0,0"
       id="path2950" />
    <path
       fill-rule="nonzero"
       fill="#ffffff"
       fill-opacity="1"
       stroke-width="0.140582"
       stroke-linecap="butt"
       stroke-linejoin="miter"
       stroke="#000000"
       stroke-opacity="1"
       stroke-miterlimit="10"
       d="m 109.20704,20.172842 c -0.18603,0.157097 -0.21084,0.434082 -0.0537,0.620117 0.15571,0.184657 0.4327,0.209462 0.61873,0.05374 0.18604,-0.155719 0.20947,-0.432704 0.0537,-0.618739 -0.15572,-0.186035 -0.4327,-0.21084 -0.61874,-0.05512 z m 0,0"
       id="path2952" />
    <path
       fill-rule="nonzero"
       fill="#000000"
       fill-opacity="1"
       stroke-width="0.140582"
       stroke-linecap="butt"
       stroke-linejoin="miter"
       stroke="#000000"
       stroke-opacity="1"
       stroke-miterlimit="10"
       d="m 91.599849,17.024025 c -0.334864,0.05926 -0.558109,0.377583 -0.498853,0.712446 0.05788,0.334863 0.377585,0.558105 0.712445,0.49885 0.333488,-0.05926 0.558109,-0.377583 0.498853,-0.712446 -0.05926,-0.334863 -0.378961,-0.558106 -0.712445,-0.49885 z m 0,0"
       id="path2954" />
    <path
       fill="none"
       stroke-width="0.140582"
       stroke-linecap="butt"
       stroke-linejoin="miter"
       stroke="#000000"
       stroke-opacity="1"
       stroke-miterlimit="10"
       d="m 90.212162,15.942265 c -0.446483,0.373449 -0.301791,1.280197 0.321084,2.02296 0.624251,0.744141 1.491037,1.043175 1.937523,0.668349 0.446482,-0.373449 0.301787,-1.280198 -0.321085,-2.02296 -0.62425,-0.744141 -1.492415,-1.043175 -1.937522,-0.668349 z m 0,0"
       id="path2956" />
    <path
       fill-rule="nonzero"
       fill="#ffffff"
       fill-opacity="1"
       stroke-width="0.140582"
       stroke-linecap="butt"
       stroke-linejoin="miter"
       stroke="#000000"
       stroke-opacity="1"
       stroke-miterlimit="10"
       d="m 90.019238,15.550902 c -0.2384,0.04272 -0.398254,0.270096 -0.355536,0.509874 0.04134,0.238401 0.270097,0.398253 0.508497,0.355534 0.2384,-0.04134 0.398255,-0.268717 0.356913,-0.508496 -0.04272,-0.238401 -0.270098,-0.398253 -0.509874,-0.356912 z m 0,0"
       id="path2958" />
    <path
       fill-rule="nonzero"
       fill="#000000"
       fill-opacity="1"
       stroke-width="0.140582"
       stroke-linecap="butt"
       stroke-linejoin="miter"
       stroke="#000000"
       stroke-opacity="1"
       stroke-miterlimit="10"
       d="m 82.238834,38.322983 c -0.169499,-0.2949 -0.545705,-0.395497 -0.840602,-0.225998 -0.293522,0.170876 -0.39412,0.547081 -0.224621,0.840603 0.169499,0.293522 0.545701,0.395497 0.840602,0.22462 0.293522,-0.169498 0.39412,-0.545703 0.224621,-0.839225 z m 0,0"
       id="path2960" />
    <path
       fill="none"
       stroke-width="0.140582"
       stroke-linecap="butt"
       stroke-linejoin="miter"
       stroke="#000000"
       stroke-opacity="1"
       stroke-miterlimit="10"
       d="m 82.78178,36.648666 c -0.504363,-0.292144 -1.306378,0.154341 -1.792827,0.994944 -0.485069,0.839225 -0.469911,1.756999 0.03447,2.049143 0.50436,0.290766 1.306379,-0.15434 1.792828,-0.994944 0.485069,-0.840603 0.46991,-1.758376 -0.03447,-2.049143 z m 0,0"
       id="path2962" />
    <path
       fill-rule="nonzero"
       fill="#ffffff"
       fill-opacity="1"
       stroke-width="0.140582"
       stroke-linecap="butt"
       stroke-linejoin="miter"
       stroke="#000000"
       stroke-opacity="1"
       stroke-miterlimit="10"
       d="m 83.082192,36.334474 c -0.121268,-0.21084 -0.389982,-0.282498 -0.600823,-0.161231 -0.209462,0.121268 -0.281122,0.389985 -0.159854,0.600825 0.121267,0.209462 0.389985,0.282498 0.599447,0.159852 0.210841,-0.121267 0.282497,-0.389985 0.16123,-0.599446 z m 0,0"
       id="path2964" />
    <path
       fill-rule="nonzero"
       fill="#000000"
       fill-opacity="1"
       stroke-width="0.140582"
       stroke-linecap="butt"
       stroke-linejoin="miter"
       stroke="#000000"
       stroke-opacity="1"
       stroke-miterlimit="10"
       d="m 72.101984,28.158573 c -0.260449,-0.21773 -0.649055,-0.184657 -0.866786,0.07579 -0.219107,0.260449 -0.184655,0.647677 0.07579,0.866785 0.260449,0.217731 0.647676,0.184658 0.866786,-0.07579 0.217731,-0.260449 0.183278,-0.647678 -0.07579,-0.866786 z m 0,0"
       id="path2966" />
    <path
       fill="none"
       stroke-width="0.140582"
       stroke-linecap="butt"
       stroke-linejoin="miter"
       stroke="#000000"
       stroke-opacity="1"
       stroke-miterlimit="10"
       d="m 72.038596,26.400197 c -0.573263,-0.101975 -1.175466,0.591178 -1.343589,1.547537 -0.16812,0.95498 0.159854,1.81212 0.733118,1.914094 0.573264,0.100597 1.175466,-0.592556 1.343586,-1.547536 0.16812,-0.956359 -0.159851,-1.813499 -0.733115,-1.914095 z m 0,0"
       id="path2968" />
    <path
       fill-rule="nonzero"
       fill="#ffffff"
       fill-opacity="1"
       stroke-width="0.140582"
       stroke-linecap="butt"
       stroke-linejoin="miter"
       stroke="#000000"
       stroke-opacity="1"
       stroke-miterlimit="10"
       d="m 72.213606,26.001944 c -0.186034,-0.155719 -0.463021,-0.130914 -0.618741,0.05374 -0.155716,0.186035 -0.132291,0.463021 0.05375,0.620117 0.186034,0.155718 0.463021,0.130914 0.618737,-0.05512 0.157099,-0.186036 0.132292,-0.463021 -0.05374,-0.618739 z m 0,0"
       id="path2970" />
    <path
       fill-rule="nonzero"
       fill="#000000"
       fill-opacity="1"
       stroke-width="0.140582"
       stroke-linecap="butt"
       stroke-linejoin="miter"
       stroke="#000000"
       stroke-opacity="1"
       stroke-miterlimit="10"
       d="m 57.31839,23.576597 c -0.02893,-0.338998 -0.32797,-0.588423 -0.665589,-0.559484 -0.338999,0.02894 -0.589802,0.327973 -0.559485,0.66697 0.02893,0.33762 0.327974,0.588423 0.665593,0.558106 0.338995,-0.02894 0.589799,-0.327973 0.559481,-0.665592 z m 0,0"
       id="path2972" />
    <path
       fill="none"
       stroke-width="0.140582"
       stroke-linecap="butt"
       stroke-linejoin="miter"
       stroke="#000000"
       stroke-opacity="1"
       stroke-miterlimit="10"
       d="m 58.517284,22.288131 c -0.333484,-0.476801 -1.248502,-0.412034 -2.043631,0.144694 -0.795126,0.556727 -1.168576,1.394574 -0.835088,1.871376 0.333484,0.476801 1.249877,0.412033 2.045007,-0.144694 0.79375,-0.556728 1.168576,-1.394575 0.833712,-1.871376 z m 0,0"
       id="path2974" />
    <path
       fill-rule="nonzero"
       fill="#ffffff"
       fill-opacity="1"
       stroke-width="0.140582"
       stroke-linecap="butt"
       stroke-linejoin="miter"
       stroke="#000000"
       stroke-opacity="1"
       stroke-miterlimit="10"
       d="m 58.922428,22.131035 c -0.02067,-0.242535 -0.234265,-0.420302 -0.475424,-0.399632 -0.241156,0.02067 -0.4203,0.234267 -0.39963,0.475423 0.02205,0.242535 0.234265,0.42168 0.4768,0.399632 0.241159,-0.02067 0.420303,-0.234267 0.398254,-0.475423 z m 0,0"
       id="path2976" />
    <path
       fill-rule="nonzero"
       fill="#000000"
       fill-opacity="1"
       stroke-width="0.140582"
       stroke-linecap="butt"
       stroke-linejoin="miter"
       stroke="#000000"
       stroke-opacity="1"
       stroke-miterlimit="10"
       d="m 8.2202702,23.329928 c 0,-0.340376 -0.2756076,-0.614605 -0.6146052,-0.614605 -0.3403755,0 -0.6159832,0.274229 -0.6159832,0.614605 0,0.338997 0.2756077,0.614605 0.6159832,0.614605 0.3389976,0 0.6146052,-0.275608 0.6146052,-0.614605 z m 0,0"
       id="path2978" />
    <path
       fill-rule="nonzero"
       fill="#000000"
       fill-opacity="1"
       stroke-width="0.140582"
       stroke-linecap="butt"
       stroke-linejoin="miter"
       stroke="#000000"
       stroke-opacity="1"
       stroke-miterlimit="10"
       d="m 9.2207257,13.329505 c 0,-0.338998 -0.2756076,-0.614605 -0.6159831,-0.614605 -0.3389972,0 -0.6146049,0.275607 -0.6146049,0.614605 0,0.340375 0.2756077,0.614605 0.6146049,0.614605 0.3403755,0 0.6159831,-0.27423 0.6159831,-0.614605 z m 0,0"
       id="path2980" />
    <path
       fill-rule="nonzero"
       fill="#000000"
       fill-opacity="1"
       stroke-width="0.140582"
       stroke-linecap="butt"
       stroke-linejoin="miter"
       stroke="#000000"
       stroke-opacity="1"
       stroke-miterlimit="10"
       d="m 14.720476,23.329928 c 0,-0.340376 -0.275608,-0.614605 -0.614605,-0.614605 -0.340375,0 -0.615983,0.274229 -0.615983,0.614605 0,0.338997 0.275608,0.614605 0.615983,0.614605 0.338997,0 0.614605,-0.275608 0.614605,-0.614605 z m 0,0"
       id="path2982" />
    <path
       fill-rule="nonzero"
       fill="#000000"
       fill-opacity="1"
       stroke-width="0.140582"
       stroke-linecap="butt"
       stroke-linejoin="miter"
       stroke="#000000"
       stroke-opacity="1"
       stroke-miterlimit="10"
       d="m 13.72002,28.32945 c 0,-0.338997 -0.275607,-0.614605 -0.614605,-0.614605 -0.340375,0 -0.614605,0.275608 -0.614605,0.614605 0,0.340376 0.27423,0.615983 0.614605,0.615983 0.338998,0 0.614605,-0.275607 0.614605,-0.615983 z m 0,0"
       id="path2984" />
    <path
       fill-rule="nonzero"
       fill="#000000"
       fill-opacity="1"
       stroke-width="0.140582"
       stroke-linecap="butt"
       stroke-linejoin="miter"
       stroke="#000000"
       stroke-opacity="1"
       stroke-miterlimit="10"
       d="m 12.220715,31.329439 c 0,-0.338997 -0.275608,-0.614605 -0.615983,-0.614605 -0.338998,0 -0.614605,0.275608 -0.614605,0.614605 0,0.340376 0.275607,0.615983 0.614605,0.615983 0.340375,0 0.615983,-0.275607 0.615983,-0.615983 z m 0,0"
       id="path2986" />
    <path
       fill-rule="nonzero"
       fill="#000000"
       fill-opacity="1"
       stroke-width="0.140582"
       stroke-linecap="butt"
       stroke-linejoin="miter"
       stroke="#000000"
       stroke-opacity="1"
       stroke-miterlimit="10"
       d="m 17.220237,21.330394 c 0,-0.340375 -0.275607,-0.615983 -0.614605,-0.615983 -0.340375,0 -0.615983,0.275608 -0.615983,0.615983 0,0.338998 0.275608,0.614605 0.615983,0.614605 0.338998,0 0.614605,-0.275607 0.614605,-0.614605 z m 0,0"
       id="path2988" />
    <path
       fill-rule="nonzero"
       fill="#000000"
       fill-opacity="1"
       stroke-width="0.140582"
       stroke-linecap="butt"
       stroke-linejoin="miter"
       stroke="#000000"
       stroke-opacity="1"
       stroke-miterlimit="10"
       d="m 12.220715,15.329038 c 0,-0.338997 -0.275608,-0.614605 -0.615983,-0.614605 -0.338998,0 -0.614605,0.275608 -0.614605,0.614605 0,0.340375 0.275607,0.615983 0.614605,0.615983 0.340375,0 0.615983,-0.275608 0.615983,-0.615983 z m 0,0"
       id="path2990" />
    <path
       fill-rule="nonzero"
       fill="#000000"
       fill-opacity="1"
       stroke-width="0.140582"
       stroke-linecap="butt"
       stroke-linejoin="miter"
       stroke="#000000"
       stroke-opacity="1"
       stroke-miterlimit="10"
       d="m 16.219782,14.32996 c 0,-0.340375 -0.27423,-0.614605 -0.614606,-0.614605 -0.338997,0 -0.614604,0.27423 -0.614604,0.614605 0,0.338998 0.275607,0.614605 0.614604,0.614605 0.340376,0 0.614606,-0.275607 0.614606,-0.614605 z m 0,0"
       id="path2992" />
    <path
       fill-rule="nonzero"
       fill="#000000"
       fill-opacity="1"
       stroke-width="0.140582"
       stroke-linecap="butt"
       stroke-linejoin="miter"
       stroke="#000000"
       stroke-opacity="1"
       stroke-miterlimit="10"
       d="m 27.22066,33.33035 c 0,-0.340375 -0.275607,-0.615982 -0.614605,-0.615982 -0.340375,0 -0.615983,0.275607 -0.615983,0.615982 0,0.338998 0.275608,0.614606 0.615983,0.614606 0.338998,0 0.614605,-0.275608 0.614605,-0.614606 z m 0,0"
       id="path2994" />
    <path
       fill-rule="nonzero"
       fill="#000000"
       fill-opacity="1"
       stroke-width="0.140582"
       stroke-linecap="butt"
       stroke-linejoin="miter"
       stroke="#000000"
       stroke-opacity="1"
       stroke-miterlimit="10"
       d="m 32.220183,28.32945 c 0,-0.338997 -0.275608,-0.614605 -0.614605,-0.614605 -0.340376,0 -0.614605,0.275608 -0.614605,0.614605 0,0.340376 0.274229,0.615983 0.614605,0.615983 0.338997,0 0.614605,-0.275607 0.614605,-0.615983 z m 0,0"
       id="path2996" />
    <path
       fill-rule="nonzero"
       fill="#000000"
       fill-opacity="1"
       stroke-width="0.140582"
       stroke-linecap="butt"
       stroke-linejoin="miter"
       stroke="#000000"
       stroke-opacity="1"
       stroke-miterlimit="10"
       d="m 29.720421,25.829689 c 0,-0.338998 -0.275607,-0.614605 -0.614604,-0.614605 -0.340376,0 -0.615984,0.275607 -0.615984,0.614605 0,0.340375 0.275608,0.614605 0.615984,0.614605 0.338997,0 0.614604,-0.27423 0.614604,-0.614605 z m 0,0"
       id="path2998" />
    <path
       fill-rule="nonzero"
       fill="#000000"
       fill-opacity="1"
       stroke-width="0.140582"
       stroke-linecap="butt"
       stroke-linejoin="miter"
       stroke="#000000"
       stroke-opacity="1"
       stroke-miterlimit="10"
       d="m 29.720421,21.330394 c 0,-0.340375 -0.275607,-0.615983 -0.614604,-0.615983 -0.340376,0 -0.615984,0.275608 -0.615984,0.615983 0,0.338998 0.275608,0.614605 0.615984,0.614605 0.338997,0 0.614604,-0.275607 0.614604,-0.614605 z m 0,0"
       id="path3000" />
    <path
       fill-rule="nonzero"
       fill="#000000"
       fill-opacity="1"
       stroke-width="0.140582"
       stroke-linecap="butt"
       stroke-linejoin="miter"
       stroke="#000000"
       stroke-opacity="1"
       stroke-miterlimit="10"
       d="m 37.221083,38.329873 c 0,-0.338997 -0.275607,-0.614605 -0.615983,-0.614605 -0.338997,0 -0.614605,0.275608 -0.614605,0.614605 0,0.340375 0.275608,0.614605 0.614605,0.614605 0.340376,0 0.615983,-0.27423 0.615983,-0.614605 z m 0,0"
       id="path3002" />
    <path
       fill-rule="nonzero"
       fill="#000000"
       fill-opacity="1"
       stroke-width="0.140582"
       stroke-linecap="butt"
       stroke-linejoin="miter"
       stroke="#000000"
       stroke-opacity="1"
       stroke-miterlimit="10"
       d="m 42.220606,40.829634 c 0,-0.338997 -0.275608,-0.614605 -0.614605,-0.614605 -0.340376,0 -0.615983,0.275608 -0.615983,0.614605 0,0.340376 0.275607,0.615983 0.615983,0.615983 0.338997,0 0.614605,-0.275607 0.614605,-0.615983 z m 0,0"
       id="path3004" />
    <path
       fill-rule="nonzero"
       fill="#000000"
       fill-opacity="1"
       stroke-width="0.140582"
       stroke-linecap="butt"
       stroke-linejoin="miter"
       stroke="#000000"
       stroke-opacity="1"
       stroke-miterlimit="10"
       d="m 67.220975,40.829634 c 0,-0.338997 -0.275608,-0.614605 -0.614606,-0.614605 -0.340374,0 -0.615982,0.275608 -0.615982,0.614605 0,0.340376 0.275608,0.615983 0.615982,0.615983 0.338998,0 0.614606,-0.275607 0.614606,-0.615983 z m 0,0"
       id="path3006" />
    <path
       fill-rule="nonzero"
       fill="#000000"
       fill-opacity="1"
       stroke-width="0.140582"
       stroke-linecap="butt"
       stroke-linejoin="miter"
       stroke="#000000"
       stroke-opacity="1"
       stroke-miterlimit="10"
       d="m 57.220551,35.830112 c 0,-0.340376 -0.275608,-0.614605 -0.614606,-0.614605 -0.340374,0 -0.614603,0.274229 -0.614603,0.614605 0,0.338997 0.274229,0.614605 0.614603,0.614605 0.338998,0 0.614606,-0.275608 0.614606,-0.614605 z m 0,0"
       id="path3008" />
    <path
       fill-rule="nonzero"
       fill="#000000"
       fill-opacity="1"
       stroke-width="0.140582"
       stroke-linecap="butt"
       stroke-linejoin="miter"
       stroke="#000000"
       stroke-opacity="1"
       stroke-miterlimit="10"
       d="m 47.220126,25.829689 c 0,-0.338998 -0.274228,-0.614605 -0.614602,-0.614605 -0.338998,0 -0.614606,0.275607 -0.614606,0.614605 0,0.340375 0.275608,0.614605 0.614606,0.614605 0.340374,0 0.614602,-0.27423 0.614602,-0.614605 z m 0,0"
       id="path3010" />
    <path
       fill-rule="nonzero"
       fill="#000000"
       fill-opacity="1"
       stroke-width="0.140582"
       stroke-linecap="butt"
       stroke-linejoin="miter"
       stroke="#000000"
       stroke-opacity="1"
       stroke-miterlimit="10"
       d="m 52.22103,13.829733 c 0,-0.338998 -0.275608,-0.614606 -0.614606,-0.614606 -0.340378,0 -0.615985,0.275608 -0.615985,0.614606 0,0.340375 0.275607,0.614605 0.615985,0.614605 0.338998,0 0.614606,-0.27423 0.614606,-0.614605 z m 0,0"
       id="path3012" />
    <path
       fill-rule="nonzero"
       fill="#ffffff"
       fill-opacity="1"
       stroke-width="0.140582"
       stroke-linecap="butt"
       stroke-linejoin="miter"
       stroke="#000000"
       stroke-opacity="1"
       stroke-miterlimit="10"
       d="m 8.0452593,31.329439 c 0,-0.242535 -0.1970596,-0.438216 -0.4395943,-0.438216 -0.2425347,0 -0.4395943,0.195681 -0.4395943,0.438216 0,0.242535 0.1970596,0.439594 0.4395943,0.439594 0.2425347,0 0.4395943,-0.197059 0.4395943,-0.439594 z m 0,0"
       id="path3014" />
    <path
       fill-rule="nonzero"
       fill="#ffffff"
       fill-opacity="1"
       stroke-width="0.140582"
       stroke-linecap="butt"
       stroke-linejoin="miter"
       stroke="#000000"
       stroke-opacity="1"
       stroke-miterlimit="10"
       d="m 9.0443368,21.330394 c 0,-0.242535 -0.1970595,-0.439594 -0.4395942,-0.439594 -0.2425347,0 -0.438216,0.197059 -0.438216,0.439594 0,0.242535 0.1956813,0.438216 0.438216,0.438216 0.2425347,0 0.4395942,-0.195681 0.4395942,-0.438216 z m 0,0"
       id="path3016" />
    <path
       fill-rule="nonzero"
       fill="#ffffff"
       fill-opacity="1"
       stroke-width="0.140582"
       stroke-linecap="butt"
       stroke-linejoin="miter"
       stroke="#000000"
       stroke-opacity="1"
       stroke-miterlimit="10"
       d="m 11.04387,16.329494 c 0,-0.242535 -0.195681,-0.439595 -0.438216,-0.439595 -0.242535,0 -0.439594,0.19706 -0.439594,0.439595 0,0.242534 0.197059,0.439594 0.439594,0.439594 0.242535,0 0.438216,-0.19706 0.438216,-0.439594 z m 0,0"
       id="path3018" />
    <path
       fill-rule="nonzero"
       fill="#ffffff"
       fill-opacity="1"
       stroke-width="0.140582"
       stroke-linecap="butt"
       stroke-linejoin="miter"
       stroke="#000000"
       stroke-opacity="1"
       stroke-miterlimit="10"
       d="m 13.044782,12.329049 c 0,-0.242535 -0.19706,-0.438216 -0.439595,-0.438216 -0.242534,0 -0.439594,0.195681 -0.439594,0.438216 0,0.243913 0.19706,0.439594 0.439594,0.439594 0.242535,0 0.439595,-0.195681 0.439595,-0.439594 z m 0,0"
       id="path3020" />
    <path
       fill-rule="nonzero"
       fill="#ffffff"
       fill-opacity="1"
       stroke-width="0.140582"
       stroke-linecap="butt"
       stroke-linejoin="miter"
       stroke="#000000"
       stroke-opacity="1"
       stroke-miterlimit="10"
       d="m 22.044749,18.330405 c 0,-0.243913 -0.197059,-0.439594 -0.439594,-0.439594 -0.242535,0 -0.439594,0.195681 -0.439594,0.439594 0,0.242535 0.197059,0.438216 0.439594,0.438216 0.242535,0 0.439594,-0.195681 0.439594,-0.438216 z m 0,0"
       id="path3022" />
    <path
       fill-rule="nonzero"
       fill="#ffffff"
       fill-opacity="1"
       stroke-width="0.140582"
       stroke-linecap="butt"
       stroke-linejoin="miter"
       stroke="#000000"
       stroke-opacity="1"
       stroke-miterlimit="10"
       d="m 32.045172,21.330394 c 0,-0.242535 -0.19706,-0.439594 -0.439594,-0.439594 -0.242535,0 -0.439595,0.197059 -0.439595,0.439594 0,0.242535 0.19706,0.438216 0.439595,0.438216 0.242534,0 0.439594,-0.195681 0.439594,-0.438216 z m 0,0"
       id="path3024" />
    <path
       fill-rule="nonzero"
       fill="#ffffff"
       fill-opacity="1"
       stroke-width="0.140582"
       stroke-linecap="butt"
       stroke-linejoin="miter"
       stroke="#000000"
       stroke-opacity="1"
       stroke-miterlimit="10"
       d="m 27.044272,16.329494 c 0,-0.242535 -0.195682,-0.439595 -0.438217,-0.439595 -0.242535,0 -0.439594,0.19706 -0.439594,0.439595 0,0.242534 0.197059,0.439594 0.439594,0.439594 0.242535,0 0.438217,-0.19706 0.438217,-0.439594 z m 0,0"
       id="path3026" />
    <path
       fill-rule="nonzero"
       fill="#ffffff"
       fill-opacity="1"
       stroke-width="0.140582"
       stroke-linecap="butt"
       stroke-linejoin="miter"
       stroke="#000000"
       stroke-opacity="1"
       stroke-miterlimit="10"
       d="m 35.045161,31.329439 c 0,-0.242535 -0.19706,-0.438216 -0.439594,-0.438216 -0.242535,0 -0.439594,0.195681 -0.439594,0.438216 0,0.242535 0.197059,0.439594 0.439594,0.439594 0.242534,0 0.439594,-0.197059 0.439594,-0.439594 z m 0,0"
       id="path3028" />
    <path
       fill-rule="nonzero"
       fill="#ffffff"
       fill-opacity="1"
       stroke-width="0.140582"
       stroke-linecap="butt"
       stroke-linejoin="miter"
       stroke="#000000"
       stroke-opacity="1"
       stroke-miterlimit="10"
       d="m 45.045583,20.830167 c 0,-0.242535 -0.197058,-0.439595 -0.439593,-0.439595 -0.242534,0 -0.439596,0.19706 -0.439596,0.439595 0,0.242534 0.197062,0.439593 0.439596,0.439593 0.242535,0 0.439593,-0.197059 0.439593,-0.439593 z m 0,0"
       id="path3030" />
    <path
       fill-rule="nonzero"
       fill="#ffffff"
       fill-opacity="1"
       stroke-width="0.140582"
       stroke-linecap="butt"
       stroke-linejoin="miter"
       stroke="#000000"
       stroke-opacity="1"
       stroke-miterlimit="10"
       d="m 42.045596,24.829233 c 0,-0.242535 -0.197061,-0.438216 -0.439595,-0.438216 -0.242535,0 -0.439594,0.195681 -0.439594,0.438216 0,0.242535 0.197059,0.439594 0.439594,0.439594 0.242534,0 0.439595,-0.197059 0.439595,-0.439594 z m 0,0"
       id="path3032" />
    <path
       fill-rule="nonzero"
       fill="#ffffff"
       fill-opacity="1"
       stroke-width="0.140582"
       stroke-linecap="butt"
       stroke-linejoin="miter"
       stroke="#000000"
       stroke-opacity="1"
       stroke-miterlimit="10"
       d="m 52.044641,39.330329 c 0,-0.242535 -0.195682,-0.439594 -0.438217,-0.439594 -0.243914,0 -0.439596,0.197059 -0.439596,0.439594 0,0.242535 0.195682,0.439594 0.439596,0.439594 0.242535,0 0.438217,-0.197059 0.438217,-0.439594 z m 0,0"
       id="path3034" />
    <path
       fill-rule="nonzero"
       fill="#ffffff"
       fill-opacity="1"
       stroke-width="0.140582"
       stroke-linecap="butt"
       stroke-linejoin="miter"
       stroke="#000000"
       stroke-opacity="1"
       stroke-miterlimit="10"
       d="m 72.045486,41.329862 c 0,-0.242534 -0.197062,-0.439594 -0.439596,-0.439594 -0.242535,0 -0.439593,0.19706 -0.439593,0.439594 0,0.242535 0.197058,0.439594 0.439593,0.439594 0.242534,0 0.439596,-0.197059 0.439596,-0.439594 z m 0,0"
       id="path3036" />
    <text
       xml:space="preserve"
       style="font-size:3.175px;text-align:center;text-anchor:middle;fill:#000000;fill-opacity:1;stroke:none;stroke-width:0.122;stroke-miterlimit:9.7;stroke-dasharray:none;stroke-dashoffset:2.19213;stroke-opacity:1"
       x="14.691069"
       y="8.9762068"
       id="text16723"><tspan
         sodipodi:role="line"
         id="tspan16721"
         style="fill:#000000;fill-opacity:1;stroke:none;stroke-width:0.122;stroke-dasharray:none;stroke-opacity:1"
         x="14.691069"
         y="8.9762068">temperatura</tspan></text>
    <text
       xml:space="preserve"
       style="font-size:3.175px;text-align:center;text-anchor:middle;fill:#000000;fill-opacity:1;stroke:none;stroke-width:0.122;stroke-miterlimit:9.7;stroke-dasharray:none;stroke-dashoffset:2.19213;stroke-opacity:1"
       x="122.99178"
       y="44.332779"
       id="text17659"><tspan
         sodipodi:role="line"
         id="tspan17657"
         style="stroke-width:0.122"
         x="122.99178"
         y="44.332779">tiempo</tspan></text>
    <text
       xml:space="preserve"
       style="font-size:3.175px;text-align:center;text-anchor:middle;fill:#000000;fill-opacity:1;stroke:none;stroke-width:0.122;stroke-miterlimit:9.7;stroke-dasharray:none;stroke-dashoffset:2.19213;stroke-opacity:1"
       x="21.095781"
       y="36.808388"
       id="text17663"><tspan
         sodipodi:role="line"
         id="tspan17661"
         style="stroke-width:0.122"
         x="21.095781"
         y="36.808388">electrn</tspan></text>
    <text
       xml:space="preserve"
       style="font-size:3.175px;text-align:center;text-anchor:middle;fill:#000000;fill-opacity:1;stroke:none;stroke-width:0.122;stroke-miterlimit:9.7;stroke-dasharray:none;stroke-dashoffset:2.19213;stroke-opacity:1"
       x="19.771908"
       y="40.333282"
       id="text17667"><tspan
         sodipodi:role="line"
         id="tspan17665"
         style="stroke-width:0.122"
         x="19.771908"
         y="40.333282">protn</tspan></text>
    <text
       xml:space="preserve"
       style="font-size:3.175px;text-align:center;text-anchor:middle;fill:#000000;fill-opacity:1;stroke:none;stroke-width:0.122;stroke-miterlimit:9.7;stroke-dasharray:none;stroke-dashoffset:2.19213;stroke-opacity:1"
       x="36.445026"
       y="47.604187"
       id="text17671"><tspan
         sodipodi:role="line"
         id="tspan17669"
         style="stroke-width:0.122"
         x="36.445026"
         y="47.604187">250 000 aos</tspan></text>
    <text
       xml:space="preserve"
       style="font-size:3.175px;text-align:center;text-anchor:middle;fill:#000000;fill-opacity:1;stroke:none;stroke-width:0.122;stroke-miterlimit:9.7;stroke-dasharray:none;stroke-dashoffset:2.19213;stroke-opacity:1"
       x="81.953354"
       y="47.604187"
       id="text17675"><tspan
         sodipodi:role="line"
         id="tspan17673"
         style="stroke-width:0.122"
         x="81.953354"
         y="47.604187">380 000 aos</tspan></text>
    <text
       xml:space="preserve"
       style="font-size:3.175px;text-align:center;text-anchor:middle;fill:#000000;fill-opacity:1;stroke:none;stroke-width:0.122;stroke-miterlimit:9.7;stroke-dasharray:none;stroke-dashoffset:2.19213;stroke-opacity:1"
       x="35.823711"
       y="5.8265934"
       id="text19857"><tspan
         sodipodi:role="line"
         id="tspan19855"
         style="stroke-width:0.122"
         x="35.823711"
         y="5.8265934">0.30 eV</tspan></text>
    <text
       xml:space="preserve"
       style="font-size:3.175px;text-align:center;text-anchor:middle;fill:#000000;fill-opacity:1;stroke:none;stroke-width:0.122;stroke-miterlimit:9.7;stroke-dasharray:none;stroke-dashoffset:2.19213;stroke-opacity:1"
       x="81.332031"
       y="5.8265934"
       id="text21313"><tspan
         sodipodi:role="line"
         id="tspan21311"
         style="stroke-width:0.122"
         x="81.332031"
         y="5.8265934">0.25 eV</tspan></text>
    <text
       xml:space="preserve"
       style="font-size:3.175px;text-align:center;text-anchor:middle;fill:#000000;fill-opacity:1;stroke:none;stroke-width:0.122;stroke-miterlimit:9.7;stroke-dasharray:none;stroke-dashoffset:2.19213;stroke-opacity:1"
       x="109.06252"
       y="12.7202"
       id="text24947"><tspan
         sodipodi:role="line"
         id="tspan24945"
         style="stroke-width:0.122"
         x="109.06252"
         y="12.7202">hidrgeno</tspan></text>
  </g>
</svg>
