<?xml version="1.0" encoding="UTF-8" standalone="no"?>
<!-- Created with Inkscape (http://www.inkscape.org/) -->

<svg
   width="11cm"
   height="11cm"
   viewBox="0 0 110 110"
   version="1.1"
   id="svg4699"
   inkscape:version="1.2.1 (9c6d41e410, 2022-07-14)"
   sodipodi:docname="horizonproblem.svg"
   xmlns:inkscape="http://www.inkscape.org/namespaces/inkscape"
   xmlns:sodipodi="http://sodipodi.sourceforge.net/DTD/sodipodi-0.dtd"
   xmlns="http://www.w3.org/2000/svg"
   xmlns:svg="http://www.w3.org/2000/svg">
  <sodipodi:namedview
     id="namedview4701"
     pagecolor="#ffffff"
     bordercolor="#000000"
     borderopacity="1"
     inkscape:showpageshadow="0"
     inkscape:pageopacity="1"
     inkscape:pagecheckerboard="true"
     inkscape:deskcolor="#505050"
     inkscape:document-units="mm"
     showgrid="false"
     showguides="false"
     inkscape:zoom="5.9081371"
     inkscape:cx="55.347395"
     inkscape:cy="100.03153"
     inkscape:window-width="1920"
     inkscape:window-height="1009"
     inkscape:window-x="-8"
     inkscape:window-y="-8"
     inkscape:window-maximized="1"
     inkscape:current-layer="layer1">
    <sodipodi:guide
       position="88.267042,104.49639"
       orientation="0,-1"
       id="guide21752"
       inkscape:locked="false" />
    <sodipodi:guide
       position="91.946467,77.218727"
       orientation="0,-1"
       id="guide21754"
       inkscape:locked="false" />
    <sodipodi:guide
       position="91.099595,72.627731"
       orientation="0,-1"
       id="guide21756"
       inkscape:locked="false" />
    <sodipodi:guide
       position="83.620819,33.835534"
       orientation="0,-1"
       id="guide13530"
       inkscape:locked="false" />
    <sodipodi:guide
       position="45.751645,61.250346"
       orientation="1,0"
       id="guide13532"
       inkscape:locked="false" />
  </sodipodi:namedview>
  <defs
     id="defs4696">
    <marker
       style="overflow:visible"
       id="TriangleStart"
       refX="0"
       refY="0"
       orient="auto-start-reverse"
       inkscape:stockid="TriangleStart"
       markerWidth="5.3244081"
       markerHeight="6.155385"
       viewBox="0 0 5.3244081 6.1553851"
       inkscape:isstock="true"
       inkscape:collect="always"
       preserveAspectRatio="xMidYMid">
      <path
         transform="scale(0.5)"
         style="fill:context-stroke;fill-rule:evenodd;stroke:context-stroke;stroke-width:1pt"
         d="M 5.77,0 -2.88,5 V -5 Z"
         id="path135" />
    </marker>
    <clipPath
       id="clip-7">
      <path
         clip-rule="nonzero"
         d="M 170,275 H 375 V 496.65625 H 170 Z m 0,0"
         id="path387" />
    </clipPath>
    <clipPath
       id="clip-1">
      <path
         clip-rule="nonzero"
         d="m 266,372 h 32 v 32 h -32 z m 0,0"
         id="path369" />
    </clipPath>
    <clipPath
       id="clip-2">
      <path
         clip-rule="nonzero"
         d="m 297.83203,385.44922 -17.74609,-13.3711 -13.53907,17.96094 17.7461,13.375 z m 0,0"
         id="path372" />
    </clipPath>
    <clipPath
       id="clip-3">
      <path
         clip-rule="nonzero"
         d="M 484.03125,388.16016 226.42187,194.03906 80.832031,387.24219 338.44141,581.36719 Z m 0,0"
         id="path375" />
    </clipPath>
    <clipPath
       id="clip-4">
      <path
         clip-rule="nonzero"
         d="m 277,376 h 15 v 23 h -15 z m 0,0"
         id="path378" />
    </clipPath>
    <clipPath
       id="clip-5">
      <path
         clip-rule="nonzero"
         d="m 297.83203,385.44922 -17.74609,-13.3711 -13.53907,17.96094 17.7461,13.375 z m 0,0"
         id="path381" />
    </clipPath>
    <clipPath
       id="clip-6">
      <path
         clip-rule="nonzero"
         d="M 484.03125,388.16016 226.42187,194.03906 80.832031,387.24219 338.44141,581.36719 Z m 0,0"
         id="path384" />
    </clipPath>
    <clipPath
       id="clip-8">
      <path
         clip-rule="nonzero"
         d="M 142,247 H 423 V 496.65625 H 142 Z m 0,0"
         id="path390" />
    </clipPath>
    <clipPath
       id="clip-9">
      <path
         clip-rule="nonzero"
         d="m 266,139.74219 h 33 V 172 h -33 z m 0,0"
         id="path393" />
    </clipPath>
    <clipPath
       id="clip-10">
      <path
         clip-rule="nonzero"
         d="m 282.30469,171.30859 15.71484,-15.71484 -15.90625,-15.90234 -15.71094,15.71093 z m 0,0"
         id="path396" />
    </clipPath>
    <clipPath
       id="clip-11">
      <path
         clip-rule="nonzero"
         d="M 253.70703,355.32031 481.79297,127.23438 310.72656,-43.828125 82.644531,184.25781 Z m 0,0"
         id="path399" />
    </clipPath>
    <clipPath
       id="clip-12">
      <path
         clip-rule="nonzero"
         d="m 271,151 h 22 v 14 h -22 z m 0,0"
         id="path402" />
    </clipPath>
    <clipPath
       id="clip-13">
      <path
         clip-rule="nonzero"
         d="m 282.30469,171.30859 15.71484,-15.71484 -15.90625,-15.90234 -15.71094,15.71093 z m 0,0"
         id="path405" />
    </clipPath>
    <clipPath
       id="clip-14">
      <path
         clip-rule="nonzero"
         d="M 253.70703,355.32031 481.79297,127.23438 310.72656,-43.828125 82.644531,184.25781 Z m 0,0"
         id="path408" />
    </clipPath>
    <clipPath
       id="clip-7-2">
      <path
         clip-rule="nonzero"
         d="M 170,275 H 375 V 496.65625 H 170 Z m 0,0"
         id="path387-0" />
    </clipPath>
    <clipPath
       id="clip-1-0">
      <path
         clip-rule="nonzero"
         d="m 266,372 h 32 v 32 h -32 z m 0,0"
         id="path369-2" />
    </clipPath>
    <clipPath
       id="clip-2-0">
      <path
         clip-rule="nonzero"
         d="m 297.83203,385.44922 -17.74609,-13.3711 -13.53907,17.96094 17.7461,13.375 z m 0,0"
         id="path372-0" />
    </clipPath>
    <clipPath
       id="clip-3-8">
      <path
         clip-rule="nonzero"
         d="M 484.03125,388.16016 226.42187,194.03906 80.832031,387.24219 338.44141,581.36719 Z m 0,0"
         id="path375-8" />
    </clipPath>
    <clipPath
       id="clip-4-7">
      <path
         clip-rule="nonzero"
         d="m 277,376 h 15 v 23 h -15 z m 0,0"
         id="path378-3" />
    </clipPath>
    <clipPath
       id="clip-5-5">
      <path
         clip-rule="nonzero"
         d="m 297.83203,385.44922 -17.74609,-13.3711 -13.53907,17.96094 17.7461,13.375 z m 0,0"
         id="path381-4" />
    </clipPath>
    <clipPath
       id="clip-6-4">
      <path
         clip-rule="nonzero"
         d="M 484.03125,388.16016 226.42187,194.03906 80.832031,387.24219 338.44141,581.36719 Z m 0,0"
         id="path384-6" />
    </clipPath>
    <clipPath
       id="clip-8-6">
      <path
         clip-rule="nonzero"
         d="M 142,247 H 423 V 496.65625 H 142 Z m 0,0"
         id="path390-3" />
    </clipPath>
    <clipPath
       id="clip-9-6">
      <path
         clip-rule="nonzero"
         d="m 266,139.74219 h 33 V 172 h -33 z m 0,0"
         id="path393-9" />
    </clipPath>
    <clipPath
       id="clip-10-2">
      <path
         clip-rule="nonzero"
         d="m 282.30469,171.30859 15.71484,-15.71484 -15.90625,-15.90234 -15.71094,15.71093 z m 0,0"
         id="path396-5" />
    </clipPath>
    <clipPath
       id="clip-11-8">
      <path
         clip-rule="nonzero"
         d="M 253.70703,355.32031 481.79297,127.23438 310.72656,-43.828125 82.644531,184.25781 Z m 0,0"
         id="path399-1" />
    </clipPath>
    <clipPath
       id="clip-12-7">
      <path
         clip-rule="nonzero"
         d="m 271,151 h 22 v 14 h -22 z m 0,0"
         id="path402-2" />
    </clipPath>
    <clipPath
       id="clip-13-7">
      <path
         clip-rule="nonzero"
         d="m 282.30469,171.30859 15.71484,-15.71484 -15.90625,-15.90234 -15.71094,15.71093 z m 0,0"
         id="path405-7" />
    </clipPath>
    <clipPath
       id="clip-14-4">
      <path
         clip-rule="nonzero"
         d="M 253.70703,355.32031 481.79297,127.23438 310.72656,-43.828125 82.644531,184.25781 Z m 0,0"
         id="path408-0" />
    </clipPath>
  </defs>
  <g
     inkscape:label="Capa 1"
     inkscape:groupmode="layer"
     id="layer1">
    <g
       clip-path="url(#clip-1-0)"
       id="g501"
       transform="matrix(0.30406799,0,0,0.30406799,-40.067982,-41.731136)"
       style="stroke-width:1.1602">
      <g
         clip-path="url(#clip-2-0)"
         id="g499"
         style="stroke-width:1.1602">
        <g
           clip-path="url(#clip-3-8)"
           id="g497"
           style="stroke-width:1.1602">
          <path
             fill-rule="nonzero"
             fill="#ffffff"
             fill-opacity="1"
             d="M 484.03125,388.16016 226.42187,194.03906 80.832031,387.24219 338.44141,581.36719 Z m 0,0"
             id="path495"
             style="stroke-width:1.43959" />
        </g>
      </g>
    </g>
    <g
       clip-path="url(#clip-4-7)"
       id="g509"
       transform="matrix(0.30406799,0,0,0.30406799,-40.067982,-41.731136)"
       style="stroke-width:1.1602">
      <g
         clip-path="url(#clip-5-5)"
         id="g507"
         style="stroke-width:1.1602">
        <g
           clip-path="url(#clip-6-4)"
           id="g505"
           style="stroke-width:1.1602">
          <path
             fill-rule="nonzero"
             fill="#000000"
             fill-opacity="1"
             d="m 282.07422,398.47656 3.67187,-0.51953 -0.35156,-2.50391 -3.67578,0.51563 z m -0.41016,-2.90625 3.67578,-0.51562 -0.35156,-2.50782 -3.67578,0.51954 z m -0.41015,-2.90234 3.67578,-0.51953 -0.35157,-2.50391 -3.67578,0.51563 z m -3.1211,-2.64453 1.39453,-0.875 0.0937,0.66406 6.39844,-0.89844 -0.125,-0.89062 0.96094,-0.13282 c 0.33984,1.00782 1.01953,1.75391 1.78906,1.96094 l -0.27344,-1.94922 1.39063,-0.79687 1.30859,-0.1836 -0.12109,-0.85156 -1.30469,0.1836 -1.55859,-0.37891 -0.27344,-1.95313 c -0.67969,0.41407 -1.13281,1.31641 -1.17969,2.37891 l -0.96094,0.13672 -0.12109,-0.89063 -6.40234,0.90235 0.0937,0.66406 -1.58203,-0.45703 z m 2.15235,-4.26172 3.67578,-0.51953 -0.35157,-2.50391 -3.67578,0.51563 z m -0.41016,-2.90625 3.67969,-0.51563 -0.35547,-2.50781 -3.67578,0.51953 z m 8.46094,4.78125 -0.21094,-1.5 1.29687,0.32031 0.0742,0.51563 z m -8.86719,-7.6836 3.67578,-0.51953 -0.35156,-2.5039 -3.67578,0.51562 z m 0,0"
             id="path503"
             style="stroke-width:1.43959" />
        </g>
      </g>
    </g>
    <path
       fill="none"
       stroke-width="0.126524"
       stroke-linecap="butt"
       stroke-linejoin="miter"
       stroke="#000000"
       stroke-opacity="1"
       stroke-dasharray="2.98883, 2.98883"
       stroke-miterlimit="10"
       d="M 48.854091,76.159352 H 62.817462"
       id="path511"
       style="stroke-width:0.1;stroke-dasharray:2.36226337,2.36226337;stroke-dashoffset:1.15000002" />
    <path
       fill="none"
       stroke-width="0.126524"
       stroke-linecap="butt"
       stroke-linejoin="miter"
       stroke="#000000"
       stroke-opacity="1"
       stroke-dasharray="2.98883, 2.98883"
       stroke-miterlimit="10"
       d="m 48.854091,75.096302 13.653365,-5.06582"
       id="path513"
       style="stroke-width:0.1;stroke-dasharray:2.36226337,2.36226337;stroke-dashoffset:0.58000001" />
    <g
       clip-path="url(#clip-8-6)"
       id="g577"
       transform="matrix(0.30696361,0,0,0.30696361,-40.885238,-42.853801)"
       style="stroke-width:1.14926">
      <path
         fill="none"
         stroke-width="4.57988"
         stroke-linecap="butt"
         stroke-linejoin="miter"
         stroke="#bfbfbf"
         stroke-opacity="1"
         stroke-miterlimit="10"
         d="M 99.215944,-4.86111e-4 C 99.215944,54.795521 54.793201,99.213924 0.00153472,99.213924 -54.794472,99.213924 -99.212875,54.795521 -99.212875,-4.86111e-4 c 0,-54.796006889 44.418403,-99.214409889 99.21440972,-99.214409889 54.79166628,0 99.21440928,44.418403 99.21440928,99.214409889 z m 0,0"
         transform="matrix(0.9,0,0,-0.9,282.2369,387.7105)"
         id="path575" />
    </g>
    <path
       fill="none"
       stroke-width="0.253051"
       stroke-linecap="butt"
       stroke-linejoin="miter"
       stroke="#000000"
       stroke-opacity="1"
       stroke-miterlimit="10"
       d="m 77.556446,76.159352 c 0,-2.570324 -2.08334,-4.654853 -4.653665,-4.654853 -2.571512,0 -4.654853,2.084529 -4.654853,4.654853 0,2.570325 2.083341,4.65485 4.654853,4.65485 2.570325,0 4.653665,-2.084525 4.653665,-4.65485 z m 0,0"
       id="path579" />
    <path
       fill="none"
       stroke-width="0.253051"
       stroke-linecap="butt"
       stroke-linejoin="miter"
       stroke="#000000"
       stroke-opacity="1"
       stroke-miterlimit="10"
       d="m 23.254179,76.159352 c 0,-2.570324 -2.083341,-4.654853 -4.653666,-4.654853 -2.570325,0 -4.654852,2.084529 -4.654852,4.654853 0,2.570325 2.084527,4.65485 4.654852,4.65485 2.570325,0 4.653666,-2.084525 4.653666,-4.65485 z m 0,0"
       id="path581" />
    <path
       fill="none"
       stroke-width="0.253051"
       stroke-linecap="butt"
       stroke-linejoin="miter"
       stroke="#000000"
       stroke-opacity="1"
       stroke-miterlimit="10"
       d="m 75.92802,66.850833 c 0,-2.571512 -2.08453,-4.654853 -4.654853,-4.654853 -2.570326,0 -4.654854,2.083341 -4.654854,4.654853 0,2.570325 2.084528,4.653666 4.654854,4.653666 2.570323,0 4.654853,-2.083341 4.654853,-4.653666 z m 0,0"
       id="path583" />
    <path
       fill="none"
       stroke-width="0.253051"
       stroke-linecap="butt"
       stroke-linejoin="miter"
       stroke="#7f7f7f"
       stroke-opacity="1"
       stroke-miterlimit="10"
       d="m 18.600513,76.159352 c 0.204296,0 0.306443,-0.204295 0.510739,-0.204295 0.148471,0 0.275562,0.09977 0.408593,0.204295 0.134216,0.104521 0.261307,0.2043 0.409778,0.2043 0.147283,0 0.275561,-0.09977 0.408591,-0.2043 0.13303,-0.104521 0.261309,-0.204295 0.408592,-0.204295 0.14847,0 0.275561,0.09977 0.409779,0.204295 0.13303,0.104521 0.260121,0.2043 0.408591,0.2043 0.148471,0 0.275562,-0.09977 0.408592,-0.2043 0.134217,-0.104521 0.261308,-0.204295 0.409779,-0.204295 0.147282,0 0.275561,0.09977 0.408591,0.204295 0.13303,0.104521 0.261308,0.2043 0.408592,0.2043 0.14847,0 0.275561,-0.09977 0.409779,-0.2043 0.133028,-0.104521 0.26012,-0.204295 0.40859,-0.204295 0.148472,0 0.275562,0.09977 0.408592,0.204295 0.13303,0.104521 0.261309,0.2043 0.40978,0.2043 0.147282,0 0.275561,-0.09977 0.408591,-0.2043 0.13303,-0.104521 0.261308,-0.204295 0.408592,-0.204295 0.14847,0 0.275561,0.09977 0.409779,0.204295 0.133028,0.104521 0.260119,0.2043 0.40859,0.2043 0.204297,0 0.306444,-0.2043 0.51074,-0.2043 h 0.216172"
       id="path585" />
    <path
       fill-rule="nonzero"
       fill="#7f7f7f"
       fill-opacity="1"
       d="m 27.909031,76.159352 -1.134317,-0.567752 0.425221,0.567752 -0.425221,0.566569"
       id="path587"
       style="stroke-width:0.352778" />
    <path
       fill="none"
       stroke-width="0.253051"
       stroke-linecap="butt"
       stroke-linejoin="miter"
       stroke="#7f7f7f"
       stroke-opacity="1"
       stroke-miterlimit="10"
       d="m 72.902781,76.159352 c -0.205484,0 -0.307631,0.2043 -0.511927,0.2043 -0.148471,0 -0.275562,-0.09977 -0.408591,-0.2043 -0.13303,-0.104521 -0.26131,-0.204295 -0.40978,-0.204295 -0.147283,0 -0.275561,0.09977 -0.408591,0.204295 -0.133031,0.104521 -0.260121,0.2043 -0.408591,0.2043 -0.14847,0 -0.275561,-0.09977 -0.408592,-0.2043 -0.134217,-0.104521 -0.261308,-0.204295 -0.409779,-0.204295 -0.147283,0 -0.275562,0.09977 -0.408591,0.204295 -0.13303,0.104521 -0.261309,0.2043 -0.408592,0.2043 -0.148471,0 -0.275562,-0.09977 -0.409779,-0.2043 -0.13303,-0.104521 -0.260121,-0.204295 -0.408591,-0.204295 -0.14847,0 -0.275561,0.09977 -0.408591,0.204295 -0.134218,0.104521 -0.261309,0.2043 -0.40978,0.2043 -0.147282,0 -0.275561,-0.09977 -0.408591,-0.2043 -0.13303,-0.104521 -0.261309,-0.204295 -0.408592,-0.204295 -0.148471,0 -0.275562,0.09977 -0.409778,0.204295 -0.13303,0.104521 -0.260122,0.2043 -0.408592,0.2043 -0.14847,0 -0.275561,-0.09977 -0.408591,-0.2043 -0.133031,-0.104521 -0.261309,-0.204295 -0.40978,-0.204295 -0.204295,0 -0.306443,0.204295 -0.510739,0.204295 H 64.30217"
       id="path589" />
    <path
       fill-rule="nonzero"
       fill="#7f7f7f"
       fill-opacity="1"
       d="M 63.593074,76.159352 64.72739,76.725921 64.302169,76.159352 64.72739,75.5916"
       id="path591"
       style="stroke-width:0.352778" />
    <path
       fill="none"
       stroke-width="0.253051"
       stroke-linecap="butt"
       stroke-linejoin="miter"
       stroke="#7f7f7f"
       stroke-opacity="1"
       stroke-miterlimit="10"
       d="m 71.273167,66.850833 c -0.192419,0.0689 -0.21855,0.295754 -0.410968,0.365831 -0.138968,0.05108 -0.293377,0 -0.453726,-0.05225 -0.161536,-0.05345 -0.315946,-0.103334 -0.454914,-0.05345 -0.138969,0.05108 -0.224488,0.188855 -0.314758,0.332574 -0.08908,0.14372 -0.174601,0.280313 -0.314757,0.331386 -0.13897,0.04989 -0.292192,0 -0.453728,-0.05226 -0.161536,-0.05344 -0.314758,-0.103334 -0.453726,-0.05344 -0.138969,0.05108 -0.225676,0.187666 -0.314758,0.331386 -0.09028,0.144907 -0.175789,0.281501 -0.314758,0.332574 -0.138968,0.04989 -0.293378,0 -0.454913,-0.05345 -0.160349,-0.05226 -0.314759,-0.103334 -0.453727,-0.05226 -0.13897,0.04989 -0.224488,0.187667 -0.314758,0.331386 -0.08908,0.143719 -0.17579,0.2815 -0.314757,0.331386 -0.13897,0.05108 -0.293379,0.0012 -0.453728,-0.05226 -0.161536,-0.05345 -0.314758,-0.103334 -0.454914,-0.05226 -0.138968,0.04989 -0.224488,0.187666 -0.314758,0.331385 -0.08908,0.14372 -0.174601,0.281501 -0.31357,0.331387 -0.140156,0.05108 -0.293378,0 -0.454914,-0.05226 -0.160349,-0.05345 -0.314757,-0.103335 -0.453726,-0.05345 -0.192419,0.07008 -0.21855,0.296943 -0.410967,0.36702 l -0.218549,0.07958"
       id="path593" />
    <path
       fill-rule="nonzero"
       fill="#7f7f7f"
       fill-opacity="1"
       d="m 62.507456,70.030482 1.259031,0.146095 -0.592693,-0.387212 0.20667,-0.678215"
       id="path595"
       style="stroke-width:0.352778" />
    <g
       clip-path="url(#clip-9-6)"
       id="g709"
       transform="matrix(0.30406799,0,0,0.30406799,-40.067982,-41.731136)"
       style="stroke-width:1.1602">
      <g
         clip-path="url(#clip-10-2)"
         id="g707"
         style="stroke-width:1.1602">
        <g
           clip-path="url(#clip-11-8)"
           id="g705"
           style="stroke-width:1.1602">
          <path
             fill-rule="nonzero"
             fill="#ffffff"
             fill-opacity="1"
             d="M 253.70703,355.32031 481.79297,127.23438 310.72656,-43.828125 82.644531,184.25781 Z m 0,0"
             id="path703"
             style="stroke-width:1.43959" />
        </g>
      </g>
    </g>
    <g
       clip-path="url(#clip-12-7)"
       id="g717"
       transform="matrix(0.30406799,0,0,0.30406799,-40.067982,-41.731136)"
       style="stroke-width:1.1602">
      <g
         clip-path="url(#clip-13-7)"
         id="g715"
         style="stroke-width:1.1602">
        <g
           clip-path="url(#clip-14-4)"
           id="g713"
           style="stroke-width:1.1602">
          <path
             fill-rule="nonzero"
             fill="#000000"
             fill-opacity="1"
             d="m 271.60156,153.89062 v 3.71094 h 2.52735 v -3.71094 z m 2.92969,0 v 3.71094 h 2.53125 v -3.71094 z m 2.93359,0 v 3.71094 h 2.53125 v -3.71094 z m 3.05469,-2.72656 0.67188,1.50391 h -0.67188 v 6.46484 h 0.89844 l -0.004,0.96485 c -1.04297,0.19921 -1.875,0.76953 -2.1914,1.5 h 1.97265 l 0.58985,1.49218 v 1.31641 h 0.86328 v -1.31641 l 0.59375,-1.49218 h 1.96875 c -0.3125,-0.73047 -1.14453,-1.30079 -2.19141,-1.5 v -0.96485 h 0.89844 l -0.004,-6.46484 h -0.67187 l 0.67578,-1.50391 z m 3.91797,2.72656 v 3.71094 h 2.53125 v -3.71094 z m 2.93359,0 v 3.71094 h 2.53125 v -3.71094 z m -5.91015,7.70704 h 1.51562 l -0.49609,1.24218 h -0.52344 z m 8.84375,-7.70704 v 3.71094 h 2.53125 v -3.71094 z m 0,0"
             id="path711"
             style="stroke-width:1.43959" />
        </g>
      </g>
    </g>
    <path
       fill-rule="nonzero"
       fill="#bfbfbf"
       fill-opacity="1"
       stroke-width="0.126524"
       stroke-linecap="butt"
       stroke-linejoin="miter"
       stroke="#bfbfbf"
       stroke-opacity="1"
       stroke-miterlimit="10"
       d="m 68.247928,37.37168 4.654853,-4.653666 4.653665,4.653666 h -9.308518"
       id="path719" />
    <path
       fill-rule="nonzero"
       fill="#bfbfbf"
       fill-opacity="1"
       stroke-width="0.126524"
       stroke-linecap="butt"
       stroke-linejoin="miter"
       stroke="#bfbfbf"
       stroke-opacity="1"
       stroke-miterlimit="10"
       d="m 23.254179,37.37168 -4.653666,-4.653666 -4.654852,4.653666 h 9.308518"
       id="path721" />
    <path
       fill="none"
       stroke-width="0.126524"
       stroke-linecap="butt"
       stroke-linejoin="miter"
       stroke="#000000"
       stroke-opacity="1"
       stroke-dasharray="2.98883, 2.98883"
       stroke-miterlimit="10"
       d="M 26.35781,24.960715 45.751647,5.5668793 65.144295,24.960715"
       id="path723"
       style="stroke-width:0.1;stroke-dasharray:2.36227, 2.36227;stroke-dashoffset:0" />
    <path
       fill="none"
       stroke-width="0.253051"
       stroke-linecap="butt"
       stroke-linejoin="miter"
       stroke="#000000"
       stroke-opacity="1"
       stroke-miterlimit="10"
       d="m 68.247928,37.37168 4.654853,-4.653666 4.653665,4.653666"
       id="path725" />
    <path
       fill="none"
       stroke-width="0.253051"
       stroke-linecap="butt"
       stroke-linejoin="miter"
       stroke="#000000"
       stroke-opacity="1"
       stroke-miterlimit="10"
       d="M 23.254179,37.37168 18.600513,32.718014 13.945661,37.37168"
       id="path727" />
    <path
       fill="none"
       stroke-width="0.126524"
       stroke-linecap="butt"
       stroke-linejoin="miter"
       stroke="#000000"
       stroke-opacity="1"
       stroke-miterlimit="10"
       d="m 6.9639739,37.37168 0.136595,-0.272001 0.273186,0.545186 0.273184,-0.545186 0.2731883,0.545186 0.273185,-0.545186 0.2719997,0.545186 0.273186,-0.545186 0.2731837,0.545186 0.273188,-0.545186 0.2731847,0.545186 0.273185,-0.545186 0.2731877,0.545186 0.273184,-0.545186 0.273188,0.545186 0.271998,-0.545186 0.273185,0.545186 0.273188,-0.545186 0.273185,0.545186 0.273187,-0.545186 0.273185,0.545186 0.273185,-0.545186 0.273188,0.545186 0.273185,-0.545186 0.271998,0.545186 0.273187,-0.545186 0.273185,0.545186 0.273188,-0.545186 0.273185,0.545186 0.273185,-0.545186 0.273187,0.545186 0.273185,-0.545186 0.273189,0.545186 0.271997,-0.545186 0.273185,0.545186 0.273187,-0.545186 0.273186,0.545186 0.273184,-0.545186 0.273188,0.545186 0.273185,-0.545186 0.273188,0.545186 0.271998,-0.545186 0.273184,0.545186 0.273187,-0.545186 0.273187,0.545186 0.273186,-0.545186 0.273186,0.545186 0.273185,-0.545186 0.273187,0.545186 0.273187,-0.545186 0.271997,0.545186 0.273186,-0.545186 0.273186,0.545186 0.273187,-0.545186 0.273186,0.545186 0.273185,-0.545186 0.273187,0.545186 0.273187,-0.545186 0.273185,0.545186 0.271998,-0.545186 0.273186,0.545186 0.273187,-0.545186 0.273185,0.545186 0.273187,-0.545186 0.273186,0.545186 0.273186,-0.545186 0.273186,0.545186 0.273187,-0.545186 0.271997,0.545186 0.273187,-0.545186 0.273185,0.545186 0.273187,-0.545186 0.273185,0.545186 0.273187,-0.545186 0.273186,0.545186 0.273186,-0.545186 0.271999,0.545186 0.273185,-0.545186 0.273186,0.545186 0.273187,-0.545186 0.273186,0.545186 0.273186,-0.545186 0.273185,0.545186 0.273187,-0.545186 0.273187,0.545186 0.271997,-0.545186 0.273186,0.545186 0.273186,-0.545186 0.273187,0.545186 0.273186,-0.545186 0.273185,0.545186 0.273187,-0.545186 0.273187,0.545186 0.273185,-0.545186 0.271997,0.545186 0.273187,-0.545186 0.273187,0.545186 0.273185,-0.545186 0.273187,0.545186 0.273186,-0.545186 0.273186,0.545186 0.273186,-0.545186 0.271998,0.545186 0.273186,-0.545186 0.273187,0.545186 0.273185,-0.545186 0.273187,0.545186 0.273185,-0.545186 0.273187,0.545186 0.273186,-0.545186 0.273186,0.545186 0.271999,-0.545186 0.273185,0.545186 0.273186,-0.545186 0.273187,0.545186 0.273186,-0.545186 0.273186,0.545186 0.273185,-0.545186 0.273187,0.545186 0.273187,-0.545186 0.271997,0.545186 0.273187,-0.545186 0.273185,0.545186 0.273187,-0.545186 0.273186,0.545186 0.273185,-0.545186 0.273187,0.545186 0.273186,-0.545186 0.273186,0.545186 0.271999,-0.545186 0.273185,0.545186 0.273187,-0.545186 0.273185,0.545186 0.273187,-0.545186 0.273186,0.545186 0.273186,-0.545186 0.273186,0.545186 0.271998,-0.545186 0.273186,0.545186 0.273187,-0.545186 0.273186,0.545186 0.273186,-0.545186 0.273185,0.545186 0.273187,-0.545186 0.273186,0.545186 0.273186,-0.545186 0.271999,0.545186 0.273185,-0.545186 0.273187,0.545186 0.273186,-0.545186 0.273186,0.545186 0.273186,-0.545186 0.273185,0.545186 0.273187,-0.545186 0.273187,0.545186 0.271997,-0.545186 0.273187,0.545186 0.273185,-0.545186 0.273187,0.545186 0.273186,-0.545186 0.273185,0.545186 0.273187,-0.545186 0.273186,0.545186 0.273186,-0.545186 0.271999,0.545186 0.273185,-0.545186 0.273187,0.545186 0.273186,-0.545186 0.273186,0.545186 0.273186,-0.545186 0.273186,0.545186 0.273186,-0.545186 0.271998,0.545186 0.273186,-0.545186 0.273187,0.545186 0.273186,-0.545186 0.273186,0.545186 0.273185,-0.545186 0.273187,0.545186 0.273186,-0.545186 0.273186,0.545186 0.271999,-0.545186 0.273185,0.545186 0.273187,-0.545186 0.273186,0.545186 0.273185,-0.545186 0.273187,0.545186 0.273185,-0.545186 0.273187,0.545186 0.273187,-0.545186 0.271997,0.545186 0.273187,-0.545186 0.273185,0.545186 0.273187,-0.545186 0.273186,0.545186 0.273185,-0.545186 0.273187,0.545186 0.273186,-0.545186 0.271998,0.545186 0.273186,-0.545186 0.273186,0.545186 0.273187,-0.545186 0.273186,0.545186 0.273186,-0.545186 0.273186,0.545186 0.273186,-0.545186 0.273186,0.545186 0.271998,-0.545186 0.273186,0.545186 0.273186,-0.545186 0.273187,0.545186 0.273186,-0.545186 0.273185,0.545186 0.273187,-0.545186 0.273186,0.545186 0.273186,-0.545186 0.271999,0.545186 0.273185,-0.545186 0.273187,0.545186 0.273185,-0.545186 0.273186,0.545186 0.273187,-0.545186 0.273185,0.545186 0.273187,-0.545186 0.273187,0.545186 0.271997,-0.545186 0.273187,0.545186 0.273185,-0.545186 0.273187,0.545186 0.273186,-0.545186 0.273185,0.545186 0.273187,-0.545186 0.273186,0.545186 0.271998,-0.545186 0.273186,0.545186 0.273186,-0.545186 0.273187,0.545186 0.273186,-0.545186 0.273185,0.545186 0.273187,-0.545186 0.273186,0.545186 0.273186,-0.545186 0.271998,0.545186 0.273187,-0.545186 0.273184,0.545186 0.273188,-0.545186 0.273185,0.545186 0.273185,-0.545186 0.273189,0.545186 0.273185,-0.545186 0.273187,0.545186 0.271997,-0.545186 0.273185,0.545186 0.273188,-0.545186 0.273184,0.545186 0.273189,-0.545186 0.273186,0.545186 0.273184,-0.545186 0.273188,0.545186 0.273185,-0.545186 0.271997,0.545186 0.273188,-0.545186 0.273184,0.545186 0.273189,-0.545186 0.273184,0.545186 0.273186,-0.545186 0.273188,0.545186 0.273184,-0.545186 0.272001,0.545186 0.273184,-0.545186 0.273186,0.545186 0.273188,-0.545186 0.273184,0.545186 0.273186,-0.545186 0.273188,0.545186 0.273184,-0.545186 0.273188,0.545186 0.271997,-0.545186 0.273186,0.545186 0.273187,-0.545186 0.273185,0.545186 0.273188,-0.545186 0.273185,0.545186 0.27318,-0.545186 0.27319,0.545186 0.1366,-0.273185 h 0.0273"
       id="path729" />
    <path
       fill="none"
       stroke-width="0.126524"
       stroke-linecap="butt"
       stroke-linejoin="miter"
       stroke="#000000"
       stroke-opacity="1"
       stroke-miterlimit="10"
       d="M 6.9639739,32.718014 H 84.538129"
       id="path765" />
    <path
       fill="none"
       stroke-width="0.126524"
       stroke-linecap="butt"
       stroke-linejoin="miter"
       stroke="#000000"
       stroke-opacity="1"
       stroke-miterlimit="10"
       d="M 49.629701,5.5668793 H 84.538129"
       id="path809" />
    <path
       fill="none"
       stroke-width="0.126524"
       stroke-linecap="butt"
       stroke-linejoin="miter"
       stroke="#000000"
       stroke-opacity="1"
       stroke-miterlimit="10"
       d="M 41.872405,5.5668793 H 6.9639739"
       id="path811" />
    <path
       fill="none"
       stroke-width="0.253051"
       stroke-linecap="butt"
       stroke-linejoin="miter"
       stroke="#7f7f7f"
       stroke-opacity="1"
       stroke-miterlimit="10"
       d="m 18.600513,32.718014 c 0.144907,-0.14491 0.07246,-0.36227 0.216174,-0.505988 0.105709,-0.105709 0.26606,-0.124716 0.434722,-0.144909 0.167474,-0.02019 0.329012,-0.04038 0.433534,-0.144908 0.104521,-0.104521 0.123527,-0.264871 0.144908,-0.433533 0.02019,-0.168663 0.0392,-0.329012 0.143719,-0.433534 0.104521,-0.104522 0.266059,-0.124716 0.433534,-0.144909 0.168663,-0.02019 0.329012,-0.04038 0.434723,-0.144907 0.104521,-0.104521 0.123527,-0.264871 0.143719,-0.433534 0.02019,-0.168663 0.04038,-0.329012 0.144908,-0.433534 0.104521,-0.104522 0.26606,-0.124715 0.433534,-0.144909 0.168664,-0.02019 0.329011,-0.0392 0.433535,-0.144907 0.105708,-0.104521 0.124715,-0.264871 0.144907,-0.433533 0.02019,-0.167476 0.04038,-0.329012 0.144908,-0.433534 0.104521,-0.104522 0.264871,-0.124716 0.433534,-0.144909 0.168662,-0.02019 0.329011,-0.0392 0.433534,-0.143719 0.104521,-0.105709 0.124715,-0.266059 0.144907,-0.434722 0.02019,-0.167475 0.04038,-0.329012 0.144909,-0.433534 0.104521,-0.104522 0.26487,-0.124716 0.433535,-0.144909 0.168662,-0.02019 0.329009,-0.0392 0.433534,-0.143718 0.104521,-0.104522 0.124714,-0.26606 0.144906,-0.433535 0.02019,-0.168663 0.04038,-0.330199 0.144908,-0.434721 0.14372,-0.143722 0.361081,-0.07246 0.505988,-0.216174 l 0.361081,-0.36227"
       id="path845" />
    <path
       fill-rule="nonzero"
       fill="#7f7f7f"
       fill-opacity="1"
       d="m 25.969411,25.347927 -1.20202,0.401465 0.700783,0.09977 0.10096,0.701968"
       id="path847"
       style="stroke-width:0.352778" />
    <path
       fill="none"
       stroke-width="0.253051"
       stroke-linecap="butt"
       stroke-linejoin="miter"
       stroke="#7f7f7f"
       stroke-opacity="1"
       stroke-miterlimit="10"
       d="m 72.902781,32.718014 c -0.144908,-0.14491 -0.362269,-0.07246 -0.507177,-0.217361 -0.104521,-0.104522 -0.123527,-0.264874 -0.143719,-0.433536 -0.02019,-0.168661 -0.04038,-0.32901 -0.144907,-0.433534 -0.104522,-0.104522 -0.26606,-0.124716 -0.433535,-0.144907 -0.168662,-0.02019 -0.329011,-0.04038 -0.433534,-0.14491 -0.105709,-0.104521 -0.124716,-0.264871 -0.144908,-0.433533 -0.02019,-0.168663 -0.04038,-0.32901 -0.144906,-0.433535 -0.104522,-0.104521 -0.264873,-0.124715 -0.433535,-0.144906 -0.168663,-0.02019 -0.329012,-0.04038 -0.433534,-0.144906 -0.104522,-0.104522 -0.124716,-0.264874 -0.144908,-0.433537 -0.02019,-0.168663 -0.04038,-0.329009 -0.144909,-0.433535 -0.104521,-0.104521 -0.26487,-0.124714 -0.433533,-0.144905 -0.168663,-0.02019 -0.329011,-0.0392 -0.433535,-0.14491 -0.104522,-0.104521 -0.124715,-0.264871 -0.144907,-0.433533 -0.02019,-0.167476 -0.03919,-0.32901 -0.144908,-0.433535 -0.104521,-0.104521 -0.264871,-0.124715 -0.433534,-0.144906 -0.167475,-0.02019 -0.329011,-0.0392 -0.433533,-0.143721 -0.104522,-0.105709 -0.124716,-0.266059 -0.144908,-0.434722 -0.02019,-0.167475 -0.0392,-0.329012 -0.14372,-0.433535 -0.105709,-0.104521 -0.26606,-0.123527 -0.434723,-0.143718 -0.167474,-0.02138 -0.32901,-0.04038 -0.433534,-0.144908 -0.144907,-0.144907 -0.07246,-0.362268 -0.216174,-0.505987 l -0.362267,-0.36227"
       id="path849" />
    <path
       fill-rule="nonzero"
       fill="#7f7f7f"
       fill-opacity="1"
       d="m 65.532695,25.347927 0.401466,1.203206 0.09977,-0.701967 0.701968,-0.09977"
       id="path851"
       style="stroke-width:0.352778" />
    <text
       xml:space="preserve"
       style="font-size:3.175px;fill:#000000;stroke-width:0.1;stroke-miterlimit:9.7;stroke-dasharray:2.36226, 2.36226;stroke-dashoffset:0"
       x="86.27742"
       y="6.3903847"
       id="text21700"><tspan
         sodipodi:role="line"
         id="tspan21698"
         style="fill:#000000;stroke-width:0.1"
         x="86.27742"
         y="6.3903847">\small hoy</tspan></text>
    <text
       xml:space="preserve"
       style="font-size:3.175px;fill:#000000;stroke-width:0.1;stroke-miterlimit:9.7;stroke-dasharray:2.36226, 2.36226;stroke-dashoffset:0"
       x="86.27742"
       y="33.541519"
       id="text21700-1"><tspan
         sodipodi:role="line"
         id="tspan21698-8"
         style="fill:#000000;stroke-width:0.1"
         x="86.27742"
         y="33.541519">\small recombinación</tspan></text>
    <text
       xml:space="preserve"
       style="font-size:3.175px;fill:#000000;stroke-width:0.1;stroke-miterlimit:9.7;stroke-dasharray:2.36226, 2.36226;stroke-dashoffset:0"
       x="86.27742"
       y="38.233337"
       id="text21700-1-8"><tspan
         sodipodi:role="line"
         id="tspan21698-8-1"
         style="fill:#000000;stroke-width:0.1"
         x="86.27742"
         y="38.233337">\small singularidad</tspan></text>
    <text
       xml:space="preserve"
       style="font-size:3.175px;text-align:center;text-anchor:middle;fill:#bfbfbf;fill-opacity:1;stroke-width:0.1;stroke-miterlimit:9.7;stroke-dasharray:2.36226, 2.36226;stroke-dashoffset:0"
       x="45.236065"
       y="91.020203"
       id="text22144"><tspan
         sodipodi:role="line"
         style="text-align:center;text-anchor:middle;fill:#bfbfbf;fill-opacity:1;stroke-width:0.1"
         x="45.236065"
         y="91.020203"
         id="tspan22146">\small superficie de</tspan></text>
    <text
       xml:space="preserve"
       style="font-size:3.175px;text-align:center;text-anchor:middle;fill:#bfbfbf;fill-opacity:1;stroke-width:0.1;stroke-miterlimit:9.7;stroke-dasharray:2.36226, 2.36226;stroke-dashoffset:0"
       x="45.364422"
       y="94.618828"
       id="text22722"><tspan
         sodipodi:role="line"
         id="tspan22720"
         style="fill:#bfbfbf;fill-opacity:1;stroke-width:0.1"
         x="45.364422"
         y="94.618828">\small última dispersión</tspan></text>
    <text
       xml:space="preserve"
       style="font-size:3.175px;text-align:center;text-anchor:middle;fill:#000000;stroke-width:0.1;stroke-miterlimit:9.7;stroke-dasharray:2.36226, 2.36226;stroke-dashoffset:0"
       x="75.134903"
       y="77.139038"
       id="text24160"><tspan
         sodipodi:role="line"
         id="tspan24158"
         style="fill:#000000;stroke-width:0.1"
         x="75.134903"
         y="77.139038">\(p\)</tspan></text>
    <text
       xml:space="preserve"
       style="font-size:3.175px;text-align:center;text-anchor:middle;fill:#000000;stroke-width:0.1;stroke-miterlimit:9.7;stroke-dasharray:2.36226, 2.36226;stroke-dashoffset:0"
       x="75.540169"
       y="30.861256"
       id="text24160-3"><tspan
         sodipodi:role="line"
         id="tspan24158-7"
         style="fill:#000000;stroke-width:0.1"
         x="75.540169"
         y="30.861256">\(p\)</tspan></text>
    <text
       xml:space="preserve"
       style="font-size:3.175px;text-align:center;text-anchor:middle;fill:#000000;stroke-width:0.1;stroke-miterlimit:9.7;stroke-dasharray:2.36226, 2.36226;stroke-dashoffset:0"
       x="16.785887"
       y="30.861376"
       id="text24160-3-0"><tspan
         sodipodi:role="line"
         id="tspan24158-7-4"
         style="fill:#000000;stroke-width:0.1"
         x="16.785887"
         y="30.861376">\(q\)</tspan></text>
    <text
       xml:space="preserve"
       style="font-size:3.175px;text-align:center;text-anchor:middle;fill:#000000;stroke-width:0.1;stroke-miterlimit:9.7;stroke-dasharray:2.36226, 2.36226;stroke-dashoffset:0"
       x="15.880763"
       y="77.139038"
       id="text24160-7"><tspan
         sodipodi:role="line"
         id="tspan24158-8"
         style="fill:#000000;stroke-width:0.1"
         x="15.880763"
         y="77.139038">\(q\)</tspan></text>
    <text
       xml:space="preserve"
       style="font-size:3.175px;text-align:center;text-anchor:middle;fill:#000000;stroke-width:0.1;stroke-miterlimit:9.7;stroke-dasharray:2.36226, 2.36226;stroke-dashoffset:0"
       x="59.328461"
       y="75.08989"
       id="text24557"><tspan
         sodipodi:role="line"
         id="tspan24555"
         style="stroke-width:0.1"
         x="59.328461"
         y="75.08989">\small 2°</tspan></text>
    <path
       sodipodi:type="star"
       style="fill:none;stroke:#000000;stroke-width:0.0453149;stroke-miterlimit:9.7;stroke-dasharray:none;stroke-dashoffset:2.19213;stroke-opacity:1"
       id="path13534"
       inkscape:flatsided="false"
       sodipodi:sides="235"
       sodipodi:cx="45.751644"
       sodipodi:cy="76.164459"
       sodipodi:r1="7.4020004"
       sodipodi:r2="7.2539606"
       sodipodi:arg1="0.78539816"
       sodipodi:arg2="0.79876664"
       inkscape:rounded="0"
       inkscape:randomized="0"
       d="m 50.985649,81.398464 -0.173708,-0.03657 0.03191,0.174623 -0.172667,-0.0412 0.02723,0.175414 -0.171505,-0.0458 0.02253,0.176079 -0.170219,-0.05037 0.01782,0.176619 -0.168812,-0.0549 0.01309,0.177032 -0.167284,-0.0594 0.0084,0.177319 -0.165636,-0.06385 0.0036,0.177478 -0.16387,-0.06825 -0.0011,0.177511 -0.161986,-0.07261 -0.0059,0.177417 -0.159988,-0.07691 -0.01062,0.177197 -0.157874,-0.08116 -0.01536,0.17685 -0.155648,-0.08536 -0.02008,0.176376 -0.15331,-0.08948 -0.02479,0.175776 -0.150863,-0.09355 -0.02948,0.17505 -0.148308,-0.09755 -0.03415,0.1742 -0.145648,-0.101481 -0.03879,0.173225 -0.142883,-0.105338 -0.04341,0.172126 -0.140015,-0.10912 -0.04799,0.170903 -0.137049,-0.112824 -0.05255,0.16956 -0.133983,-0.116448 -0.05706,0.168094 -0.130822,-0.119988 -0.06153,0.166509 -0.127568,-0.123443 -0.06596,0.164804 -0.124222,-0.126809 -0.07034,0.162982 -0.120787,-0.130084 -0.07468,0.161043 -0.117266,-0.133268 -0.07896,0.15899 -0.113662,-0.136355 -0.08318,0.156822 -0.109976,-0.139345 -0.08734,0.154542 -0.106211,-0.142235 -0.09144,0.152152 -0.102371,-0.145023 -0.09548,0.149653 -0.09846,-0.147709 -0.09944,0.147047 -0.09447,-0.150287 -0.103339,0.144335 -0.09042,-0.152759 -0.10716,0.141522 -0.08631,-0.155123 -0.110905,0.138607 -0.08213,-0.157375 -0.114571,0.135592 -0.07789,-0.159513 -0.118155,0.13248 -0.0736,-0.161539 -0.121654,0.129275 -0.06925,-0.163449 -0.125067,0.125976 -0.06486,-0.165241 -0.12839,0.122587 -0.06042,-0.166917 -0.131621,0.119112 -0.05593,-0.168472 -0.134759,0.115549 -0.05141,-0.169907 -0.137799,0.111906 -0.04685,-0.171221 -0.140742,0.108182 -0.04226,-0.172412 -0.143583,0.104381 -0.03763,-0.17348 -0.146323,0.100505 -0.03298,-0.174424 -0.148958,0.09656 -0.02831,-0.175244 -0.151485,0.09254 -0.02361,-0.175938 -0.153905,0.08846 -0.0189,-0.176506 -0.156215,0.08431 -0.01417,-0.176949 -0.158413,0.08011 -0.0094,-0.177264 -0.160499,0.07584 -0.0047,-0.177453 -0.162468,0.07152 5e-5,-0.177515 -0.164322,0.06716 0.0048,-0.17745 -0.166059,0.06274 0.0095,-0.177259 -0.167677,0.05828 0.01427,-0.176941 -0.169175,0.05377 0.019,-0.176495 -0.170552,0.04923 0.02371,-0.175924 -0.171807,0.04465 0.0284,-0.175228 -0.172939,0.04004 0.03308,-0.174406 -0.173948,0.03541 0.03773,-0.173459 -0.174833,0.03074 0.04235,-0.172389 -0.175592,0.02606 0.04695,-0.171195 -0.176226,0.02136 0.05151,-0.169879 -0.176734,0.01664 0.05603,-0.168441 -0.177115,0.01191 0.06051,-0.166883 -0.177371,0.0072 0.06495,-0.165205 -0.177499,0.0024 0.06935,-0.16341 -0.1775,-0.0023 0.07369,-0.161498 -0.177374,-0.0071 0.07798,-0.15947 -0.177121,-0.01181 0.08221,-0.157328 -0.176743,-0.01654 0.08639,-0.155074 -0.176238,-0.02126 0.09051,-0.152709 -0.175607,-0.02596 0.09456,-0.150235 -0.17485,-0.03065 0.09854,-0.147653 -0.173968,-0.03531 0.102452,-0.144966 -0.172961,-0.03995 0.106291,-0.142176 -0.171832,-0.04456 0.110053,-0.139283 -0.170579,-0.04914 0.113738,-0.136291 -0.169204,-0.05368 0.117341,-0.133201 -0.16771,-0.05818 0.12086,-0.130017 -0.166094,-0.06264 0.124293,-0.12674 -0.16436,-0.06706 0.127637,-0.123371 -0.162508,-0.07143 0.130889,-0.119916 -0.160541,-0.07575 0.134049,-0.116373 -0.158458,-0.08002 0.137111,-0.112748 -0.156262,-0.08422 0.140076,-0.109042 -0.153954,-0.08837 0.142941,-0.105258 -0.151537,-0.09246 0.145704,-0.101399 -0.149011,-0.09647 0.148363,-0.09747 -0.146379,-0.100424 0.150916,-0.09347 -0.143642,-0.104301 0.153361,-0.0894 -0.140803,-0.108103 0.155696,-0.08527 -0.137862,-0.111829 0.15792,-0.08107 -0.134823,-0.115475 0.16003,-0.07682 -0.131687,-0.119038 0.162027,-0.07252 -0.128459,-0.122516 0.163908,-0.06816 -0.125137,-0.125906 0.165672,-0.06375 -0.121727,-0.129206 0.167317,-0.0593 -0.118229,-0.132414 0.168842,-0.05481 -0.114646,-0.135528 0.170247,-0.05027 -0.110983,-0.138544 0.171531,-0.04571 -0.107239,-0.141461 0.17269,-0.0411 -0.103418,-0.144278 0.173728,-0.03647 -0.09952,-0.146991 0.174641,-0.03181 -0.09556,-0.1496 0.175429,-0.02713 -0.09153,-0.152101 0.176092,-0.02243 -0.08743,-0.154493 0.176628,-0.01772 -0.08327,-0.156776 0.17704,-0.01299 -0.07905,-0.158945 0.177323,-0.0083 -0.07477,-0.161001 0.17748,-0.0035 -0.07044,-0.162943 0.17751,0.0012 -0.06605,-0.164768 0.177414,0.006 -0.06163,-0.166474 0.177191,0.01072 -0.05715,-0.168062 0.176841,0.01545 -0.05264,-0.169531 0.176364,0.02018 -0.04809,-0.170877 0.175762,0.02488 -0.04351,-0.172102 0.175034,0.02957 -0.03889,-0.173203 0.17418,0.03424 -0.03424,-0.174181 0.173203,0.03889 -0.02958,-0.175034 0.172102,0.0435 -0.02489,-0.175762 0.170877,0.04809 -0.02018,-0.176365 0.169531,0.05264 -0.01546,-0.176841 0.168063,0.05715 -0.01072,-0.177191 0.166474,0.06163 -0.006,-0.177415 0.164768,0.06606 -0.0012,-0.17751 0.162943,0.07044 0.0035,-0.17748 0.161001,0.07477 0.0083,-0.177323 0.158946,0.07904 0.01299,-0.177039 0.156775,0.08326 0.01772,-0.176628 0.154493,0.08743 0.02243,-0.176092 0.152101,0.09153 0.02713,-0.175429 0.1496,0.09556 0.03181,-0.174641 0.146991,0.09952 0.03647,-0.173728 0.144278,0.103419 0.0411,-0.172691 0.141462,0.107239 0.0457,-0.171531 0.138545,0.110983 0.05027,-0.170247 0.135528,0.114646 0.05481,-0.168842 0.132414,0.118229 0.0593,-0.167317 0.129207,0.121727 0.06375,-0.165672 0.125906,0.125137 0.06816,-0.163908 0.122515,0.128459 0.07252,-0.162027 0.119038,0.131687 0.07682,-0.16003 0.115475,0.134823 0.08107,-0.15792 0.111829,0.137862 0.08527,-0.155695 0.108103,0.140802 0.0894,-0.153361 0.104301,0.143642 0.09347,-0.150916 0.100424,0.146379 0.09747,-0.148363 0.09648,0.149011 0.101399,-0.145704 0.09246,0.151537 0.105258,-0.142941 0.08837,0.153954 0.109042,-0.140076 0.08422,0.156262 0.112748,-0.137111 0.08002,0.158458 0.116373,-0.134048 0.07575,0.16054 0.119915,-0.130889 0.07143,0.162508 0.123371,-0.127637 0.06706,0.16436 0.12674,-0.124292 0.06265,0.166093 0.130017,-0.12086 0.05818,0.16771 0.133202,-0.117341 0.05368,0.169204 0.136291,-0.113738 0.04914,0.17058 0.139283,-0.110054 0.04456,0.171832 0.142176,-0.106291 0.03995,0.172961 0.144966,-0.102452 0.03531,0.173968 0.147653,-0.09854 0.03065,0.17485 0.150235,-0.09456 0.02596,0.175607 0.152709,-0.09051 0.02126,0.176238 0.155074,-0.08639 0.01654,0.176743 0.157329,-0.08222 0.01181,0.177122 0.15947,-0.07798 0.0071,0.177374 0.161498,-0.07369 0.0023,0.1775 0.16341,-0.06935 -0.0024,0.177499 0.165205,-0.06495 -0.0072,0.177371 0.166883,-0.06051 -0.01191,0.177115 0.168441,-0.05603 -0.01664,0.176734 0.169879,-0.05151 -0.02136,0.176226 0.171195,-0.04695 -0.02606,0.175592 0.172389,-0.04235 -0.03074,0.174833 0.173459,-0.03773 -0.03541,0.173948 0.174406,-0.03308 -0.04004,0.172939 0.175228,-0.0284 -0.04465,0.171807 0.175924,-0.02371 -0.04923,0.170552 0.176496,-0.019 -0.05377,0.169175 0.176941,-0.01427 -0.05828,0.167677 0.177259,-0.0095 -0.06274,0.166059 0.17745,-0.0048 -0.06715,0.164322 0.177515,-5e-5 -0.07152,0.162469 0.177453,0.0047 -0.07584,0.160498 0.177263,0.0094 -0.08011,0.158413 0.176948,0.01417 -0.08431,0.156215 0.176506,0.0189 -0.08846,0.153906 0.175938,0.02361 -0.09254,0.151485 0.175244,0.02831 -0.09656,0.148958 0.174425,0.03298 -0.100505,0.146323 0.17348,0.03763 -0.104381,0.143583 0.172412,0.04226 -0.108182,0.140742 0.171221,0.04685 -0.111906,0.137799 0.169907,0.05141 -0.11555,0.134759 0.168473,0.05593 -0.119112,0.131621 0.166917,0.06042 -0.122588,0.12839 0.165242,0.06486 -0.125976,0.125067 0.163449,0.06925 -0.129275,0.121654 0.161539,0.0736 -0.13248,0.118155 0.159513,0.07789 -0.135592,0.114571 0.157374,0.08213 -0.138606,0.110905 0.155122,0.08631 -0.141521,0.10716 0.152759,0.09042 -0.144336,0.103338 0.150288,0.09447 -0.147047,0.09944 0.147709,0.09846 -0.149653,0.09548 0.145023,0.102371 -0.152152,0.09144 0.142235,0.106211 -0.154542,0.08734 0.139345,0.109976 -0.156822,0.08318 0.136355,0.113662 -0.15899,0.07896 0.133268,0.117266 -0.161044,0.07468 0.130085,0.120787 -0.162982,0.07034 0.126809,0.124222 -0.164804,0.06596 0.123443,0.127568 -0.166509,0.06153 0.119988,0.130822 -0.168094,0.05706 0.116448,0.133983 -0.16956,0.05255 0.112824,0.137049 -0.170904,0.04799 0.109121,0.140015 -0.172126,0.04341 0.105338,0.142883 -0.173225,0.03879 0.101481,0.145648 -0.1742,0.03415 0.09755,0.148309 -0.17505,0.02948 0.09355,0.150863 -0.175776,0.02479 0.08948,0.15331 -0.176376,0.02008 0.08535,0.155648 -0.176849,0.01536 0.08116,0.157874 -0.177197,0.01062 0.07691,0.159988 -0.177417,0.0059 0.07261,0.161987 -0.177511,0.0011 0.06825,0.16387 -0.177478,-0.0036 0.06385,0.165636 -0.177319,-0.0084 0.0594,0.167284 -0.177032,-0.01309 0.0549,0.168812 -0.176619,-0.01782 0.05037,0.170219 -0.176079,-0.02253 0.0458,0.171505 -0.175414,-0.02723 0.0412,0.172668 -0.174623,-0.03191 z"
       inkscape:transform-center-x="-78.749522"
       inkscape:transform-center-y="-8.1531457"
       transform="matrix(4.4135616,0,0,4.4135616,-156.1759,-259.99198)" />
    <path
       style="fill:none;stroke:#bfbfbf;stroke-width:0.4;stroke-miterlimit:9.7;stroke-dasharray:none;stroke-dashoffset:2.19213;stroke-opacity:1;marker-end:url(#TriangleStart)"
       d="m 45.751644,103.36917 -5.3e-4,-5.891089"
       id="path1841" />
    <path
       style="fill:none;fill-opacity:1;stroke:#000000;stroke-width:0.2;stroke-miterlimit:9.7;stroke-dashoffset:2.19213;stroke-opacity:1;marker-end:url(#TriangleStart)"
       d="m 73.66782,56.650328 c 0,0 5.463511,-4.567851 12.852683,-1.164354"
       id="path5930" />
    <text
       xml:space="preserve"
       style="font-size:3.175px;text-align:center;text-anchor:middle;fill:#000000;fill-opacity:1;stroke:none;stroke-width:0.2;stroke-miterlimit:9.7;stroke-dashoffset:2.19213;stroke-opacity:1"
       x="96.661537"
       y="56.605549"
       id="text7910"><tspan
         sodipodi:role="line"
         style="fill:#000000;fill-opacity:1;stroke:none;stroke-width:0.2"
         x="96.661537"
         y="56.605549"
         id="tspan8297">\small horizonte</tspan></text>
    <text
       xml:space="preserve"
       style="font-size:3.175px;text-align:center;text-anchor:middle;fill:#000000;fill-opacity:1;stroke:none;stroke-width:0.2;stroke-miterlimit:9.7;stroke-dashoffset:2.19213;stroke-opacity:1"
       x="96.437614"
       y="59.687336"
       id="text8301"><tspan
         sodipodi:role="line"
         id="tspan8299"
         style="stroke-width:0.2"
         x="96.437614"
         y="59.687336">\small de partículas</tspan></text>
  </g>
</svg>
