<?xml version="1.0" encoding="UTF-8" standalone="no"?>
<!-- Created with Inkscape (http://www.inkscape.org/) -->

<svg
   width="108mm"
   height="85mm"
   viewBox="0 0 108 85"
   version="1.1"
   id="svg4699"
   inkscape:version="1.2.1 (9c6d41e410, 2022-07-14)"
   sodipodi:docname="potential.svg"
   xmlns:inkscape="http://www.inkscape.org/namespaces/inkscape"
   xmlns:sodipodi="http://sodipodi.sourceforge.net/DTD/sodipodi-0.dtd"
   xmlns="http://www.w3.org/2000/svg"
   xmlns:svg="http://www.w3.org/2000/svg">
  <sodipodi:namedview
     id="namedview4701"
     pagecolor="#ffffff"
     bordercolor="#000000"
     borderopacity="1"
     inkscape:showpageshadow="0"
     inkscape:pageopacity="1"
     inkscape:pagecheckerboard="true"
     inkscape:deskcolor="#505050"
     inkscape:document-units="mm"
     showgrid="false"
     inkscape:zoom="1.9939962"
     inkscape:cx="177.53294"
     inkscape:cy="149.95014"
     inkscape:window-width="1920"
     inkscape:window-height="1009"
     inkscape:window-x="-8"
     inkscape:window-y="-8"
     inkscape:window-maximized="1"
     inkscape:current-layer="g18238" />
  <defs
     id="defs4696">
    <marker
       style="overflow:visible"
       id="marker15106"
       refX="0"
       refY="0"
       orient="auto-start-reverse"
       inkscape:stockid="Arrow4"
       markerWidth="5"
       markerHeight="6"
       viewBox="0 0 5 6"
       inkscape:isstock="true"
       inkscape:collect="always"
       preserveAspectRatio="xMidYMid">
      <path
         style="fill:context-stroke;fill-rule:evenodd;stroke:none"
         d="m 1,0 -3,3 h -2 l 3,-3 -3,-3 h 2 z"
         id="path15104" />
    </marker>
    <marker
       style="overflow:visible"
       id="Arrow4"
       refX="0"
       refY="0"
       orient="auto-start-reverse"
       inkscape:stockid="Arrow4"
       markerWidth="5"
       markerHeight="6"
       viewBox="0 0 5 6"
       inkscape:isstock="true"
       inkscape:collect="always"
       preserveAspectRatio="xMidYMid">
      <path
         style="fill:context-stroke;fill-rule:evenodd;stroke:none"
         d="m 1,0 -3,3 h -2 l 3,-3 -3,-3 h 2 z"
         id="path1741" />
    </marker>
    <clipPath
       id="clip-1">
      <path
         clip-rule="nonzero"
         d="M 177.80469,92 H 346.26953 V 193 H 177.80469 Z m 0,0"
         id="path399" />
    </clipPath>
  </defs>
  <g
     inkscape:label="Capa 1"
     inkscape:groupmode="layer"
     id="layer1">
    <text
       xml:space="preserve"
       style="font-size:3.175px;text-align:center;text-anchor:middle;fill:#0000ff;fill-opacity:1;stroke:none;stroke-width:0.331999;stroke-miterlimit:9.7;stroke-dasharray:none;stroke-dashoffset:2.19213;stroke-opacity:1"
       x="46.574188"
       y="77.623642"
       id="text11805"><tspan
         sodipodi:role="line"
         id="tspan11803"
         style="stroke-width:0.332" /></text>
    <g
       id="g18238"
       transform="matrix(1.0339527,0,0,1.0339527,-0.08494493,-2.6751322)">
      <rect
         style="opacity:0.415686;fill:#0100ff;fill-opacity:1;stroke:none;stroke-width:0.239654;stroke-miterlimit:9.7;stroke-dasharray:none;stroke-dashoffset:2.19213;stroke-opacity:1"
         id="rect15216"
         width="38.000206"
         height="59.053341"
         x="7.9105291"
         y="13.534378" />
      <path
         fill-rule="nonzero"
         fill="#808080"
         fill-opacity="1"
         d="m 29.233961,16.439215 -1.331179,1.015899 0.0042,-1.038566 -6.633223,-0.210186 0.0021,-0.04327 6.631159,0.212247 0.0042,-1.038566"
         id="path458"
         style="stroke-width:0.527526" />
      <path
         fill="none"
         stroke-width="0.232111"
         stroke-linecap="butt"
         stroke-linejoin="miter"
         stroke="#808080"
         stroke-opacity="1"
         stroke-miterlimit="10"
         d="m 29.233957,16.439215 -1.331177,1.015899 0.0041,-1.038566 -6.633222,-0.210187 0.0021,-0.04327 6.631161,0.212247 0.0041,-1.038566 z m 0,0"
         id="path460"
         style="stroke-width:0.332;stroke-dasharray:none" />
      <path
         fill-rule="nonzero"
         fill="#000000"
         fill-opacity="1"
         d="m 101.32568,72.610382 -2.96321,1.059171 V 72.630987 H 8.0113613 v -0.04326 H 98.36247 v -1.036506"
         id="path462"
         style="stroke-width:0.527526" />
      <path
         fill="none"
         stroke-width="0.232111"
         stroke-linecap="butt"
         stroke-linejoin="miter"
         stroke="#000000"
         stroke-opacity="1"
         stroke-miterlimit="10"
         d="m 101.32568,72.610381 -2.96321,1.059172 V 72.630987 H 8.0113633 v -0.04327 H 98.36247 v -1.036505 z m 0,0"
         id="path464"
         style="stroke-width:0.532;stroke-dasharray:none" />
      <path
         fill-rule="nonzero"
         fill="#000000"
         fill-opacity="1"
         d="m 8.0113613,5.8907647 1.102444,2.841632 H 8.0175443 V 72.610382 h -0.0144 V 8.7323967 h -1.096261"
         id="path466"
         style="stroke-width:0.527526" />
      <path
         fill="none"
         stroke-width="0.232111"
         stroke-linecap="butt"
         stroke-linejoin="miter"
         stroke="#000000"
         stroke-opacity="1"
         stroke-miterlimit="10"
         d="m 8.0113623,5.8907647 1.102446,2.841632 H 8.0175443 V 72.610383 h -0.01443 V 8.7323967 h -1.096263 z m 0,0"
         id="path468"
         style="stroke-width:0.532;stroke-dasharray:none" />
      <g
         clip-path="url(#clip-1)"
         id="g482"
         transform="matrix(0.52752553,0,0,0.52752553,-85.785152,-31.637731)">
        <path
           fill="none"
           stroke-width="0.881"
           stroke-linecap="square"
           stroke-linejoin="round"
           stroke="#000000"
           stroke-opacity="1"
           stroke-miterlimit="10"
           d="M -0.00146175,0.0012531 -1.005368,-3.026091 -2.01318,-6.377653 l -1.253907,-4.59375 -1.257812,-4.972656 c -3.746094,-15.347657 -6.742188,-30.871094 -10.8125,-46.140625 l -1.257813,-4.507813 -1.257812,-4.132812 c -1.4375,-4.386719 -3.074219,-9.144532 -5.53125,-13.082032 l -0.753906,-1.101562 -0.753907,-0.933594 -0.757812,-0.773437 c -6.015625,-5.648438 -11.660156,5.976562 -13.828125,9.878906 l -1.507813,3.023437 -1.761718,3.785157 -2.007813,4.566406 -2.769531,6.542969 c -8.773438,19.6875 -15.902344,42.0625 -32.683594,56.71875 l -1.761719,1.394531 -1.761718,1.257812 c -13.320313,9.191407 -31.26953,9.109375 -46.76953,9.609375 l -8.54688,0.117188 -13.07421,0.06641 -16.09375,0.02344"
           transform="matrix(1,0,0,-1,346.27099,103.595)"
           id="path480" />
      </g>
      <path
         fill-rule="nonzero"
         fill="#1f77b4"
         fill-opacity="1"
         d="m 21.27368,17.230503 c 0.278191,0 0.544011,-0.111275 0.739776,-0.307036 0.197822,-0.195761 0.307035,-0.461585 0.307035,-0.739772 0,-0.276127 -0.109213,-0.54195 -0.307035,-0.737712 -0.195765,-0.195761 -0.461585,-0.307036 -0.739776,-0.307036 -0.276128,0 -0.541948,0.111275 -0.737713,0.307036 -0.195759,0.195762 -0.307035,0.461585 -0.307035,0.737712 0,0.278187 0.111276,0.544011 0.307035,0.739772 0.195765,0.195761 0.461585,0.307036 0.737713,0.307036"
         id="path484"
         style="stroke-width:0.527526" />
      <path
         fill="none"
         stroke-width="0.232111"
         stroke-linecap="butt"
         stroke-linejoin="round"
         stroke="#1f77b4"
         stroke-opacity="1"
         stroke-miterlimit="10"
         d="m 21.27368,17.230503 c 0.278187,0 0.544011,-0.111274 0.739772,-0.307036 0.195762,-0.195762 0.307036,-0.461585 0.307036,-0.739772 0,-0.276127 -0.111274,-0.54195 -0.307036,-0.737712 -0.195761,-0.195761 -0.461585,-0.307036 -0.739772,-0.307036 -0.276126,0 -0.54195,0.111275 -0.737711,0.307036 -0.195762,0.195762 -0.307036,0.461585 -0.307036,0.737712 0,0.278187 0.111274,0.54401 0.307036,0.739772 0.195761,0.195762 0.461585,0.307036 0.737711,0.307036 z m 0,0"
         id="path486"
         style="fill:#0000ff;fill-opacity:1;stroke:none;stroke-opacity:1" />
      <text
         xml:space="preserve"
         style="font-size:3.175px;text-align:center;text-anchor:middle;fill:#000000;fill-opacity:1;stroke:none;stroke-width:0.331999;stroke-miterlimit:9.7;stroke-dasharray:none;stroke-dashoffset:2.19213;stroke-opacity:1"
         x="48.810802"
         y="78.151222"
         id="text11809"><tspan
           sodipodi:role="line"
           id="tspan11807"
           style="stroke-width:0.332;fill:#000000"
           x="48.810802"
           y="78.151222">\(\phi\)</tspan></text>
      <text
         xml:space="preserve"
         style="font-size:3.175px;text-align:center;text-anchor:middle;fill:#000000;fill-opacity:1;stroke:none;stroke-width:0.331999;stroke-miterlimit:9.7;stroke-dasharray:none;stroke-dashoffset:2.19213;stroke-opacity:1"
         x="-41.753365"
         y="4.9141159"
         id="text11813"
         transform="rotate(-90)"><tspan
           sodipodi:role="line"
           id="tspan11811"
           style="stroke-width:0.332;fill:#000000"
           x="-41.753365"
           y="4.9141159">\(V(\phi)\)</tspan></text>
      <path
         style="fill:none;fill-opacity:1;stroke:#000000;stroke-width:0.232;stroke-miterlimit:9.7;stroke-dasharray:none;stroke-dashoffset:2.19213;stroke-opacity:1;marker-start:url(#Arrow4);marker-end:url(#marker15106)"
         d="m 75.529921,55.075856 c 0,0 3.074677,11.144616 6.237564,11.097951 1.992503,-0.0294 3.244649,-4.268934 4.599338,-11.004126"
         id="path13321"
         sodipodi:nodetypes="csc" />
    </g>
    <text
       xml:space="preserve"
       style="font-size:3.175px;text-align:center;text-anchor:middle;opacity:0.658824;fill:#000000;stroke-width:0.232;stroke-miterlimit:9.7;stroke-dashoffset:2.19213"
       x="84.256554"
       y="77.078369"
       id="text1652"><tspan
         sodipodi:role="line"
         id="tspan1650"
         style="fill:#000000;stroke-width:0.232"
         x="84.256554"
         y="77.078369">\small recalentamiento</tspan></text>
  </g>
</svg>
