<?xml version="1.0" encoding="utf-8" standalone="no"?>
<!DOCTYPE svg PUBLIC "-//W3C//DTD SVG 1.1//EN"
  "http://www.w3.org/Graphics/SVG/1.1/DTD/svg11.dtd">
<svg xmlns:xlink="http://www.w3.org/1999/xlink" width="1382.4pt" height="696.24pt" viewBox="0 0 1382.4 696.24" xmlns="http://www.w3.org/2000/svg" version="1.1">
 <metadata>
  <rdf:RDF xmlns:dc="http://purl.org/dc/elements/1.1/" xmlns:cc="http://creativecommons.org/ns#" xmlns:rdf="http://www.w3.org/1999/02/22-rdf-syntax-ns#">
   <cc:Work>
    <dc:type rdf:resource="http://purl.org/dc/dcmitype/StillImage"/>
    <dc:date>2022-03-01T21:10:02.391697</dc:date>
    <dc:format>image/svg+xml</dc:format>
    <dc:creator>
     <cc:Agent>
      <dc:title>Matplotlib v3.5.1, https://matplotlib.org/</dc:title>
     </cc:Agent>
    </dc:creator>
   </cc:Work>
  </rdf:RDF>
 </metadata>
 <defs>
  <style type="text/css">*{stroke-linejoin: round; stroke-linecap: butt}</style>
 </defs>
 <g id="figure_1">
  <g id="patch_1">
   <path d="M 0 696.24 
L 1382.4 696.24 
L 1382.4 0 
L 0 0 
z
" style="fill: #ffffff"/>
  </g>
  <g id="axes_1">
   <g id="patch_2">
    <path d="M 172.8 619.6536 
L 1244.16 619.6536 
L 1244.16 83.5488 
L 172.8 83.5488 
z
" style="fill: #ffffff"/>
   </g>
   <g id="matplotlib.axis_1">
    <g id="xtick_1">
     <g id="line2d_1">
      <defs>
       <path id="m35cedf12b6" d="M 0 0 
L 0 3.5 
" style="stroke: #000000; stroke-width: 0.8"/>
      </defs>
      <g>
       <use xlink:href="#m35cedf12b6" x="328.025455" y="619.6536" style="stroke: #000000; stroke-width: 0.8"/>
      </g>
     </g>
     <g id="text_1">
      <!-- −200 -->
      <g transform="translate(314.291861 634.252038)scale(0.1 -0.1)">
       <defs>
        <path id="DejaVuSans-2212" d="M 678 2272 
L 4684 2272 
L 4684 1741 
L 678 1741 
L 678 2272 
z
" transform="scale(0.015625)"/>
        <path id="DejaVuSans-32" d="M 1228 531 
L 3431 531 
L 3431 0 
L 469 0 
L 469 531 
Q 828 903 1448 1529 
Q 2069 2156 2228 2338 
Q 2531 2678 2651 2914 
Q 2772 3150 2772 3378 
Q 2772 3750 2511 3984 
Q 2250 4219 1831 4219 
Q 1534 4219 1204 4116 
Q 875 4013 500 3803 
L 500 4441 
Q 881 4594 1212 4672 
Q 1544 4750 1819 4750 
Q 2544 4750 2975 4387 
Q 3406 4025 3406 3419 
Q 3406 3131 3298 2873 
Q 3191 2616 2906 2266 
Q 2828 2175 2409 1742 
Q 1991 1309 1228 531 
z
" transform="scale(0.015625)"/>
        <path id="DejaVuSans-30" d="M 2034 4250 
Q 1547 4250 1301 3770 
Q 1056 3291 1056 2328 
Q 1056 1369 1301 889 
Q 1547 409 2034 409 
Q 2525 409 2770 889 
Q 3016 1369 3016 2328 
Q 3016 3291 2770 3770 
Q 2525 4250 2034 4250 
z
M 2034 4750 
Q 2819 4750 3233 4129 
Q 3647 3509 3647 2328 
Q 3647 1150 3233 529 
Q 2819 -91 2034 -91 
Q 1250 -91 836 529 
Q 422 1150 422 2328 
Q 422 3509 836 4129 
Q 1250 4750 2034 4750 
z
" transform="scale(0.015625)"/>
       </defs>
       <use xlink:href="#DejaVuSans-2212"/>
       <use xlink:href="#DejaVuSans-32" x="83.789062"/>
       <use xlink:href="#DejaVuSans-30" x="147.412109"/>
       <use xlink:href="#DejaVuSans-30" x="211.035156"/>
      </g>
     </g>
    </g>
    <g id="xtick_2">
     <g id="line2d_2">
      <g>
       <use xlink:href="#m35cedf12b6" x="518.252727" y="619.6536" style="stroke: #000000; stroke-width: 0.8"/>
      </g>
     </g>
     <g id="text_2">
      <!-- −100 -->
      <g transform="translate(504.519134 634.252038)scale(0.1 -0.1)">
       <defs>
        <path id="DejaVuSans-31" d="M 794 531 
L 1825 531 
L 1825 4091 
L 703 3866 
L 703 4441 
L 1819 4666 
L 2450 4666 
L 2450 531 
L 3481 531 
L 3481 0 
L 794 0 
L 794 531 
z
" transform="scale(0.015625)"/>
       </defs>
       <use xlink:href="#DejaVuSans-2212"/>
       <use xlink:href="#DejaVuSans-31" x="83.789062"/>
       <use xlink:href="#DejaVuSans-30" x="147.412109"/>
       <use xlink:href="#DejaVuSans-30" x="211.035156"/>
      </g>
     </g>
    </g>
    <g id="xtick_3">
     <g id="line2d_3">
      <g>
       <use xlink:href="#m35cedf12b6" x="708.48" y="619.6536" style="stroke: #000000; stroke-width: 0.8"/>
      </g>
     </g>
     <g id="text_3">
      <!-- 0 -->
      <g transform="translate(705.29875 634.252038)scale(0.1 -0.1)">
       <use xlink:href="#DejaVuSans-30"/>
      </g>
     </g>
    </g>
    <g id="xtick_4">
     <g id="line2d_4">
      <g>
       <use xlink:href="#m35cedf12b6" x="898.707273" y="619.6536" style="stroke: #000000; stroke-width: 0.8"/>
      </g>
     </g>
     <g id="text_4">
      <!-- 100 -->
      <g transform="translate(889.163523 634.252038)scale(0.1 -0.1)">
       <use xlink:href="#DejaVuSans-31"/>
       <use xlink:href="#DejaVuSans-30" x="63.623047"/>
       <use xlink:href="#DejaVuSans-30" x="127.246094"/>
      </g>
     </g>
    </g>
    <g id="xtick_5">
     <g id="line2d_5">
      <g>
       <use xlink:href="#m35cedf12b6" x="1088.934545" y="619.6536" style="stroke: #000000; stroke-width: 0.8"/>
      </g>
     </g>
     <g id="text_5">
      <!-- 200 -->
      <g transform="translate(1079.390795 634.252038)scale(0.1 -0.1)">
       <use xlink:href="#DejaVuSans-32"/>
       <use xlink:href="#DejaVuSans-30" x="63.623047"/>
       <use xlink:href="#DejaVuSans-30" x="127.246094"/>
      </g>
     </g>
    </g>
    <g id="text_6">
     <!-- $k$ -->
     <g transform="translate(705.58 647.930163)scale(0.1 -0.1)">
      <defs>
       <path id="DejaVuSans-Oblique-6b" d="M 1172 4863 
L 1747 4863 
L 1197 2028 
L 3169 3500 
L 3916 3500 
L 1716 1825 
L 3322 0 
L 2625 0 
L 1131 1709 
L 800 0 
L 225 0 
L 1172 4863 
z
" transform="scale(0.015625)"/>
      </defs>
      <use xlink:href="#DejaVuSans-Oblique-6b" transform="translate(0 0.015625)"/>
     </g>
    </g>
   </g>
   <g id="matplotlib.axis_2">
    <g id="ytick_1">
     <g id="line2d_6">
      <defs>
       <path id="m783ee5e687" d="M 0 0 
L -3.5 0 
" style="stroke: #000000; stroke-width: 0.8"/>
      </defs>
      <g>
       <use xlink:href="#m783ee5e687" x="172.8" y="606.350581" style="stroke: #000000; stroke-width: 0.8"/>
      </g>
     </g>
     <g id="text_7">
      <!-- −3 -->
      <g transform="translate(151.057812 610.1498)scale(0.1 -0.1)">
       <defs>
        <path id="DejaVuSans-33" d="M 2597 2516 
Q 3050 2419 3304 2112 
Q 3559 1806 3559 1356 
Q 3559 666 3084 287 
Q 2609 -91 1734 -91 
Q 1441 -91 1130 -33 
Q 819 25 488 141 
L 488 750 
Q 750 597 1062 519 
Q 1375 441 1716 441 
Q 2309 441 2620 675 
Q 2931 909 2931 1356 
Q 2931 1769 2642 2001 
Q 2353 2234 1838 2234 
L 1294 2234 
L 1294 2753 
L 1863 2753 
Q 2328 2753 2575 2939 
Q 2822 3125 2822 3475 
Q 2822 3834 2567 4026 
Q 2313 4219 1838 4219 
Q 1578 4219 1281 4162 
Q 984 4106 628 3988 
L 628 4550 
Q 988 4650 1302 4700 
Q 1616 4750 1894 4750 
Q 2613 4750 3031 4423 
Q 3450 4097 3450 3541 
Q 3450 3153 3228 2886 
Q 3006 2619 2597 2516 
z
" transform="scale(0.015625)"/>
       </defs>
       <use xlink:href="#DejaVuSans-2212"/>
       <use xlink:href="#DejaVuSans-33" x="83.789062"/>
      </g>
     </g>
    </g>
    <g id="ytick_2">
     <g id="line2d_7">
      <g>
       <use xlink:href="#m783ee5e687" x="172.8" y="521.798495" style="stroke: #000000; stroke-width: 0.8"/>
      </g>
     </g>
     <g id="text_8">
      <!-- −2 -->
      <g transform="translate(151.057812 525.597714)scale(0.1 -0.1)">
       <use xlink:href="#DejaVuSans-2212"/>
       <use xlink:href="#DejaVuSans-32" x="83.789062"/>
      </g>
     </g>
    </g>
    <g id="ytick_3">
     <g id="line2d_8">
      <g>
       <use xlink:href="#m783ee5e687" x="172.8" y="437.246409" style="stroke: #000000; stroke-width: 0.8"/>
      </g>
     </g>
     <g id="text_9">
      <!-- −1 -->
      <g transform="translate(151.057812 441.045628)scale(0.1 -0.1)">
       <use xlink:href="#DejaVuSans-2212"/>
       <use xlink:href="#DejaVuSans-31" x="83.789062"/>
      </g>
     </g>
    </g>
    <g id="ytick_4">
     <g id="line2d_9">
      <g>
       <use xlink:href="#m783ee5e687" x="172.8" y="352.694323" style="stroke: #000000; stroke-width: 0.8"/>
      </g>
     </g>
     <g id="text_10">
      <!-- 0 -->
      <g transform="translate(159.4375 356.493542)scale(0.1 -0.1)">
       <use xlink:href="#DejaVuSans-30"/>
      </g>
     </g>
    </g>
    <g id="ytick_5">
     <g id="line2d_10">
      <g>
       <use xlink:href="#m783ee5e687" x="172.8" y="268.142237" style="stroke: #000000; stroke-width: 0.8"/>
      </g>
     </g>
     <g id="text_11">
      <!-- 1 -->
      <g transform="translate(159.4375 271.941456)scale(0.1 -0.1)">
       <use xlink:href="#DejaVuSans-31"/>
      </g>
     </g>
    </g>
    <g id="ytick_6">
     <g id="line2d_11">
      <g>
       <use xlink:href="#m783ee5e687" x="172.8" y="183.590151" style="stroke: #000000; stroke-width: 0.8"/>
      </g>
     </g>
     <g id="text_12">
      <!-- 2 -->
      <g transform="translate(159.4375 187.38937)scale(0.1 -0.1)">
       <use xlink:href="#DejaVuSans-32"/>
      </g>
     </g>
    </g>
    <g id="ytick_7">
     <g id="line2d_12">
      <g>
       <use xlink:href="#m783ee5e687" x="172.8" y="99.038065" style="stroke: #000000; stroke-width: 0.8"/>
      </g>
     </g>
     <g id="text_13">
      <!-- 3 -->
      <g transform="translate(159.4375 102.837284)scale(0.1 -0.1)">
       <use xlink:href="#DejaVuSans-33"/>
      </g>
     </g>
    </g>
    <g id="text_14">
     <!-- Gaussian array -->
     <g transform="translate(144.978125 389.239481)rotate(-90)scale(0.1 -0.1)">
      <defs>
       <path id="DejaVuSans-47" d="M 3809 666 
L 3809 1919 
L 2778 1919 
L 2778 2438 
L 4434 2438 
L 4434 434 
Q 4069 175 3628 42 
Q 3188 -91 2688 -91 
Q 1594 -91 976 548 
Q 359 1188 359 2328 
Q 359 3472 976 4111 
Q 1594 4750 2688 4750 
Q 3144 4750 3555 4637 
Q 3966 4525 4313 4306 
L 4313 3634 
Q 3963 3931 3569 4081 
Q 3175 4231 2741 4231 
Q 1884 4231 1454 3753 
Q 1025 3275 1025 2328 
Q 1025 1384 1454 906 
Q 1884 428 2741 428 
Q 3075 428 3337 486 
Q 3600 544 3809 666 
z
" transform="scale(0.015625)"/>
       <path id="DejaVuSans-61" d="M 2194 1759 
Q 1497 1759 1228 1600 
Q 959 1441 959 1056 
Q 959 750 1161 570 
Q 1363 391 1709 391 
Q 2188 391 2477 730 
Q 2766 1069 2766 1631 
L 2766 1759 
L 2194 1759 
z
M 3341 1997 
L 3341 0 
L 2766 0 
L 2766 531 
Q 2569 213 2275 61 
Q 1981 -91 1556 -91 
Q 1019 -91 701 211 
Q 384 513 384 1019 
Q 384 1609 779 1909 
Q 1175 2209 1959 2209 
L 2766 2209 
L 2766 2266 
Q 2766 2663 2505 2880 
Q 2244 3097 1772 3097 
Q 1472 3097 1187 3025 
Q 903 2953 641 2809 
L 641 3341 
Q 956 3463 1253 3523 
Q 1550 3584 1831 3584 
Q 2591 3584 2966 3190 
Q 3341 2797 3341 1997 
z
" transform="scale(0.015625)"/>
       <path id="DejaVuSans-75" d="M 544 1381 
L 544 3500 
L 1119 3500 
L 1119 1403 
Q 1119 906 1312 657 
Q 1506 409 1894 409 
Q 2359 409 2629 706 
Q 2900 1003 2900 1516 
L 2900 3500 
L 3475 3500 
L 3475 0 
L 2900 0 
L 2900 538 
Q 2691 219 2414 64 
Q 2138 -91 1772 -91 
Q 1169 -91 856 284 
Q 544 659 544 1381 
z
M 1991 3584 
L 1991 3584 
z
" transform="scale(0.015625)"/>
       <path id="DejaVuSans-73" d="M 2834 3397 
L 2834 2853 
Q 2591 2978 2328 3040 
Q 2066 3103 1784 3103 
Q 1356 3103 1142 2972 
Q 928 2841 928 2578 
Q 928 2378 1081 2264 
Q 1234 2150 1697 2047 
L 1894 2003 
Q 2506 1872 2764 1633 
Q 3022 1394 3022 966 
Q 3022 478 2636 193 
Q 2250 -91 1575 -91 
Q 1294 -91 989 -36 
Q 684 19 347 128 
L 347 722 
Q 666 556 975 473 
Q 1284 391 1588 391 
Q 1994 391 2212 530 
Q 2431 669 2431 922 
Q 2431 1156 2273 1281 
Q 2116 1406 1581 1522 
L 1381 1569 
Q 847 1681 609 1914 
Q 372 2147 372 2553 
Q 372 3047 722 3315 
Q 1072 3584 1716 3584 
Q 2034 3584 2315 3537 
Q 2597 3491 2834 3397 
z
" transform="scale(0.015625)"/>
       <path id="DejaVuSans-69" d="M 603 3500 
L 1178 3500 
L 1178 0 
L 603 0 
L 603 3500 
z
M 603 4863 
L 1178 4863 
L 1178 4134 
L 603 4134 
L 603 4863 
z
" transform="scale(0.015625)"/>
       <path id="DejaVuSans-6e" d="M 3513 2113 
L 3513 0 
L 2938 0 
L 2938 2094 
Q 2938 2591 2744 2837 
Q 2550 3084 2163 3084 
Q 1697 3084 1428 2787 
Q 1159 2491 1159 1978 
L 1159 0 
L 581 0 
L 581 3500 
L 1159 3500 
L 1159 2956 
Q 1366 3272 1645 3428 
Q 1925 3584 2291 3584 
Q 2894 3584 3203 3211 
Q 3513 2838 3513 2113 
z
" transform="scale(0.015625)"/>
       <path id="DejaVuSans-20" transform="scale(0.015625)"/>
       <path id="DejaVuSans-72" d="M 2631 2963 
Q 2534 3019 2420 3045 
Q 2306 3072 2169 3072 
Q 1681 3072 1420 2755 
Q 1159 2438 1159 1844 
L 1159 0 
L 581 0 
L 581 3500 
L 1159 3500 
L 1159 2956 
Q 1341 3275 1631 3429 
Q 1922 3584 2338 3584 
Q 2397 3584 2469 3576 
Q 2541 3569 2628 3553 
L 2631 2963 
z
" transform="scale(0.015625)"/>
       <path id="DejaVuSans-79" d="M 2059 -325 
Q 1816 -950 1584 -1140 
Q 1353 -1331 966 -1331 
L 506 -1331 
L 506 -850 
L 844 -850 
Q 1081 -850 1212 -737 
Q 1344 -625 1503 -206 
L 1606 56 
L 191 3500 
L 800 3500 
L 1894 763 
L 2988 3500 
L 3597 3500 
L 2059 -325 
z
" transform="scale(0.015625)"/>
      </defs>
      <use xlink:href="#DejaVuSans-47"/>
      <use xlink:href="#DejaVuSans-61" x="77.490234"/>
      <use xlink:href="#DejaVuSans-75" x="138.769531"/>
      <use xlink:href="#DejaVuSans-73" x="202.148438"/>
      <use xlink:href="#DejaVuSans-73" x="254.248047"/>
      <use xlink:href="#DejaVuSans-69" x="306.347656"/>
      <use xlink:href="#DejaVuSans-61" x="334.130859"/>
      <use xlink:href="#DejaVuSans-6e" x="395.410156"/>
      <use xlink:href="#DejaVuSans-20" x="458.789062"/>
      <use xlink:href="#DejaVuSans-61" x="490.576172"/>
      <use xlink:href="#DejaVuSans-72" x="551.855469"/>
      <use xlink:href="#DejaVuSans-72" x="591.21875"/>
      <use xlink:href="#DejaVuSans-61" x="632.332031"/>
      <use xlink:href="#DejaVuSans-79" x="693.611328"/>
     </g>
    </g>
   </g>
   <g id="line2d_13">
    <path d="M 221.498182 389.588039 
L 223.400455 430.222996 
L 225.302727 364.195792 
L 227.205 286.615426 
L 229.107273 233.524047 
L 231.009545 285.341472 
L 232.911818 323.885583 
L 234.814091 399.528768 
L 236.716364 367.921026 
L 238.618636 345.970917 
L 240.520909 431.139761 
L 242.423182 371.56795 
L 244.325455 327.960397 
L 246.227727 293.785292 
L 248.13 323.491342 
L 250.032273 372.65554 
L 251.934545 354.844149 
L 253.836818 315.99893 
L 255.739091 350.593091 
L 257.641364 377.803856 
L 259.543636 300.228512 
L 261.445909 325.755596 
L 263.348182 239.654357 
L 265.250455 241.157177 
L 267.152727 321.0666 
L 269.055 189.299588 
L 270.957273 348.393831 
L 272.859545 455.845577 
L 274.761818 255.64314 
L 276.664091 254.903653 
L 278.566364 314.979438 
L 280.468636 313.247575 
L 282.370909 339.658457 
L 284.273182 274.531499 
L 286.175455 231.938206 
L 288.077727 271.242831 
L 289.98 355.624888 
L 291.882273 452.588704 
L 293.784545 462.958853 
L 295.686818 440.726115 
L 297.589091 344.824988 
L 299.491364 460.896588 
L 301.393636 595.2852 
L 303.295909 534.518469 
L 305.198182 408.697286 
L 307.100455 293.381235 
L 310.905 332.584337 
L 312.807273 323.298525 
L 314.709545 269.006089 
L 316.611818 346.770101 
L 318.514091 434.411177 
L 320.416364 392.761186 
L 322.318636 365.207183 
L 324.220909 431.740138 
L 326.123182 487.733944 
L 328.025455 420.844188 
L 329.927727 403.703093 
L 331.83 349.13482 
L 333.732273 284.934603 
L 335.634545 327.583751 
L 337.536818 467.858381 
L 339.439091 483.030678 
L 341.341364 332.535951 
L 343.243636 380.927182 
L 345.145909 505.823652 
L 347.048182 450.798836 
L 348.950455 259.446519 
L 350.852727 253.417995 
L 352.755 273.305967 
L 354.657273 289.846268 
L 356.559545 345.578176 
L 358.461818 377.562657 
L 360.364091 424.248782 
L 362.266364 414.112287 
L 364.168636 476.224771 
L 366.070909 482.622005 
L 367.973182 372.313379 
L 369.875455 352.376287 
L 371.777727 479.963539 
L 373.68 424.693953 
L 375.582273 304.528306 
L 377.484545 311.53429 
L 379.386818 391.289276 
L 381.289091 443.06205 
L 383.191364 404.760089 
L 385.093636 358.908078 
L 386.995909 264.090066 
L 388.898182 326.114214 
L 390.800455 349.582456 
L 392.702727 351.842569 
L 394.605 422.923197 
L 396.507273 375.031058 
L 398.409545 268.677957 
L 400.311818 233.449867 
L 402.214091 341.805531 
L 404.116364 337.140184 
L 406.018636 311.249923 
L 407.920909 437.868981 
L 409.823182 448.36245 
L 411.725455 367.277316 
L 413.627727 276.415532 
L 415.53 229.190209 
L 417.432273 358.915792 
L 419.334545 434.440784 
L 421.236818 392.336702 
L 423.139091 372.518532 
L 425.041364 446.886591 
L 426.943636 457.286422 
L 428.845909 354.673113 
L 430.748182 311.321373 
L 432.650455 287.652795 
L 434.552727 283.51491 
L 436.455 301.635872 
L 438.357273 265.159966 
L 440.259545 253.456872 
L 442.161818 212.848696 
L 444.064091 249.491233 
L 445.966364 329.314575 
L 447.868636 261.143105 
L 449.770909 335.900962 
L 451.673182 399.293221 
L 453.575455 393.922559 
L 455.477727 520.874505 
L 457.38 465.944578 
L 459.282273 390.924238 
L 461.184545 356.557239 
L 463.086818 379.053456 
L 464.989091 447.377545 
L 468.793636 304.637234 
L 470.695909 377.880943 
L 472.598182 536.514184 
L 474.500455 539.003708 
L 478.305 510.278178 
L 480.207273 463.148421 
L 482.109545 457.621201 
L 484.011818 396.955061 
L 485.914091 363.027405 
L 487.816364 442.178528 
L 489.718636 561.488588 
L 491.620909 572.168078 
L 493.523182 412.756836 
L 495.425455 343.851675 
L 497.327727 391.156439 
L 499.23 321.305262 
L 501.132273 237.833078 
L 503.034545 310.148338 
L 504.936818 448.956678 
L 506.839091 438.449028 
L 508.741364 330.084037 
L 510.643636 296.245622 
L 512.545909 163.12587 
L 514.448182 166.574974 
L 516.350455 340.405885 
L 518.252727 385.208452 
L 520.155 308.169035 
L 522.057273 358.611941 
L 523.959545 432.310647 
L 525.861818 408.504371 
L 527.764091 439.959741 
L 529.666364 460.673773 
L 531.568636 526.848948 
L 533.470909 438.511094 
L 535.373182 378.641602 
L 537.275455 340.060625 
L 539.177727 286.309088 
L 541.08 330.617064 
L 542.982273 412.093737 
L 544.884545 480.628816 
L 546.786818 472.230936 
L 548.689091 345.652516 
L 550.591364 298.805597 
L 552.493636 321.430618 
L 554.395909 291.233238 
L 556.298182 334.059219 
L 558.200455 234.814948 
L 560.102727 306.907774 
L 562.005 481.066475 
L 563.907273 437.135704 
L 565.809545 328.7088 
L 567.711818 275.811106 
L 569.614091 374.167708 
L 571.516364 350.129153 
L 573.418636 324.290416 
L 575.320909 344.521206 
L 577.223182 340.005566 
L 579.125455 331.549767 
L 581.027727 356.54077 
L 582.93 484.632675 
L 584.832273 421.825599 
L 586.734545 322.101416 
L 588.636818 385.477039 
L 590.539091 427.253505 
L 592.441364 455.135306 
L 594.343636 399.833677 
L 596.245909 289.199151 
L 598.148182 330.254596 
L 600.050455 330.195224 
L 601.952727 241.99594 
L 603.855 215.807783 
L 605.757273 230.134094 
L 607.659545 336.475106 
L 609.561818 356.232667 
L 611.464091 316.239999 
L 613.366364 356.076517 
L 615.268636 370.696087 
L 617.170909 423.117685 
L 619.073182 448.226078 
L 620.975455 506.765799 
L 622.877727 481.256888 
L 624.78 402.340949 
L 626.682273 460.429198 
L 630.486818 325.678779 
L 632.389091 296.143178 
L 634.291364 168.862417 
L 636.193636 107.9172 
L 638.095909 197.410961 
L 639.998182 310.2431 
L 641.900455 347.366216 
L 643.802727 290.522719 
L 645.705 316.035039 
L 647.607273 525.818959 
L 649.509545 474.057527 
L 651.411818 380.145686 
L 653.314091 476.905556 
L 657.118636 251.088845 
L 659.020909 265.177268 
L 660.923182 385.886145 
L 662.825455 439.354985 
L 664.727727 343.194198 
L 666.63 375.84712 
L 668.532273 386.761262 
L 670.434545 362.037657 
L 672.336818 493.443008 
L 674.239091 562.156569 
L 676.141364 425.825846 
L 678.043636 330.479092 
L 679.945909 361.887811 
L 681.848182 315.117404 
L 683.750455 348.293246 
L 685.652727 400.384316 
L 687.555 321.93855 
L 689.457273 301.386739 
L 691.359545 285.581783 
L 693.261818 233.75573 
L 695.164091 221.308329 
L 697.066364 243.318781 
L 698.968636 321.776007 
L 700.870909 475.719863 
L 702.773182 433.435343 
L 704.675455 408.17471 
L 706.577727 368.67019 
L 708.48 183.567918 
L 710.382273 284.992978 
L 712.284545 481.621166 
L 714.186818 472.937521 
L 716.089091 489.023721 
L 717.991364 430.45437 
L 719.893636 277.286917 
L 721.795909 325.341657 
L 723.698182 311.532398 
L 725.600455 298.71019 
L 727.502727 348.928937 
L 729.405 344.628337 
L 731.307273 353.080094 
L 733.209545 270.521413 
L 735.111818 204.241751 
L 737.014091 230.618898 
L 738.916364 286.207135 
L 740.818636 337.524773 
L 742.720909 428.006707 
L 744.623182 307.621381 
L 746.525455 222.010616 
L 748.427727 341.794575 
L 750.33 394.4946 
L 752.232273 411.33396 
L 754.134545 375.858152 
L 756.036818 265.904657 
L 757.939091 196.520587 
L 759.841364 298.44915 
L 761.743636 302.080969 
L 763.645909 188.070771 
L 765.548182 276.6543 
L 767.450455 408.747741 
L 769.352727 529.40878 
L 771.255 503.99028 
L 773.157273 284.836577 
L 775.059545 256.955966 
L 776.961818 316.391095 
L 778.864091 356.590198 
L 780.766364 262.774242 
L 782.668636 320.127109 
L 784.570909 406.054201 
L 786.473182 293.856161 
L 788.375455 286.60964 
L 790.277727 225.720694 
L 792.18 267.942551 
L 794.082273 348.610706 
L 795.984545 443.683544 
L 797.886818 456.075995 
L 799.789091 396.172947 
L 801.691364 410.478644 
L 803.593636 365.828166 
L 805.495909 362.984956 
L 807.398182 325.886246 
L 809.300455 265.916498 
L 811.202727 226.617452 
L 813.105 314.751802 
L 815.007273 337.179844 
L 816.909545 304.887316 
L 818.811818 390.964139 
L 820.714091 424.049292 
L 822.616364 392.886876 
L 824.518636 272.213448 
L 826.420909 279.12755 
L 828.323182 320.308642 
L 830.225455 281.06478 
L 832.127727 327.688371 
L 834.03 452.167081 
L 835.932273 444.498084 
L 837.834545 305.84954 
L 839.736818 280.730258 
L 841.639091 287.707281 
L 843.541364 277.256598 
L 845.443636 250.971775 
L 847.345909 205.31941 
L 849.248182 202.856664 
L 853.052727 391.850051 
L 854.955 319.814592 
L 856.857273 316.147872 
L 858.759545 514.117384 
L 860.661818 544.11727 
L 862.564091 446.21892 
L 864.466364 381.37097 
L 866.368636 323.719167 
L 868.270909 281.993907 
L 870.173182 201.810814 
L 872.075455 282.888211 
L 873.977727 331.569174 
L 875.88 255.701668 
L 877.782273 306.749659 
L 879.684545 303.570819 
L 881.586818 222.353106 
L 883.489091 228.200425 
L 885.391364 166.332433 
L 887.293636 192.161399 
L 889.195909 290.391816 
L 891.098182 292.428185 
L 893.000455 323.244385 
L 894.902727 358.380608 
L 896.805 457.955405 
L 898.707273 474.393915 
L 900.609545 401.799303 
L 902.511818 313.686802 
L 906.316364 553.368883 
L 908.218636 444.144883 
L 910.120909 440.513391 
L 912.023182 351.558453 
L 913.925455 274.386812 
L 915.827727 397.577831 
L 917.73 413.506508 
L 919.632273 294.780585 
L 921.534545 307.789392 
L 923.436818 361.584962 
L 925.339091 472.17259 
L 927.241364 394.221301 
L 929.143636 283.911141 
L 931.045909 389.078172 
L 932.948182 377.489632 
L 934.850455 301.287673 
L 936.752727 328.226392 
L 938.655 341.879423 
L 940.557273 378.450786 
L 942.459545 409.200863 
L 944.361818 416.441357 
L 946.264091 475.270083 
L 948.166364 336.554205 
L 950.068636 296.315749 
L 951.970909 395.174256 
L 953.873182 383.093419 
L 955.775455 291.186602 
L 957.677727 249.648067 
L 959.58 274.740058 
L 961.482273 206.109208 
L 963.384545 155.253053 
L 965.286818 276.372488 
L 967.189091 340.118833 
L 969.091364 441.161366 
L 970.993636 470.57949 
L 972.895909 412.140735 
L 974.798182 313.241427 
L 976.700455 256.386024 
L 978.602727 295.608249 
L 980.505 279.437643 
L 982.407273 301.654938 
L 984.309545 327.749676 
L 986.211818 360.848915 
L 988.114091 343.933691 
L 990.016364 393.027489 
L 991.918636 353.03808 
L 993.820909 257.585551 
L 995.723182 293.011848 
L 997.625455 342.885674 
L 999.527727 349.244348 
L 1001.43 238.010057 
L 1003.332273 254.801177 
L 1005.234545 383.8423 
L 1007.136818 343.545674 
L 1009.039091 363.832065 
L 1010.941364 467.136531 
L 1012.843636 403.272444 
L 1014.745909 307.831897 
L 1016.648182 244.511442 
L 1018.550455 277.365667 
L 1020.452727 393.885572 
L 1022.355 342.633408 
L 1024.257273 298.536616 
L 1026.159545 374.677748 
L 1028.061818 426.78009 
L 1029.964091 487.40079 
L 1031.866364 525.50046 
L 1033.768636 434.235709 
L 1035.670909 414.119454 
L 1037.573182 419.398228 
L 1039.475455 328.707548 
L 1041.377727 332.281291 
L 1043.28 393.951092 
L 1047.084545 188.528644 
L 1048.986818 265.360226 
L 1050.889091 380.972229 
L 1052.791364 356.255527 
L 1054.693636 261.690933 
L 1056.595909 279.358605 
L 1058.498182 287.765858 
L 1060.400455 337.36614 
L 1062.302727 345.635296 
L 1064.205 372.709977 
L 1066.107273 427.350027 
L 1068.009545 442.491269 
L 1069.911818 555.130773 
L 1071.814091 455.964786 
L 1073.716364 323.487758 
L 1075.618636 428.095198 
L 1077.520909 526.22455 
L 1079.423182 450.994402 
L 1081.325455 289.287038 
L 1083.227727 325.984326 
L 1085.13 397.188777 
L 1087.032273 315.442921 
L 1088.934545 294.057356 
L 1090.836818 278.145221 
L 1092.739091 264.241374 
L 1094.641364 364.849936 
L 1096.543636 387.1007 
L 1098.445909 340.501909 
L 1100.348182 312.657552 
L 1102.250455 410.554241 
L 1104.152727 481.427522 
L 1106.055 426.659266 
L 1107.957273 409.26906 
L 1109.859545 416.459689 
L 1111.761818 469.366909 
L 1113.664091 368.021257 
L 1115.566364 340.810658 
L 1117.468636 434.518246 
L 1119.370909 267.548735 
L 1121.273182 166.283677 
L 1123.175455 227.207109 
L 1125.077727 284.497548 
L 1126.98 235.12492 
L 1128.882273 303.287859 
L 1130.784545 334.945135 
L 1132.686818 292.324395 
L 1134.589091 379.510464 
L 1136.491364 406.248994 
L 1138.393636 378.023715 
L 1140.295909 368.168412 
L 1142.198182 327.441589 
L 1144.100455 186.361006 
L 1146.002727 191.20558 
L 1147.905 440.340092 
L 1149.807273 589.653081 
L 1151.709545 535.598955 
L 1153.611818 427.402921 
L 1155.514091 277.141072 
L 1157.416364 233.765059 
L 1159.318636 221.719549 
L 1161.220909 240.481995 
L 1163.123182 324.414059 
L 1165.025455 372.377857 
L 1166.927727 359.688928 
L 1168.83 327.89536 
L 1170.732273 365.11765 
L 1172.634545 422.170446 
L 1174.536818 402.93927 
L 1176.439091 430.614292 
L 1178.341364 493.411851 
L 1180.243636 443.074822 
L 1184.048182 268.560545 
L 1185.950455 277.357937 
L 1187.852727 283.877232 
L 1189.755 235.806897 
L 1191.657273 313.284073 
L 1193.559545 318.858658 
L 1195.461818 279.417065 
L 1195.461818 279.417065 
" clip-path="url(#pbcd88c619e)" style="fill: none; stroke: #1f77b4; stroke-width: 1.5; stroke-linecap: square"/>
   </g>
   <g id="patch_3">
    <path d="M 172.8 619.6536 
L 172.8 83.5488 
" style="fill: none; stroke: #000000; stroke-width: 0.8; stroke-linejoin: miter; stroke-linecap: square"/>
   </g>
   <g id="patch_4">
    <path d="M 1244.16 619.6536 
L 1244.16 83.5488 
" style="fill: none; stroke: #000000; stroke-width: 0.8; stroke-linejoin: miter; stroke-linecap: square"/>
   </g>
   <g id="patch_5">
    <path d="M 172.8 619.6536 
L 1244.16 619.6536 
" style="fill: none; stroke: #000000; stroke-width: 0.8; stroke-linejoin: miter; stroke-linecap: square"/>
   </g>
   <g id="patch_6">
    <path d="M 172.8 83.5488 
L 1244.16 83.5488 
" style="fill: none; stroke: #000000; stroke-width: 0.8; stroke-linejoin: miter; stroke-linecap: square"/>
   </g>
  </g>
 </g>
 <defs>
  <clipPath id="pbcd88c619e">
   <rect x="172.8" y="83.5488" width="1071.36" height="536.1048"/>
  </clipPath>
 </defs>
</svg>
